<svg width="48" height="48" xmlns="http://www.w3.org/2000/svg" data-name="Layer 1" version="1.1">
 <metadata id="metadata76">image/svg+xml</metadata>

 <g>
  <title>Layer 1</title>
  <g stroke="null" id="surface1">
   <path stroke="null" fill="rgb(96.862745%,58.039216%,11.372549%)" fill-rule="nonzero" d="m29.43758,25.19561c0.00811,-0.12149 0.01619,-0.24295 0.0243,-0.36442c-0.01619,0.07287 -0.0243,0.14576 -0.0243,0.21865l0,0.14576zm0,0" id="path2"/>
   <path stroke="null" fill="rgb(96.470588%,73.72549%,45.490196%)" fill-rule="nonzero" d="m32.06948,34.80003c-0.18625,0.18625 -0.44539,0.29154 -0.71264,0.29154c-0.26725,0 -0.51828,-0.10529 -0.71264,-0.29154c1.61963,1.57915 4.24345,1.57915 5.86309,0c1.61963,-1.57104 1.61963,-4.13007 0,-5.70922c-0.39682,-0.38061 -1.02848,-0.38061 -1.42528,0c-0.38871,0.38871 -0.38871,1.00418 0,1.38479c0.55067,0.52639 0.76121,1.29571 0.56686,2.01645c-0.19436,0.72075 -0.77742,1.27952 -1.51436,1.47387c-0.73692,0.19436 -1.53055,-0.01621 -2.06503,-0.55069c0.38871,0.38063 0.38871,1.00418 0,1.38479zm0,0" id="path4"/>
   <path stroke="null" fill="rgb(96.862745%,58.039216%,11.372549%)" fill-rule="nonzero" d="m30.64421,33.41524c-0.38871,0.38063 -0.38871,1.00418 0,1.38479c0.39682,0.38061 1.02846,0.38061 1.42528,0c0.38871,-0.38061 0.38871,-1.00416 0,-1.38479c-0.19436,-0.18625 -0.44539,-0.28344 -0.71264,-0.28344c-0.26725,0 -0.52639,0.09719 -0.71264,0.28344zm0,0" id="path6"/>
   <path stroke="null" fill="rgb(96.470588%,73.72549%,45.490196%)" fill-rule="nonzero" d="m46.60571,17.6238c-1.18233,-1.14992 -2.95583,-1.49815 -4.50259,-0.8827c-1.54674,0.62356 -2.55901,2.08934 -2.56712,3.71706c0.01621,-0.53447 0.46971,-0.96367 1.02037,-0.95559c0.55069,0 0.99608,0.44541 0.98797,0.98799c0,-0.00811 0,-0.00811 0,-0.01621c0,-0.93938 0.64785,-1.75729 1.57915,-2.00024c0.93129,-0.24295 1.91926,0.15387 2.39706,0.96367c0.4859,0.81793 0.34822,1.84639 -0.33201,2.51044c-0.39682,0.38063 -0.39682,1.00418 0,1.38479c0.38871,0.38061 1.02846,0.38061 1.41717,0c1.61963,-1.57915 1.61963,-4.13007 0,-5.70922zm0,0" id="path8"/>
   <path stroke="null" fill="rgb(96.470588%,73.72549%,45.490196%)" fill-rule="nonzero" d="m26.13353,37.09182c-0.55069,0 -1.00418,-0.43731 -1.00418,-0.97989l0,1.92737c0,1.63583 1.01229,3.10159 2.55903,3.73325c1.54674,0.62356 3.32835,0.27533 4.51879,-0.8827c0.3725,-0.38061 0.36442,-0.98797 -0.0243,-1.3686c-0.38063,-0.3725 -1.00418,-0.38061 -1.40098,-0.01619c-0.60737,0.59926 -1.53055,0.77742 -2.32419,0.4535c-0.80172,-0.32393 -1.32,-1.07705 -1.32,-1.91926l0,-1.92737c0,0.54258 -0.44539,0.97989 -1.00416,0.97989zm0,0" id="path10"/>
   <path stroke="null" fill="rgb(96.862745%,58.039216%,11.372549%)" fill-rule="nonzero" d="m27.1458,36.11193c0,0.54258 -0.4535,0.97989 -1.01227,0.97989c-0.55069,0 -1.00418,-0.43731 -1.00418,-0.97989c0,-0.53447 0.4535,-0.97987 1.00418,-0.97987c0.55877,0 1.01227,0.44539 1.01227,0.97987zm0,0" id="path12"/>
   <path stroke="null" fill="rgb(96.470588%,73.72549%,45.490196%)" fill-rule="nonzero" d="m34.6933,19.39731c-0.55069,0.00811 -1.01229,-0.42109 -1.02037,-0.96367c0.01619,1.87878 1.57104,3.39314 3.49841,3.40122c0.55067,-0.01619 0.98797,-0.4535 0.98797,-0.97987c0,-0.53447 -0.43731,-0.97178 -0.98797,-0.97989c-0.81791,0 -1.48198,-0.65594 -1.49006,-1.44958c0,-0.00809 0,-0.00809 0,-0.00809c0.00809,0.53447 -0.43731,0.97987 -0.98797,0.97987zm0,0" id="path14"/>
   <path stroke="null" fill="rgb(96.862745%,58.039216%,11.372549%)" fill-rule="nonzero" d="m34.67709,17.43755c-0.55067,0 -1.00416,0.44539 -1.00416,0.97989c0,0.00809 0,0.01619 0,0.01619c0.00809,0.54258 0.46158,0.97178 1.01227,0.96367c0.55877,0 1.00416,-0.44539 0.99608,-0.97987c0,-0.54258 -0.4535,-0.97989 -1.00418,-0.97989zm0,0" id="path16"/>
   <path stroke="null" fill="rgb(96.470588%,73.72549%,45.490196%)" fill-rule="nonzero" d="m22.27879,37.09182c-0.54256,0 -0.99606,-0.4292 -1.00416,-0.95559c0,0 0,0.00811 0,0.01619l0,1.88688c0,0.84221 -0.51828,1.59534 -1.3119,1.91926c-0.80172,0.32393 -1.71682,0.14576 -2.32419,-0.4535c-0.3968,-0.38061 -1.02846,-0.38061 -1.42528,0c-0.38871,0.38063 -0.38871,1.00418 0,1.38479c1.19043,1.15803 2.97204,1.50625 4.51879,0.8827c1.54674,-0.63166 2.55903,-2.10551 2.55903,-3.73325l0,-1.88688c0,-0.00809 0,-0.01619 0,-0.01619c-0.01621,0.53447 -0.4616,0.9637 -1.01229,0.95559zm0,0" id="path18"/>
   <path stroke="null" fill="rgb(96.862745%,58.039216%,11.372549%)" fill-rule="nonzero" d="m23.28297,36.13623c0,-0.53447 -0.44539,-0.96367 -1.00418,-0.96367c-0.55067,0 -1.00416,0.4292 -1.00416,0.96367c0,0.52639 0.4535,0.95559 1.00416,0.95559c0.55879,0 1.00418,-0.4292 1.00418,-0.95559zm0,0" id="path20"/>
   <path stroke="null" fill="rgb(96.470588%,73.72549%,45.490196%)" fill-rule="nonzero" d="m16.5291,35.47218c-0.39682,-0.38061 -0.39682,-1.00418 0,-1.38479c-0.54258,0.52639 -1.32811,0.73694 -2.06505,0.55069c-0.74502,-0.19436 -1.32,-0.76123 -1.51436,-1.48198c-0.19436,-0.72072 0.01621,-1.48196 0.55879,-2.00835c0.3968,-0.38061 0.3968,-1.00416 0,-1.38479c-0.38871,-0.38061 -1.02848,-0.38061 -1.41719,0c-1.61963,1.57915 -1.61963,4.13007 0,5.70922c1.61963,1.57104 4.24345,1.57104 5.85498,0c-0.18625,0.17816 -0.44539,0.28344 -0.70453,0.28344c-0.26725,0 -0.52639,-0.10527 -0.71264,-0.28344zm0,0" id="path22"/>
   <path stroke="null" fill="rgb(96.862745%,58.039216%,11.372549%)" fill-rule="nonzero" d="m17.94627,34.08739c-0.38871,-0.38871 -1.02846,-0.38871 -1.41717,0c-0.39682,0.38061 -0.39682,1.00418 0,1.38479c0.38871,0.38061 1.02846,0.38061 1.41717,0c0.19436,-0.18625 0.29963,-0.43731 0.29963,-0.69645c0,-0.25914 -0.10527,-0.51018 -0.29963,-0.68834zm0,0" id="path24"/>
   <path stroke="null" fill="rgb(96.862745%,58.039216%,11.372549%)" fill-rule="nonzero" d="m11.45963,25.78676c-0.00809,-0.54256 0.43731,-0.97987 0.98799,-0.98797c-1.03657,0.00811 -2.03264,-0.38061 -2.78577,-1.08516c-0.74504,-0.70453 -1.16614,-1.67631 -1.18235,-2.68858c0,0 0,-0.00811 0,-0.00811c0,0.00811 0,0.01621 0,0.0243c0,0.54258 -0.44539,0.97989 -1.00416,0.97989c-0.55069,0 -0.99608,-0.43731 -1.00418,-0.97178c0.04051,3.16638 2.6805,5.70111 5.92787,5.7092l0.06479,0c-0.55069,-0.00809 -0.99608,-0.43729 -1.00418,-0.97178zm0,0" id="path26"/>
   <path stroke="null" fill="rgb(96.862745%,58.039216%,11.372549%)" fill-rule="nonzero" d="m13.46798,25.76248c-0.00809,-0.53449 -0.4535,-0.9637 -1.00416,-0.9637l-0.01619,0c-0.55069,0 -0.99608,0.43731 -0.99608,0.97989c0,0.54258 0.4535,0.97987 1.01227,0.97987l0.01619,0c0.55069,-0.00809 0.99608,-0.4535 0.98797,-0.99606zm0,0" id="path28"/>
   <path stroke="null" fill="rgb(96.862745%,58.039216%,11.372549%)" fill-rule="nonzero" d="m19.71977,18.01252c0,0 0,0.00811 0.00811,0.00811l-0.0324,-0.0243l0.0243,0.01619zm0,0" id="path30"/>
   <path stroke="null" fill="rgb(96.470588%,73.72549%,45.490196%)" fill-rule="nonzero" d="m13.96198,19.39731l-0.01621,0c-0.55067,0 -0.99608,-0.44539 -0.98797,-0.97987c0,0 0,0 0,0.00809c-0.00811,0.79364 -0.67215,1.44958 -1.49006,1.44958c-0.55067,0.00811 -0.98797,0.44541 -0.98797,0.97989c0,0.52637 0.43731,0.96367 0.98797,0.97987c1.91926,-0.00809 3.48222,-1.52245 3.49841,-3.39312c-0.01619,0.53447 -0.4616,0.95557 -1.00416,0.95557zm0,0" id="path32"/>
   <path stroke="null" fill="rgb(96.862745%,58.039216%,11.372549%)" fill-rule="nonzero" d="m13.96198,17.43755c-0.55069,0.00811 -0.98799,0.44539 -0.99608,0.97989c0,0.52637 0.4292,0.97178 0.97987,0.97987l0.01621,0c0.54256,0 0.98797,-0.42109 1.00416,-0.95557c0,-0.00811 0,-0.01621 0,-0.0243c0,-0.53449 -0.4535,-0.97989 -1.00416,-0.97989zm0,0" id="path34"/>
   <path stroke="null" fill="rgb(96.862745%,58.039216%,11.372549%)" fill-rule="nonzero" d="m18.11633,11.59876c0.55877,0 1.01227,0.43731 1.01227,0.97989c0,-2.78577 2.31608,-5.03707 5.16664,-5.04515c-0.54258,-0.00811 -0.97989,-0.44541 -0.97989,-0.97989c0,-0.52639 0.43731,-0.96367 0.97989,-0.97178c-3.96001,0 -7.18307,3.134 -7.18307,6.99682c0,-0.54258 0.4535,-0.97989 1.00416,-0.97989zm0,0" id="path36"/>
   <path stroke="null" fill="rgb(96.862745%,58.039216%,11.372549%)" fill-rule="nonzero" d="m19.1286,12.57865c0,0.54258 -0.4535,0.97989 -1.01227,0.97989c-0.55067,0 -1.00416,-0.43731 -1.00416,-0.97989c0,-0.54258 0.4535,-0.97989 1.00416,-0.97989c0.55877,0 1.01227,0.43731 1.01227,0.97989zm0,0" id="path38"/>
   <path stroke="null" fill="rgb(96.862745%,58.039216%,11.372549%)" fill-rule="nonzero" d="m25.29942,6.56172c0,0.53447 -0.44541,0.97987 -1.00418,0.97178c2.85866,0.00809 5.17472,2.25938 5.17472,5.04515c0.01621,-0.53447 0.4616,-0.96367 1.00418,-0.96367c0.55067,0 0.99608,0.4292 1.00416,0.96367c0,-3.86283 -3.22306,-6.99682 -7.18307,-6.99682c0.55877,-0.00811 1.01227,0.43731 1.00418,0.97989zm0,0" id="path40"/>
   <path stroke="null" fill="rgb(96.862745%,58.039216%,11.372549%)" fill-rule="nonzero" d="m31.47831,12.57865c0,0.54258 -0.44539,0.97989 -1.00416,0.97989c-0.55069,0 -1.00418,-0.43731 -1.00418,-0.97989c0,-0.54258 0.4535,-0.97989 1.00418,-0.97989c0.55877,0 1.00416,0.43731 1.00416,0.97989zm0,0" id="path42"/>
   <path stroke="null" fill="rgb(96.862745%,58.039216%,11.372549%)" fill-rule="nonzero" d="m25.29942,6.56172c0,0.53447 -0.44541,0.97178 -1.00418,0.97178c-0.55067,0 -1.00416,-0.43731 -1.00416,-0.97178c0,-0.54258 0.4535,-0.97989 1.00416,-0.97989c0.55877,0 1.00418,0.43731 1.00418,0.97989zm0,0" id="path44"/>
   <path stroke="null" fill="rgb(96.862745%,58.039216%,11.372549%)" fill-rule="nonzero" d="m34.67709,17.43755c0.55877,0 1.00418,0.43731 1.00418,0.97989c0,0 0,-0.00811 0,-0.00811c-0.0324,-2.2513 -1.92737,-4.05718 -4.24345,-4.0248c-0.06479,0 -0.12957,0.00811 -0.20244,0.00811c0.16195,-0.59117 0.24293,-1.19852 0.24293,-1.81399c0.00811,0.35633 -0.17814,0.68834 -0.49399,0.86651c-0.31582,0.17816 -0.70453,0.17816 -1.02035,0c-0.31584,-0.17816 -0.50209,-0.51018 -0.49401,-0.86651c0.00811,1.32811 -0.53447,2.60761 -1.49815,3.547l-1.11754,1.09325l-1.13375,-1.10944l1.10135,-1.07708c0.66404,-0.64785 1.04467,-1.53055 1.03657,-2.45374c0.00811,0.35633 -0.17816,0.68834 -0.49399,0.86651c-0.31582,0.17816 -0.70453,0.17816 -1.02037,0c-0.30774,-0.17816 -0.50209,-0.51018 -0.49399,-0.86651c0,0.4049 -0.16195,0.78553 -0.4535,1.06897l-1.10135,1.07705l-1.09325,-1.06897c-0.29154,-0.28344 -0.4616,-0.67215 -0.4535,-1.07705c0.00809,0.35633 -0.18627,0.68834 -0.50209,0.86651c-0.31582,0.17816 -0.70453,0.17816 -1.01227,0c-0.31584,-0.17816 -0.5102,-0.51018 -0.50209,-0.86651c0,0.92319 0.38061,1.80588 1.04467,2.46184l1.10135,1.06897l-1.13375,1.10944l-0.59926,-0.58307l-0.50209,-0.49399c-0.97178,-0.93938 -1.51436,-2.227 -1.51436,-3.5632c0.00811,0.35633 -0.18625,0.68834 -0.49399,0.86651c-0.31582,0.17816 -0.70453,0.17816 -1.02037,0c-0.31582,-0.17816 -0.50207,-0.51018 -0.49399,-0.86651c-0.00809,0.61547 0.07289,1.22282 0.23484,1.81399c-0.04857,-0.00811 -0.10527,-0.01619 -0.16195,-0.01619c-2.30798,-0.0243 -4.21105,1.7735 -4.24345,4.03288c0,0 0,0 0,0.00811c0.01621,-0.53449 0.4616,-0.9637 1.01229,-0.95559c0.55067,0 0.99606,0.4292 1.00416,0.95559c0,0.00809 0,0.01619 0,0.0243c0,-0.00811 0,-0.00811 0,-0.00811c0,-0.56688 0.24295,-1.10135 0.65596,-1.49006c0.41301,-0.39682 0.97178,-0.60737 1.54674,-0.60737c0.57496,0.00811 1.12565,0.23484 1.52247,0.63975l1.03657,1.04467l0.59115,0.57496l-1.10135,1.07708c-0.05668,0.04857 -0.10527,0.10527 -0.16195,0.16195c-0.0243,0.0243 -0.0567,0.04049 -0.081,0.06479l-3.77374,3.74136c-0.72072,0.72883 -1.70872,1.14184 -2.75337,1.15803l0.01619,0c0.54258,0.00811 0.98797,0.43731 0.98797,0.97178c0.00811,0.53447 -0.4292,0.97178 -0.97987,0.98797c1.57913,-0.01619 3.0773,-0.64785 4.17054,-1.74921l0.46971,-0.46158l0.04857,-0.04859c0,0.04049 -0.00809,8.12247 -0.00809,8.12247c0,0.55067 -0.22676,1.07705 -0.62356,1.46577c0.38871,-0.36442 1.01227,-0.35631 1.40098,0.01619c0.38871,0.37252 0.3968,0.97989 0.01619,1.3686c0.78553,-0.76123 1.21473,-1.78161 1.21473,-2.85866l0,-3.1097c0.60737,0.60737 1.32809,1.10135 2.11362,1.46577l0,5.14234c0,0.00811 0,0.01621 0,0.0243c0.00811,-0.53447 0.4616,-0.96367 1.00416,-0.96367c0.54258,0 0.98799,0.4292 1.00418,0.96367c0,-0.00809 0,-0.01619 0,-0.0243l0,-4.56736c0.60737,0.08908 1.23092,0.09717 1.84637,0.0243l0,4.54306c0.00811,-0.52637 0.4535,-0.95557 1.00418,-0.95557c0.55067,0 0.99608,0.4292 1.00416,0.95557l0,-5.06945c0.85842,-0.36442 1.63585,-0.8827 2.29179,-1.53866l0,2.44565c0,1.06897 0.43731,2.09743 1.21473,2.85056c-0.38871,-0.38061 -0.38871,-1.00416 0,-1.38479c0.39682,-0.38061 1.02846,-0.38061 1.42528,0c-0.4049,-0.38871 -0.63166,-0.91508 -0.62356,-1.46577l0,-6.6243c0.0243,-0.23484 0.03238,-0.46969 0.03238,-0.70455c0,-0.02428 0,-0.04857 0,-0.07287c1.08516,1.03657 2.54284,1.62772 4.06529,1.64393c-0.55877,0 -1.00416,-0.44541 -1.00416,-0.98799c0.00809,-0.53447 0.46158,-0.97178 1.01227,-0.97178l0.01619,0c-1.04467,-0.00809 -2.03264,-0.4292 -2.76147,-1.15803l-3.4903,-3.46601c0,-0.00811 -0.00811,-0.00811 -0.01621,-0.01621l-1.00416,-0.97987l1.64393,-1.63585c0.4049,-0.3968 0.95557,-0.63164 1.53055,-0.63164l0.0243,0c1.19043,0 2.16221,0.93129 2.17841,2.08932c0,0 0,-0.00811 0,-0.01619c0,-0.53449 0.4535,-0.97989 1.00416,-0.97989zm-10.38185,0.05668l1.14184,1.10135l-1.14184,1.10946l-1.13373,-1.10946l1.13373,-1.10135zm5.17472,7.12639c0,0.07289 -0.00809,0.14578 -0.00809,0.21057c-0.00811,0.12146 -0.01619,0.24293 -0.0243,0.36442c-0.30774,2.54282 -2.51044,4.46209 -5.14234,4.46209c-2.64809,0 -4.84271,-1.95165 -5.13424,-4.46209c-0.0243,-0.19436 -0.0324,-0.38871 -0.0324,-0.57498c0,-0.08098 0.00811,-0.14576 0.00811,-0.22674c0.04859,-1.25522 0.59117,-2.45374 1.50625,-3.34454l1.09327,-1.06897l1.14184,1.10946l-1.10135,1.07705c-0.67215,0.64785 -1.04467,1.53055 -1.04467,2.45374c0.00811,-0.53447 0.4616,-0.96367 1.00418,-0.96367c0.55067,0 0.99606,0.4292 1.00416,0.96367c0,-0.4049 0.17006,-0.78551 0.4616,-1.06895l1.09325,-1.07705l1.10135,1.06895c0.29154,0.28344 0.4535,0.67215 0.4535,1.07705c0.00811,-0.53447 0.4616,-0.96367 1.00418,-0.96367c0.55067,0 0.99606,0.4292 1.00416,0.96367c0,-0.92319 -0.37252,-1.80588 -1.04467,-2.46184l-1.10135,-1.06895l1.14186,-1.10946l1.10135,1.07705c0.97178,0.9394 1.51434,2.227 1.51434,3.5632zm0,0" id="path46"/>
   <path stroke="null" fill="rgb(96.862745%,58.039216%,11.372549%)" fill-rule="nonzero" d="m21.73623,11.59876c0.55877,0 1.00416,0.43731 1.00416,0.97989c0,-0.84221 0.69645,-1.51436 1.55485,-1.51436c0.8584,0 1.55485,0.67215 1.55485,1.51436c0.01619,-0.53447 0.4616,-0.96367 1.00418,-0.96367c0.55067,0 0.99606,0.4292 1.00416,0.96367c0,-1.91926 -1.59534,-3.47411 -3.5632,-3.47411c-1.96786,0 -3.5632,1.55485 -3.5632,3.47411c0,-0.54258 0.4535,-0.97989 1.00418,-0.97989zm0,0" id="path48"/>
   <path stroke="null" fill="rgb(96.862745%,58.039216%,11.372549%)" fill-rule="nonzero" d="m27.85843,12.57865c0,0.54258 -0.44539,0.97989 -1.00416,0.97989c-0.55069,0 -1.00418,-0.43731 -1.00418,-0.97989c0,-0.54258 0.4535,-0.97989 1.00418,-0.97989c0.55877,0 1.00416,0.43731 1.00416,0.97989zm0,0" id="path50"/>
   <path stroke="null" fill="rgb(96.862745%,58.039216%,11.372549%)" fill-rule="nonzero" d="m22.74039,12.57865c0,0.54258 -0.44539,0.97989 -1.00416,0.97989c-0.55069,0 -1.00418,-0.43731 -1.00418,-0.97989c0,-0.54258 0.4535,-0.97989 1.00418,-0.97989c0.55877,0 1.00416,0.43731 1.00416,0.97989zm0,0" id="path52"/>
   <path stroke="null" fill="rgb(96.862745%,58.039216%,11.372549%)" fill-rule="nonzero" d="m26.85427,25.60051c-0.55069,0 -1.00418,-0.43731 -1.00418,-0.97989c0,0.83412 -0.69645,1.51436 -1.55485,1.51436c-0.8584,0 -1.55485,-0.68024 -1.55485,-1.51436c0.00811,0.35633 -0.17816,0.68836 -0.49399,0.86651c-0.31582,0.17816 -0.70453,0.17816 -1.02037,0c-0.30774,-0.17814 -0.50209,-0.51018 -0.49399,-0.86651c0,1.91928 1.59534,3.47413 3.5632,3.47413c1.96786,0 3.5632,-1.55485 3.5632,-3.47413c0,0.54258 -0.44539,0.97989 -1.00416,0.97989zm0,0" id="path54"/>
   <path stroke="null" fill="rgb(96.862745%,58.039216%,11.372549%)" fill-rule="nonzero" d="m22.74039,24.62062c0,0.54258 -0.44539,0.97989 -1.00416,0.97989c-0.55069,0 -1.00418,-0.43731 -1.00418,-0.97989c0,-0.54256 0.4535,-0.97987 1.00418,-0.97987c0.55877,0 1.00416,0.43731 1.00416,0.97987zm0,0" id="path56"/>
   <path stroke="null" fill="rgb(96.862745%,58.039216%,11.372549%)" fill-rule="nonzero" d="m27.85843,24.62062c0,0.54258 -0.44539,0.97989 -1.00416,0.97989c-0.55069,0 -1.00418,-0.43731 -1.00418,-0.97989c0,-0.54256 0.4535,-0.97987 1.00418,-0.97987c0.55877,0 1.00416,0.43731 1.00416,0.97987zm0,0" id="path58"/>
   <path stroke="null" fill="rgb(96.470588%,73.72549%,45.490196%)" fill-rule="nonzero" d="m7.45915,20.06137c0.55067,-0.00811 1.01227,0.42109 1.02035,0.95557c-0.00809,-1.82208 -1.2795,-3.40933 -3.0854,-3.87902c-1.81399,-0.4616 -3.71706,0.31582 -4.64834,1.89497c-0.93129,1.57915 -0.65596,3.5713 0.66404,4.8589c0.38871,0.38871 1.02846,0.38871 1.42528,0c0.38871,-0.38061 0.38871,-0.99608 0,-1.38479c-0.68834,-0.66404 -0.82602,-1.6925 -0.34012,-2.50233c0.48588,-0.81791 1.46577,-1.21473 2.39706,-0.97178c0.93127,0.24295 1.57913,1.06897 1.57913,2.00835c0,0 0,0.00811 0,0.00811c0,-0.54258 0.43731,-0.97989 0.98799,-0.98797zm0,0" id="path60"/>
   <path stroke="null" fill="rgb(96.862745%,58.039216%,11.372549%)" fill-rule="nonzero" d="m7.47534,22.02112c0.55877,0 1.00416,-0.43731 1.00416,-0.97989c0,-0.00809 0,-0.01619 0,-0.0243c-0.00809,-0.53447 -0.46969,-0.96367 -1.02035,-0.95557c-0.55069,0.00809 -0.98799,0.4535 -0.98799,0.98797c0.00811,0.54258 0.4535,0.97178 1.00418,0.97178zm0,0" id="path62"/>
   <path stroke="null" fill="rgb(96.862745%,58.039216%,11.372549%)" fill-rule="nonzero" d="m40.54018,21.45425c-0.55069,0 -1.00418,-0.43731 -1.00418,-0.97178c0,-0.00811 0,-0.01619 0,-0.0243c0,0 0,0.00811 0,0.00811c-0.0243,2.08932 -1.7735,3.76564 -3.9195,3.76564l-0.04859,0c0.55877,0.00811 1.00418,0.44541 0.99608,0.98799c0,0.54258 -0.4535,0.97987 -1.00418,0.97178l0.0567,0c3.24735,0 5.88736,-2.54284 5.92785,-5.70111c0,0.53447 -0.4535,0.96367 -1.00416,0.96367zm0,0" id="path64"/>
   <path stroke="null" fill="rgb(96.862745%,58.039216%,11.372549%)" fill-rule="nonzero" d="m36.55587,25.22799c0.00811,-0.25914 -0.09717,-0.51018 -0.28344,-0.69643c-0.18625,-0.18627 -0.43729,-0.29154 -0.70453,-0.29965l-0.01619,0c-0.55069,0 -1.00418,0.43731 -1.01227,0.97178c0,0.54258 0.44539,0.98799 1.00416,0.98799l0.01619,0c0.54258,0 0.98799,-0.4292 0.99608,-0.9637zm0,0" id="path66"/>
   <path stroke="null" fill="rgb(96.862745%,58.039216%,11.372549%)" fill-rule="nonzero" d="m40.55637,19.50258c-0.55067,-0.00809 -1.00416,0.42112 -1.02037,0.95559c0,0.00811 0,0.01619 0,0.0243c0,0.53447 0.4535,0.97178 1.00418,0.97178c0.55877,0.00811 1.01227,-0.4292 1.01227,-0.97178c0.00811,-0.54258 -0.44539,-0.97989 -0.99608,-0.97989zm0,0" id="path68"/>
  </g>
 </g>
</svg>