<svg id="Layer_1" data-name="Layer 1" xmlns="http://www.w3.org/2000/svg" viewBox="0 0 1093.29 887.97"><defs><style>.cls-1{fill:none;}.cls-2{fill:#f7941d;}.cls-3{fill:#f6bc74;}</style></defs><path class="cls-1" d="M559.51,160a34.13,34.13,0,0,0-24.1,58.29l24.1,24.1,24.15-24.14A34.13,34.13,0,0,0,559.51,160Z"/><path class="cls-1" d="M504.16,249.52a78.32,78.32,0,1,1,110.75-.05l-24.18,24.18,25,25,24.57-24.57a112.65,112.65,0,0,0,32.86-80,113.67,113.67,0,1,0-201.81,71.76l18.74,19.58,13.17,13.18,25-25Z"/><path class="cls-1" d="M559.51,499.83a34.13,34.13,0,0,0,24.1-58.29l-24.1-24.1-24.15,24.15a34.12,34.12,0,0,0,24.15,58.24Z"/><rect class="cls-1" x="541.85" y="312.24" width="35.33" height="35.34" transform="translate(-69.4 492.27) rotate(-45)"/><path class="cls-1" d="M614.86,410.3a78.32,78.32,0,1,1-110.75.05l24.19-24.18-25-25-24.11,24.12a112.86,112.86,0,0,0-33.08,75.42,21.76,21.76,0,0,1,.56,4.81v13.16c6.48,56.57,54.59,100.67,112.86,100.67A113.78,113.78,0,0,0,672.37,478.7v-3.35a21.74,21.74,0,0,1,.56-4.8c.07-1.63.25-3.24.25-4.88a112.94,112.94,0,0,0-33.27-80.35l-24.17-24.17-25,25Z"/><line class="cls-2" x1="559.51" y1="417.39" x2="559.51" y2="417.44"/><path class="cls-2" d="M806.85,501.2h0Z"/><path class="cls-2" d="M672.37,478.7c.31-2.69.44-5.42.56-8.15a21.74,21.74,0,0,0-.56,4.8Z"/><path class="cls-3" d="M730.28,695.3a22.07,22.07,0,0,1-31.24,0A91,91,0,0,0,827.76,566.57a22.09,22.09,0,0,0-31.24,31.25,46.84,46.84,0,1,1-66.24,66.24A22.08,22.08,0,0,1,730.28,695.3Z"/><path class="cls-2" d="M699,664.06a22.09,22.09,0,1,0,31.24,0A22.07,22.07,0,0,0,699,664.06Z"/><path class="cls-3" d="M1049.74,307.94a91,91,0,0,0-155.36,63.87,22.32,22.32,0,0,1,22.35-21.59,22.08,22.08,0,0,1,21.79,22.28c0-.07,0-.14,0-.21a46.84,46.84,0,1,1,80,33.13,22.09,22.09,0,1,0,31.24,31.24,91,91,0,0,0,0-128.72Z"/><path class="cls-3" d="M599.93,747a22.09,22.09,0,0,1-22.1-22.09v43.4a91,91,0,0,0,155.39,64.34A22.09,22.09,0,0,0,702,801.41a46.84,46.84,0,0,1-80-33.14V724.92A22.09,22.09,0,0,1,599.93,747Z"/><circle class="cls-2" cx="599.93" cy="724.92" r="22.09"/><path class="cls-3" d="M787.93,348a22.14,22.14,0,0,1-22.37-21.76,77,77,0,0,0,76.88,76.59,22.1,22.1,0,0,0,0-44.19,32.74,32.74,0,0,1-32.71-32.71c0-.05,0-.09,0-.14A22.06,22.06,0,0,1,787.93,348Z"/><path class="cls-2" d="M787.63,303.81a22.1,22.1,0,0,0-22.09,22.1c0,.1,0,.2,0,.31a22.08,22.08,0,1,0,22.07-22.41Z"/><path class="cls-3" d="M515.19,747a22.08,22.08,0,0,1-22.06-21.68c0,.15,0,.28,0,.42v42.56a46.83,46.83,0,0,1-79.95,33.1,22.09,22.09,0,0,0-31.24,31.25,91,91,0,0,0,155.38-64.39V725.75c0-.14,0-.27,0-.42A22.07,22.07,0,0,1,515.19,747Z"/><ellipse class="cls-2" cx="515.19" cy="725.33" rx="22.05" ry="21.68"/><path class="cls-3" d="M388.75,710.37a22.08,22.08,0,0,1,0-31.24,46.84,46.84,0,1,1-66.24-66.24,22.09,22.09,0,0,0-31.24-31.24A91,91,0,1,0,420,710.37a22.07,22.07,0,0,1-31.24,0Z"/><path class="cls-2" d="M420,679.13a22.1,22.1,0,1,0,0,31.24A22.07,22.07,0,0,0,420,679.13Z"/><path class="cls-2" d="M299.47,513.85h0Z"/><path class="cls-2" d="M277.39,492.05a22.09,22.09,0,0,1,21.8-22.38A86.73,86.73,0,0,1,238,445.24a85.53,85.53,0,0,1-26-60.56c0-.08,0-.17,0-.26,0,.19,0,.37,0,.55a22.09,22.09,0,0,1-22.1,22.1h0a22.09,22.09,0,0,1-22.08-21.91.33.33,0,0,0,0,.1A130.28,130.28,0,0,0,298,513.86h1.41A22.08,22.08,0,0,1,277.39,492.05Z"/><path class="cls-2" d="M321.57,491.47a22.1,22.1,0,0,0-22.09-21.81h-.29a22.09,22.09,0,0,0,.24,44.18h.33A22.09,22.09,0,0,0,321.57,491.47Z"/><path class="cls-2" d="M458.9,316.79s.1.08.15.13l-.66-.66Z"/><path class="cls-3" d="M332.34,348h-.29a22.07,22.07,0,0,1-21.79-22.23c0,.06,0,.11,0,.16a32.74,32.74,0,0,1-32.71,32.71,22.1,22.1,0,0,0,0,44.19,77,77,0,0,0,76.88-76.46A22.09,22.09,0,0,1,332.34,348Z"/><path class="cls-2" d="M332.34,303.81a22.09,22.09,0,0,0-.29,44.17h.29a22.09,22.09,0,0,0,22.07-21.64c0-.15,0-.29,0-.44A22.1,22.1,0,0,0,332.34,303.81Z"/><path class="cls-2" d="M423.76,172.06a22.09,22.09,0,0,1,22.09,22.09A113.79,113.79,0,0,1,559.51,80.49a22.1,22.1,0,0,1,0-44.19c-87,0-157.85,70.82-157.85,157.85A22.09,22.09,0,0,1,423.76,172.06Z"/><circle class="cls-2" cx="423.76" cy="194.15" r="22.09"/><path class="cls-2" d="M581.61,58.4a22.09,22.09,0,0,1-22.1,22.09A113.79,113.79,0,0,1,673.18,194.15a22.1,22.1,0,0,1,44.19,0c0-87-70.82-157.85-157.86-157.85A22.09,22.09,0,0,1,581.61,58.4Z"/><circle class="cls-2" cx="695.27" cy="194.15" r="22.09"/><circle class="cls-2" cx="559.51" cy="58.4" r="22.09"/><line class="cls-2" x1="559.51" y1="242.44" x2="559.51" y2="242.38"/><path class="cls-2" d="M787.63,303.81a22.08,22.08,0,0,1,22.08,22c0-.06,0-.11,0-.17a92.18,92.18,0,0,0-93.22-90.82c-1.52,0-3,.19-4.51.28a158.88,158.88,0,0,0,5.37-40.91,22.1,22.1,0,1,1-44.19,0,112.65,112.65,0,0,1-32.86,80l-24.57,24.57-25-25,24.18-24.18a77.78,77.78,0,0,0,22.92-55.35,22.1,22.1,0,1,1-44.19,0,33.9,33.9,0,0,1-10,24.12l-24.15,24.14h0l-24.1-24.1a34,34,0,0,1-10-24.16,22.1,22.1,0,1,1-44.19,0,77.87,77.87,0,0,0,23,55.4l24.14,24.13-25,25-13.17-13.18-11-11a113.72,113.72,0,0,1-33.27-80.35,22.1,22.1,0,1,1-44.19,0A158.84,158.84,0,0,0,407,235c-1.18-.06-2.35-.21-3.55-.22a92,92,0,0,0-93.21,90.83c0,.05,0,.09,0,.14a22.09,22.09,0,0,1,44.17.16c0,.15,0,.29,0,.44,0-.06,0-.11,0-.17a47.53,47.53,0,0,1,14.45-33.65,48.12,48.12,0,0,1,34-13.57,47.47,47.47,0,0,1,33.52,14.33l22.64,23.63,13,13-24.17,24.18c-1.2,1.19-2.34,2.43-3.5,3.66-.59.5-1.22.92-1.77,1.48l-82.87,84.44a85.58,85.58,0,0,1-60.54,26h.29a22.1,22.1,0,0,1,.28,44.19,129.46,129.46,0,0,0,91.6-39.33L401.7,464l1-1c-.1.85-.26,183.08-.26,183.08a46.51,46.51,0,0,1-13.71,33.1A22.09,22.09,0,0,1,420,710.37,90.43,90.43,0,0,0,446.65,646V575.87a158.37,158.37,0,0,0,46.44,32.94V724.92c0,.14,0,.27,0,.41a22.06,22.06,0,0,1,44.11,0c0-.14,0-.27,0-.41v-103a154.26,154.26,0,0,0,40.55.5v102.5a22.1,22.1,0,0,1,44.19,0V610.59a158.43,158.43,0,0,0,50.35-34.71V631A90.43,90.43,0,0,0,699,695.3a22.09,22.09,0,0,1,31.24-31.24,46.56,46.56,0,0,1-13.72-33.14V481.65a159.34,159.34,0,0,0,.81-16c0-.54,0-1.07,0-1.6a129.31,129.31,0,0,0,89.23,37.12,22.09,22.09,0,0,1,.28-44.18h.23a85.63,85.63,0,0,1-60.56-26.08l-76.64-78.2c-.12-.13-.27-.21-.4-.34l-22.14-22.13,36.12-36.86A47.57,47.57,0,0,1,717.08,279h.63a47.9,47.9,0,0,1,47.84,47.22s0,0,0,0,0-.21,0-.31A22.1,22.1,0,0,1,787.63,303.81Zm-228.12,1.12,25,25-25,25-25-25ZM673.18,465.67c0,1.64-.18,3.25-.25,4.88-.12,2.73-.25,5.46-.56,8.15A113.78,113.78,0,0,1,559.51,579.33c-58.27,0-106.38-44.1-112.86-100.67a113.68,113.68,0,0,1-.8-13c0-1.68.17-3.32.24-5a112.86,112.86,0,0,1,33.08-75.42l24.11-24.12,25,25-24.19,24.18a77.8,77.8,0,0,0-22.92,55.35,22.1,22.1,0,0,1,44.19,0,33.9,33.9,0,0,1,10-24.11l24.15-24.2,24.1,24.15a34,34,0,0,1,10,24.16,22.1,22.1,0,0,1,44.19,0,77.87,77.87,0,0,0-23-55.4l-24.13-24.13,25-25,24.17,24.17A112.94,112.94,0,0,1,673.18,465.67Z"/><path class="cls-2" d="M503.29,172a22.09,22.09,0,0,1,22.09,22.09,34.13,34.13,0,0,1,68.26,0,22.1,22.1,0,0,1,44.19,0,78.32,78.32,0,0,0-156.64,0A22.1,22.1,0,0,1,503.29,172Z"/><circle class="cls-2" cx="615.74" cy="194.12" r="22.09"/><circle class="cls-2" cx="503.29" cy="194.12" r="22.09"/><path class="cls-2" d="M615.74,487.8a22.09,22.09,0,0,1-22.1-22.1,34.13,34.13,0,0,1-68.26,0,22.1,22.1,0,1,1-44.19,0,78.32,78.32,0,0,0,156.64,0A22.09,22.09,0,0,1,615.74,487.8Z"/><circle class="cls-2" cx="503.29" cy="465.7" r="22.09"/><circle class="cls-2" cx="615.74" cy="465.7" r="22.09"/><path class="cls-3" d="M189.59,362.88a22,22,0,0,1,22.35,21.54A91,91,0,1,0,56.58,449.36a22.09,22.09,0,1,0,31.24-31.24,46.84,46.84,0,1,1,80-33.14c0,.06,0,.12,0,.18A22.09,22.09,0,0,1,189.59,362.88Z"/><path class="cls-2" d="M189.87,407.07h0A22.09,22.09,0,0,0,212,385c0-.18,0-.36,0-.55a22.08,22.08,0,1,0-22.07,22.65Z"/><path class="cls-2" d="M916.45,394.4h0a22.09,22.09,0,0,1-22.09-22.08c0-.17,0-.34,0-.51a1.66,1.66,0,0,1,0,.22,86.1,86.1,0,0,1-86.07,85h-1.14a22.09,22.09,0,0,1-.25,44.18h1.41A130.28,130.28,0,0,0,938.53,372.6s0-.07,0-.1A22.1,22.1,0,0,1,916.45,394.4Z"/><path class="cls-2" d="M828.93,479.39A22.08,22.08,0,0,0,807.14,457h-.3a22.09,22.09,0,0,0-.28,44.18h.33A22.08,22.08,0,0,0,828.93,479.39Z"/><path class="cls-2" d="M916.73,350.22a22.32,22.32,0,0,0-22.35,21.59c0,.17,0,.34,0,.51a22.09,22.09,0,0,0,22.09,22.08h0a22.09,22.09,0,0,0,.28-44.18Z"/></svg>