<svg id="svg" xmlns="http://www.w3.org/2000/svg" xmlns:xlink="http://www.w3.org/1999/xlink" width="400" height="400" viewBox="0, 0, 400,400" version="1.1"><g id="svgg"><path id="path0" d="M189.200 12.800 C 189.200 13.045,187.329 13.200,184.387 13.200 C 180.479 13.200,179.532 13.313,179.345 13.800 C 179.169 14.258,178.417 14.400,176.157 14.400 C 174.058 14.400,173.200 14.545,173.200 14.900 C 173.201 15.259,172.410 15.381,170.400 15.333 C 168.219 15.281,167.600 15.392,167.600 15.833 C 167.600 16.247,167.059 16.400,165.600 16.400 C 164.500 16.400,163.600 16.580,163.600 16.800 C 163.600 17.020,162.784 17.200,161.787 17.200 C 160.545 17.200,159.902 17.389,159.745 17.800 C 159.594 18.193,158.970 18.400,157.934 18.400 C 156.982 18.400,156.451 18.559,156.600 18.800 C 156.752 19.047,156.071 19.200,154.824 19.200 C 153.292 19.200,152.800 19.346,152.800 19.800 C 152.800 20.233,152.356 20.400,151.200 20.400 C 150.320 20.400,149.600 20.580,149.600 20.800 C 149.600 21.020,149.054 21.200,148.387 21.200 C 147.679 21.200,147.079 21.449,146.945 21.800 C 146.818 22.130,146.284 22.400,145.757 22.400 C 145.231 22.400,144.800 22.580,144.800 22.800 C 144.800 23.020,144.192 23.200,143.449 23.200 C 142.706 23.200,141.874 23.470,141.600 23.800 C 141.326 24.130,140.764 24.400,140.351 24.400 C 139.938 24.400,139.600 24.580,139.600 24.800 C 139.600 25.020,139.047 25.200,138.371 25.200 C 137.696 25.200,136.871 25.472,136.539 25.804 C 136.207 26.136,135.779 26.311,135.588 26.192 C 135.397 26.074,135.053 26.326,134.825 26.753 C 134.550 27.268,134.140 27.457,133.605 27.317 C 133.053 27.173,132.800 27.302,132.800 27.730 C 132.800 28.144,132.524 28.301,131.980 28.196 C 131.514 28.106,131.064 28.289,130.937 28.619 C 130.815 28.939,130.264 29.200,129.714 29.200 C 129.038 29.200,128.782 29.375,128.922 29.741 C 129.066 30.116,128.841 30.251,128.193 30.179 C 127.678 30.123,127.159 30.329,127.041 30.638 C 126.922 30.947,126.539 31.200,126.189 31.200 C 125.786 31.200,125.663 31.384,125.853 31.700 C 126.080 32.078,125.998 32.074,125.516 31.683 C 125.150 31.387,124.819 31.331,124.739 31.553 C 124.663 31.766,124.340 31.998,124.021 32.070 C 123.703 32.141,123.053 32.605,122.576 33.100 C 122.099 33.595,121.324 34.000,120.854 34.000 C 120.362 34.000,120.000 34.254,120.000 34.600 C 120.000 34.940,119.641 35.200,119.171 35.200 C 118.286 35.200,117.200 36.066,117.200 36.771 C 117.200 37.007,116.750 37.200,116.200 37.200 C 115.650 37.200,115.200 37.380,115.200 37.600 C 115.200 37.820,114.750 38.000,114.200 38.000 C 113.578 38.000,113.200 38.227,113.200 38.600 C 113.200 38.930,112.996 39.200,112.747 39.200 C 112.498 39.200,111.951 39.595,111.532 40.079 C 111.112 40.562,110.531 40.993,110.240 41.035 C 109.421 41.155,108.014 42.498,108.271 42.914 C 108.403 43.128,108.138 43.171,107.648 43.015 C 107.061 42.829,106.721 42.940,106.555 43.372 C 106.423 43.718,106.141 44.000,105.929 44.000 C 105.410 44.000,104.400 45.038,104.400 45.571 C 104.400 45.807,103.950 46.000,103.400 46.000 C 102.850 46.000,102.400 46.180,102.400 46.400 C 102.400 46.620,102.130 46.800,101.800 46.800 C 101.470 46.800,101.200 46.993,101.200 47.229 C 101.200 47.782,100.182 48.800,99.629 48.800 C 99.393 48.800,99.200 48.993,99.200 49.229 C 99.200 49.934,98.114 50.800,97.229 50.800 C 96.759 50.800,96.400 51.060,96.400 51.400 C 96.400 51.730,96.119 52.000,95.776 52.000 C 95.433 52.000,95.264 52.180,95.400 52.400 C 95.536 52.620,95.367 52.800,95.024 52.800 C 94.681 52.800,94.400 53.070,94.400 53.400 C 94.400 53.730,94.207 54.000,93.971 54.000 C 93.418 54.000,92.400 55.018,92.400 55.571 C 92.400 55.807,92.119 56.000,91.776 56.000 C 91.433 56.000,91.264 56.180,91.400 56.400 C 91.536 56.620,91.457 56.800,91.224 56.800 C 90.648 56.800,89.209 58.275,89.500 58.567 C 89.628 58.695,89.510 58.800,89.238 58.800 C 88.630 58.800,87.600 59.788,87.600 60.371 C 87.600 60.607,87.407 60.800,87.171 60.800 C 86.618 60.800,85.600 61.818,85.600 62.371 C 85.600 62.607,85.407 62.800,85.171 62.800 C 84.618 62.800,83.600 63.818,83.600 64.371 C 83.600 64.607,83.330 64.800,83.000 64.800 C 82.670 64.800,82.400 65.081,82.400 65.424 C 82.400 65.767,82.220 65.936,82.000 65.800 C 81.773 65.660,81.600 65.996,81.600 66.576 C 81.600 67.220,81.377 67.600,81.000 67.600 C 80.670 67.600,80.400 67.787,80.400 68.015 C 80.400 68.243,79.548 69.258,78.506 70.271 C 77.464 71.283,76.609 72.339,76.606 72.616 C 76.603 72.894,75.925 73.778,75.100 74.580 C 74.275 75.382,73.600 76.319,73.600 76.662 C 73.600 77.004,73.148 77.640,72.596 78.074 C 72.044 78.509,71.695 79.030,71.820 79.232 C 71.945 79.434,71.767 79.600,71.424 79.600 C 71.025 79.600,70.800 79.961,70.800 80.600 C 70.800 81.150,70.607 81.600,70.371 81.600 C 69.666 81.600,68.800 82.686,68.800 83.571 C 68.800 84.041,68.540 84.400,68.200 84.400 C 67.870 84.400,67.600 84.670,67.600 85.000 C 67.600 85.330,67.420 85.600,67.200 85.600 C 66.980 85.600,66.800 86.050,66.800 86.600 C 66.800 87.222,66.573 87.600,66.200 87.600 C 65.823 87.600,65.600 87.980,65.600 88.624 C 65.600 89.204,65.427 89.540,65.200 89.400 C 64.980 89.264,64.800 89.433,64.800 89.776 C 64.800 90.119,64.623 90.400,64.408 90.400 C 64.192 90.400,63.902 90.850,63.764 91.400 C 63.626 91.950,63.353 92.400,63.157 92.400 C 62.960 92.400,62.800 92.850,62.800 93.400 C 62.800 94.054,62.576 94.400,62.153 94.400 C 61.703 94.400,61.570 94.644,61.716 95.201 C 61.846 95.698,61.674 96.144,61.263 96.376 C 60.732 96.676,60.700 96.851,61.100 97.255 C 61.969 98.132,60.858 101.965,59.728 101.990 C 59.468 101.995,59.198 102.405,59.128 102.900 C 59.042 103.501,58.767 103.761,58.300 103.682 C 57.552 103.557,57.314 104.238,58.023 104.474 C 58.255 104.552,58.331 104.915,58.190 105.282 C 58.049 105.649,57.697 105.859,57.407 105.747 C 57.118 105.636,56.762 105.738,56.617 105.973 C 56.472 106.208,56.543 106.400,56.776 106.400 C 57.009 106.400,57.200 106.670,57.200 107.000 C 57.200 107.330,56.943 107.600,56.628 107.600 C 56.313 107.600,55.994 108.005,55.918 108.500 C 55.843 108.995,55.560 109.355,55.291 109.300 C 55.007 109.242,54.800 109.623,54.800 110.200 C 54.800 110.750,54.620 111.200,54.400 111.200 C 54.180 111.200,54.000 111.909,54.000 112.776 C 54.000 114.351,53.449 115.252,53.066 114.302 C 52.954 114.026,52.849 114.284,52.832 114.876 C 52.814 115.468,52.620 116.064,52.400 116.200 C 52.180 116.336,52.000 117.067,52.000 117.824 C 52.000 118.780,51.817 119.200,51.400 119.200 C 50.965 119.200,50.800 119.647,50.800 120.824 C 50.800 121.804,50.642 122.349,50.400 122.200 C 50.163 122.053,50.000 122.515,50.000 123.334 C 50.000 124.192,49.773 124.802,49.400 124.945 C 49.002 125.097,48.800 125.726,48.800 126.811 C 48.800 128.014,48.667 128.368,48.300 128.147 C 48.009 127.972,48.050 128.161,48.400 128.600 C 48.750 129.039,48.791 129.228,48.500 129.053 C 48.134 128.833,48.000 129.175,48.000 130.334 C 48.000 131.370,47.793 131.994,47.400 132.145 C 46.989 132.302,46.800 132.945,46.800 134.187 C 46.800 135.184,46.620 136.000,46.400 136.000 C 46.180 136.000,46.021 136.135,46.047 136.300 C 46.333 138.106,45.921 140.800,45.360 140.800 C 44.809 140.800,44.738 141.340,44.847 144.700 C 44.941 147.610,44.849 148.575,44.485 148.500 C 44.119 148.424,44.030 149.491,44.127 152.784 C 44.230 156.289,44.144 157.192,43.698 157.285 C 43.244 157.378,43.139 158.856,43.131 165.200 C 43.114 178.963,43.142 179.600,43.761 179.600 C 44.368 179.600,44.862 183.515,44.300 183.862 C 44.135 183.964,44.000 185.297,44.000 186.824 C 44.000 188.351,44.135 189.579,44.300 189.553 C 45.252 189.402,45.600 189.727,45.600 190.767 C 45.600 192.128,45.228 193.265,44.858 193.035 C 44.716 192.947,44.661 193.737,44.735 194.791 C 44.855 196.476,44.967 196.682,45.665 196.499 C 46.421 196.301,46.446 196.429,46.177 199.153 C 45.929 201.674,45.971 201.986,46.531 201.771 C 47.358 201.454,47.838 203.207,47.234 204.336 C 46.563 205.589,46.693 206.720,47.500 206.656 C 48.098 206.608,48.184 206.907,48.088 208.700 C 48.000 210.356,48.104 210.800,48.580 210.800 C 49.434 210.800,49.806 212.668,49.184 213.830 C 48.899 214.363,48.786 214.919,48.933 215.066 C 49.080 215.213,49.200 215.129,49.200 214.879 C 49.200 214.629,49.451 214.522,49.759 214.639 C 50.425 214.895,50.807 216.541,50.366 217.255 C 50.173 217.568,50.349 217.969,50.826 218.304 C 51.648 218.879,51.900 220.967,51.200 221.400 C 50.557 221.797,50.739 222.316,51.500 222.256 C 52.057 222.211,52.191 222.501,52.157 223.668 C 52.125 224.784,52.293 225.183,52.857 225.331 C 53.682 225.547,53.869 226.986,53.132 227.442 C 52.824 227.632,52.977 227.848,53.576 228.070 C 54.314 228.342,54.456 228.638,54.314 229.604 C 54.201 230.374,54.312 230.800,54.626 230.800 C 55.167 230.800,55.600 231.682,55.600 232.784 C 55.600 233.179,55.878 233.732,56.217 234.014 C 56.645 234.369,56.706 234.654,56.417 234.943 C 55.800 235.560,55.905 235.882,56.800 236.116 C 57.270 236.239,57.600 236.662,57.600 237.141 C 57.600 237.590,58.050 238.804,58.600 239.838 C 59.305 241.165,59.480 241.863,59.191 242.210 C 58.894 242.568,59.013 242.762,59.627 242.923 C 60.268 243.091,60.408 243.343,60.209 243.972 C 60.021 244.565,60.121 244.800,60.563 244.800 C 60.913 244.800,61.550 245.623,62.033 246.700 C 62.503 247.745,63.254 249.000,63.702 249.488 C 64.355 250.199,64.421 250.493,64.035 250.957 C 63.641 251.433,63.716 251.562,64.450 251.669 C 65.045 251.756,65.448 252.185,65.651 252.947 C 65.819 253.578,66.329 254.355,66.785 254.674 C 67.240 254.994,67.526 255.396,67.419 255.569 C 67.312 255.742,67.849 256.584,68.612 257.441 C 70.127 259.144,70.369 260.000,69.333 260.000 C 68.435 260.000,68.835 260.349,69.924 260.515 C 70.945 260.671,73.200 262.709,73.200 263.477 C 73.200 263.767,74.212 265.075,75.449 266.383 C 78.428 269.534,78.900 270.256,78.599 271.204 C 78.420 271.768,78.529 272.000,78.973 272.000 C 79.318 272.000,79.600 272.193,79.600 272.429 C 79.600 272.989,80.407 273.772,81.357 274.132 C 81.774 274.290,82.007 274.526,81.876 274.657 C 81.577 274.957,82.370 275.758,83.325 276.120 C 83.724 276.271,83.937 276.578,83.799 276.802 C 83.658 277.030,84.086 277.317,84.773 277.455 C 85.448 277.590,86.000 277.843,86.000 278.018 C 86.000 278.192,86.674 278.935,87.499 279.668 C 89.287 281.257,134.662 326.436,173.303 365.100 C 188.529 380.335,201.227 392.800,201.522 392.800 C 201.817 392.800,208.903 385.960,217.268 377.600 C 225.633 369.240,232.730 362.400,233.039 362.400 C 233.348 362.400,233.600 362.209,233.600 361.976 C 233.600 361.743,233.780 361.664,234.000 361.800 C 234.220 361.936,234.400 361.767,234.400 361.424 C 234.400 361.081,234.596 360.800,234.836 360.800 C 235.075 360.800,236.059 359.990,237.021 359.000 C 237.983 358.010,238.976 357.200,239.228 357.200 C 239.480 357.200,239.582 356.930,239.455 356.600 C 239.315 356.235,239.455 356.000,239.813 356.000 C 240.136 356.000,240.400 355.820,240.400 355.600 C 240.400 355.380,240.670 355.200,241.000 355.200 C 241.330 355.200,241.600 355.007,241.600 354.771 C 241.600 354.218,242.618 353.200,243.171 353.200 C 243.407 353.200,243.600 352.930,243.600 352.600 C 243.600 352.270,243.780 352.000,244.000 352.000 C 244.220 352.000,244.400 351.711,244.400 351.357 C 244.400 350.950,244.620 350.799,245.000 350.945 C 245.330 351.071,245.600 350.994,245.600 350.773 C 245.600 350.551,246.410 349.583,247.400 348.621 C 248.390 347.659,249.200 346.675,249.200 346.436 C 249.200 346.196,249.470 346.000,249.800 346.000 C 250.130 346.000,250.355 345.775,250.300 345.500 C 250.245 345.225,250.425 345.045,250.700 345.100 C 250.975 345.155,251.200 344.930,251.200 344.600 C 251.200 344.270,251.430 344.000,251.712 344.000 C 251.993 344.000,252.483 343.640,252.800 343.200 C 253.117 342.760,253.601 342.400,253.876 342.400 C 254.155 342.400,254.274 342.136,254.145 341.800 C 253.999 341.420,254.150 341.200,254.557 341.200 C 254.911 341.200,255.200 341.020,255.200 340.800 C 255.200 340.580,255.470 340.400,255.800 340.400 C 256.130 340.400,256.400 340.130,256.400 339.800 C 256.400 339.470,256.577 339.200,256.792 339.200 C 257.008 339.200,257.296 338.757,257.432 338.215 C 257.573 337.652,262.723 332.172,269.440 325.438 C 275.908 318.952,281.200 313.408,281.200 313.118 C 281.200 312.611,300.002 293.895,304.588 289.837 C 307.474 287.283,307.776 287.598,304.978 290.244 C 303.790 291.367,302.755 292.221,302.676 292.143 C 302.598 292.064,302.533 292.253,302.533 292.562 C 302.533 292.871,302.773 293.032,303.067 292.919 C 303.360 292.807,303.600 292.554,303.600 292.357 C 303.600 292.161,303.849 292.000,304.153 292.000 C 304.458 292.000,304.804 291.627,304.924 291.170 C 305.043 290.714,305.497 290.247,305.933 290.133 C 306.369 290.019,306.819 289.569,306.933 289.133 C 307.047 288.697,307.497 288.247,307.933 288.133 C 308.768 287.915,309.434 286.400,308.696 286.400 C 308.460 286.400,308.403 286.265,308.569 286.100 C 308.736 285.935,309.261 285.800,309.736 285.800 C 310.319 285.800,310.614 285.540,310.643 285.000 C 310.701 283.893,311.210 282.800,311.666 282.800 C 311.876 282.800,311.944 282.968,311.817 283.172 C 311.691 283.377,311.754 283.648,311.959 283.775 C 312.169 283.904,312.254 283.514,312.154 282.879 C 312.019 282.024,312.244 281.507,313.088 280.730 C 313.700 280.167,316.074 277.792,318.365 275.453 C 320.656 273.114,322.681 271.200,322.865 271.200 C 323.049 271.200,323.200 270.930,323.200 270.600 C 323.200 270.270,323.467 270.000,323.792 270.000 C 324.118 270.000,324.505 269.521,324.652 268.935 C 324.918 267.876,326.935 265.654,328.652 264.529 C 329.147 264.205,329.463 263.708,329.355 263.426 C 329.081 262.713,331.183 260.308,331.854 260.565 C 332.251 260.718,332.400 260.393,332.400 259.375 C 332.400 258.556,332.628 257.887,332.950 257.764 C 333.252 257.648,333.833 256.934,334.241 256.177 C 334.648 255.419,335.094 254.800,335.230 254.800 C 335.367 254.800,335.803 254.080,336.200 253.200 C 336.597 252.320,337.060 251.600,337.230 251.600 C 337.400 251.600,338.048 250.524,338.669 249.210 C 339.452 247.556,340.031 246.816,340.549 246.810 C 341.159 246.802,341.208 246.692,340.815 246.218 C 340.183 245.456,340.684 244.676,341.645 244.928 C 342.437 245.135,342.686 244.624,342.000 244.200 C 341.275 243.752,341.580 242.800,342.449 242.800 C 343.147 242.800,343.212 242.696,342.815 242.218 C 342.262 241.552,342.578 240.800,343.411 240.800 C 343.749 240.800,343.882 240.559,343.744 240.199 C 343.480 239.510,345.013 236.000,345.577 236.000 C 345.783 236.000,345.917 235.505,345.875 234.900 C 345.814 234.011,345.950 233.826,346.578 233.936 C 347.238 234.050,347.279 233.977,346.845 233.455 C 346.241 232.727,346.575 231.372,347.441 231.040 C 347.776 230.911,347.932 230.614,347.788 230.380 C 347.354 229.679,347.967 228.000,348.657 228.000 C 349.172 228.000,349.203 227.886,348.816 227.419 C 348.231 226.714,348.596 225.364,349.460 225.032 C 349.902 224.863,349.971 224.643,349.691 224.295 C 349.112 223.577,349.843 221.854,350.603 222.146 C 351.267 222.401,351.429 221.789,350.800 221.400 C 350.220 221.041,350.309 219.373,350.937 218.852 C 351.232 218.607,351.583 218.517,351.717 218.651 C 351.851 218.785,351.925 218.108,351.880 217.147 C 351.814 215.701,351.921 215.410,352.500 215.456 C 353.261 215.516,353.443 214.997,352.800 214.600 C 352.017 214.116,352.331 211.543,353.200 211.316 C 354.057 211.092,354.265 210.025,353.585 209.345 C 353.302 209.062,353.299 208.591,353.575 207.865 C 354.007 206.729,354.604 206.481,354.935 207.300 C 355.046 207.575,355.151 207.316,355.168 206.724 C 355.186 206.132,355.020 205.536,354.800 205.400 C 354.580 205.264,354.400 204.533,354.400 203.776 C 354.400 202.509,354.715 202.181,355.747 202.368 C 355.939 202.403,355.958 201.750,355.790 200.916 C 355.224 198.102,355.579 196.264,356.613 196.660 C 357.303 196.925,357.480 194.221,356.800 193.800 C 355.914 193.253,356.464 190.000,357.443 190.000 C 357.810 190.000,358.000 189.535,358.000 188.633 C 358.000 187.882,358.225 187.176,358.500 187.065 C 358.792 186.947,358.703 186.850,358.283 186.832 C 357.648 186.804,357.580 186.447,357.683 183.700 C 357.785 181.005,357.891 180.615,358.500 180.718 C 359.678 180.915,359.569 156.590,358.391 156.282 C 357.618 156.080,357.594 155.867,357.852 151.615 C 358.063 148.151,358.012 147.186,357.624 147.280 C 356.748 147.491,356.136 146.115,356.703 145.207 C 357.574 143.813,357.352 141.200,356.362 141.200 C 355.584 141.200,355.545 141.055,355.809 139.137 C 356.063 137.285,356.000 137.003,355.189 136.391 C 354.406 135.801,354.356 134.479,355.135 134.960 C 355.289 135.055,355.350 134.449,355.270 133.614 C 355.150 132.358,354.995 132.129,354.376 132.290 C 353.697 132.468,353.649 132.301,353.862 130.502 C 354.078 128.678,354.024 128.500,353.183 128.280 C 352.520 128.106,352.373 127.897,352.649 127.520 C 353.351 126.562,353.336 124.773,352.628 125.044 C 352.283 125.177,352.000 125.100,352.000 124.872 C 352.000 124.645,352.315 124.376,352.700 124.276 C 353.367 124.102,353.367 124.091,352.700 124.046 C 352.224 124.015,352.000 123.666,352.000 122.957 C 352.000 122.195,351.839 121.976,351.400 122.145 C 351.023 122.289,350.800 122.141,350.800 121.745 C 350.800 121.376,351.027 121.202,351.347 121.324 C 351.787 121.493,351.807 121.351,351.452 120.599 C 351.209 120.084,350.918 119.670,350.805 119.679 C 349.741 119.761,349.579 119.517,349.826 118.200 C 350.035 117.088,349.961 116.800,349.468 116.800 C 348.601 116.800,348.243 116.071,348.788 115.415 C 349.138 114.993,349.102 114.785,348.633 114.523 C 348.298 114.335,347.973 113.735,347.911 113.190 C 347.850 112.646,347.482 111.963,347.093 111.673 C 346.694 111.375,346.515 110.940,346.682 110.673 C 347.214 109.821,347.126 109.302,346.457 109.352 C 346.058 109.381,345.842 109.143,345.907 108.746 C 345.966 108.386,345.727 107.981,345.375 107.846 C 344.896 107.662,344.802 107.300,345.000 106.400 C 345.206 105.462,345.126 105.200,344.632 105.200 C 344.284 105.200,344.000 104.940,344.000 104.623 C 344.000 104.305,343.677 103.810,343.282 103.523 C 342.887 103.235,342.252 102.333,341.871 101.517 C 341.490 100.701,341.003 99.926,340.789 99.793 C 340.282 99.480,340.285 97.718,340.794 97.404 C 341.352 97.059,341.130 95.141,340.557 95.361 C 340.274 95.470,340.164 95.261,340.276 94.830 C 340.379 94.439,340.178 93.835,339.831 93.488 C 339.484 93.141,339.200 92.574,339.200 92.229 C 339.200 91.883,339.020 91.600,338.800 91.600 C 338.580 91.600,338.400 91.150,338.400 90.600 C 338.400 89.978,338.173 89.600,337.800 89.600 C 337.470 89.600,337.200 89.330,337.200 89.000 C 337.200 88.670,337.020 88.400,336.800 88.400 C 336.580 88.400,336.400 88.065,336.400 87.656 C 336.400 87.247,335.950 86.574,335.400 86.161 C 334.849 85.747,334.400 85.004,334.400 84.505 C 334.400 83.967,334.157 83.600,333.800 83.600 C 333.427 83.600,333.200 83.222,333.200 82.600 C 333.200 82.050,333.020 81.600,332.800 81.600 C 332.580 81.600,332.400 81.330,332.400 81.000 C 332.400 80.670,332.207 80.400,331.971 80.400 C 331.266 80.400,330.400 79.314,330.400 78.429 C 330.400 77.959,330.140 77.600,329.800 77.600 C 329.470 77.600,329.200 77.407,329.200 77.171 C 329.200 76.623,328.185 75.600,327.641 75.600 C 327.412 75.600,327.335 75.313,327.470 74.962 C 327.625 74.559,327.326 73.990,326.657 73.415 C 326.076 72.916,325.600 72.303,325.600 72.053 C 325.600 71.804,325.330 71.600,325.000 71.600 C 324.660 71.600,324.400 71.241,324.400 70.771 C 324.400 69.886,323.534 68.800,322.829 68.800 C 322.593 68.800,322.400 68.607,322.400 68.371 C 322.400 67.850,321.395 66.800,320.896 66.800 C 320.698 66.800,320.294 66.350,320.000 65.800 C 319.706 65.250,319.225 64.800,318.932 64.800 C 318.640 64.800,318.400 64.530,318.400 64.200 C 318.400 63.870,318.220 63.600,318.000 63.600 C 317.780 63.600,317.600 63.314,317.600 62.965 C 317.600 62.294,313.433 58.000,312.782 58.000 C 312.572 58.000,312.400 57.807,312.400 57.571 C 312.400 57.018,311.382 56.000,310.829 56.000 C 310.593 56.000,310.400 55.730,310.400 55.400 C 310.400 55.067,310.044 54.800,309.600 54.800 C 309.160 54.800,308.800 54.620,308.800 54.400 C 308.800 54.180,308.530 54.000,308.200 54.000 C 307.870 54.000,307.600 53.807,307.600 53.571 C 307.600 53.018,306.582 52.000,306.029 52.000 C 305.793 52.000,305.600 51.760,305.600 51.468 C 305.600 51.175,305.170 50.705,304.644 50.424 C 304.118 50.142,303.457 49.481,303.175 48.954 C 302.894 48.427,302.469 48.019,302.231 48.046 C 301.233 48.159,300.800 47.964,300.800 47.400 C 300.800 47.070,300.608 46.800,300.373 46.800 C 300.138 46.800,299.352 46.170,298.626 45.400 C 297.900 44.630,297.031 44.000,296.696 44.000 C 296.360 44.000,295.978 43.719,295.846 43.375 C 295.714 43.031,295.424 42.861,295.203 42.998 C 294.981 43.135,294.800 42.967,294.800 42.624 C 294.800 42.259,294.455 42.000,293.971 42.000 C 293.086 42.000,292.000 41.134,292.000 40.429 C 292.000 40.193,291.730 40.000,291.400 40.000 C 291.070 40.000,290.800 39.820,290.800 39.600 C 290.800 39.380,290.350 39.200,289.800 39.200 C 289.250 39.200,288.800 39.007,288.800 38.771 C 288.800 38.066,287.714 37.200,286.829 37.200 C 286.359 37.200,286.000 36.940,286.000 36.600 C 286.000 36.227,285.622 36.000,285.000 36.000 C 284.450 36.000,284.000 35.820,284.000 35.600 C 284.000 35.380,283.730 35.200,283.400 35.200 C 283.070 35.200,282.800 34.930,282.800 34.600 C 282.800 34.227,282.422 34.000,281.800 34.000 C 281.250 34.000,280.800 33.820,280.800 33.600 C 280.800 33.380,280.459 33.200,280.043 33.200 C 279.626 33.200,279.182 32.930,279.055 32.600 C 278.929 32.270,278.478 32.000,278.055 32.000 C 277.631 32.000,276.860 31.553,276.342 31.007 C 275.824 30.461,275.085 30.011,274.700 30.007 C 274.315 30.003,274.000 29.820,274.000 29.600 C 274.000 29.380,273.569 29.200,273.043 29.200 C 272.516 29.200,271.978 28.919,271.846 28.575 C 271.714 28.231,271.439 28.052,271.235 28.178 C 271.031 28.304,270.593 28.136,270.261 27.804 C 269.929 27.472,269.181 27.200,268.600 27.200 C 268.019 27.200,267.263 26.920,266.920 26.577 C 266.577 26.234,266.050 26.049,265.748 26.164 C 265.437 26.284,265.200 26.121,265.200 25.787 C 265.200 25.428,264.813 25.200,264.200 25.200 C 263.650 25.200,263.200 25.020,263.200 24.800 C 263.200 24.580,262.763 24.400,262.229 24.400 C 261.694 24.400,260.987 24.130,260.657 23.800 C 260.327 23.470,259.684 23.200,259.229 23.200 C 258.773 23.200,258.400 23.020,258.400 22.800 C 258.400 22.580,257.680 22.400,256.800 22.400 C 255.644 22.400,255.200 22.233,255.200 21.800 C 255.200 21.381,254.778 21.200,253.800 21.200 C 253.030 21.200,252.400 21.020,252.400 20.800 C 252.400 20.580,251.680 20.400,250.800 20.400 C 249.725 20.400,249.200 20.223,249.200 19.861 C 249.200 19.528,248.707 19.308,247.908 19.285 C 247.197 19.265,246.552 19.057,246.475 18.824 C 246.397 18.591,245.448 18.400,244.367 18.400 C 242.832 18.400,242.400 18.260,242.400 17.761 C 242.400 17.243,242.023 17.149,240.400 17.261 C 238.992 17.359,238.400 17.252,238.400 16.900 C 238.400 16.567,237.733 16.400,236.400 16.400 C 234.889 16.400,234.400 16.253,234.400 15.800 C 234.400 15.333,233.867 15.200,232.000 15.200 C 230.680 15.200,229.600 15.044,229.600 14.853 C 229.600 14.662,228.118 14.474,226.306 14.435 C 223.896 14.384,222.925 14.209,222.687 13.783 C 222.429 13.323,221.383 13.208,217.691 13.231 C 214.690 13.249,212.969 13.106,212.877 12.830 C 212.685 12.254,189.200 12.225,189.200 12.800 M212.800 59.200 C 212.800 59.437,214.267 59.600,216.400 59.600 C 219.067 59.600,219.974 59.730,219.900 60.100 C 219.828 60.460,220.543 60.600,222.450 60.600 C 224.406 60.600,225.049 60.731,224.907 61.100 C 224.768 61.460,225.287 61.600,226.757 61.600 C 228.306 61.600,228.800 61.745,228.800 62.200 C 228.800 62.653,229.289 62.800,230.800 62.800 C 231.900 62.800,232.800 62.980,232.800 63.200 C 232.800 63.420,233.430 63.600,234.200 63.600 C 235.178 63.600,235.600 63.781,235.600 64.200 C 235.600 64.619,236.022 64.800,237.000 64.800 C 237.770 64.800,238.400 64.978,238.400 65.195 C 238.400 65.413,238.715 65.564,239.100 65.532 C 240.714 65.397,241.600 65.634,241.600 66.200 C 241.600 66.573,241.978 66.800,242.600 66.800 C 243.150 66.800,243.600 66.980,243.600 67.200 C 243.600 67.420,244.314 67.600,245.187 67.600 C 246.434 67.600,246.725 67.729,246.545 68.200 C 246.376 68.639,246.595 68.800,247.357 68.800 C 247.931 68.800,248.400 68.980,248.400 69.200 C 248.400 69.420,248.831 69.600,249.357 69.600 C 249.884 69.600,250.425 69.889,250.561 70.242 C 250.736 70.697,251.095 70.813,251.793 70.637 C 252.565 70.444,252.728 70.521,252.547 70.995 C 252.380 71.430,252.581 71.600,253.262 71.600 C 253.806 71.600,254.530 72.026,254.961 72.600 C 255.374 73.150,256.017 73.600,256.389 73.600 C 256.762 73.600,257.202 73.735,257.367 73.900 C 257.532 74.065,257.832 74.223,258.033 74.250 C 258.235 74.278,258.580 74.323,258.800 74.350 C 259.020 74.377,259.200 74.670,259.200 75.000 C 259.200 75.373,259.578 75.600,260.200 75.600 C 260.750 75.600,261.200 75.780,261.200 76.000 C 261.200 76.220,261.470 76.400,261.800 76.400 C 262.130 76.400,262.400 76.670,262.400 77.000 C 262.400 77.340,262.759 77.600,263.229 77.600 C 264.114 77.600,265.200 78.466,265.200 79.171 C 265.200 79.407,265.470 79.600,265.800 79.600 C 266.130 79.600,266.400 79.780,266.400 80.000 C 266.400 80.220,266.861 80.400,267.424 80.400 C 267.987 80.400,268.356 80.548,268.244 80.729 C 268.012 81.104,269.396 82.400,270.028 82.400 C 270.259 82.400,270.339 82.575,270.207 82.788 C 270.075 83.002,270.425 83.291,270.984 83.432 C 271.543 83.572,272.000 83.847,272.000 84.043 C 272.000 84.240,272.240 84.400,272.532 84.400 C 272.825 84.400,273.306 84.850,273.600 85.400 C 273.894 85.950,274.272 86.400,274.440 86.400 C 274.771 86.400,286.000 97.528,286.000 97.857 C 286.000 98.227,287.138 99.200,287.571 99.200 C 287.807 99.200,288.000 99.470,288.000 99.800 C 288.000 100.130,288.180 100.400,288.400 100.400 C 288.620 100.400,288.800 100.760,288.800 101.200 C 288.800 101.644,289.067 102.000,289.400 102.000 C 289.730 102.000,290.000 102.193,290.000 102.429 C 290.000 102.982,291.018 104.000,291.571 104.000 C 291.807 104.000,292.000 104.450,292.000 105.000 C 292.000 105.550,292.180 106.000,292.400 106.000 C 292.620 106.000,292.800 106.270,292.800 106.600 C 292.800 106.930,292.993 107.200,293.229 107.200 C 293.934 107.200,294.800 108.286,294.800 109.171 C 294.800 109.641,295.060 110.000,295.400 110.000 C 295.773 110.000,296.000 110.378,296.000 111.000 C 296.000 111.550,296.180 112.000,296.400 112.000 C 296.620 112.000,296.800 112.270,296.800 112.600 C 296.800 112.930,297.064 113.200,297.387 113.200 C 297.714 113.200,297.884 113.438,297.769 113.736 C 297.656 114.031,297.842 114.503,298.182 114.785 C 298.522 115.067,298.800 115.555,298.800 115.868 C 298.800 116.182,299.250 116.855,299.800 117.365 C 300.350 117.875,300.800 118.676,300.800 119.146 C 300.800 119.616,300.980 120.000,301.200 120.000 C 301.420 120.000,301.600 120.450,301.600 121.000 C 301.600 121.622,301.827 122.000,302.200 122.000 C 302.573 122.000,302.800 122.378,302.800 123.000 C 302.800 123.550,302.980 124.000,303.200 124.000 C 303.420 124.000,303.600 124.437,303.600 124.971 C 303.600 125.506,303.870 126.213,304.200 126.543 C 304.530 126.873,304.800 127.516,304.800 127.971 C 304.800 128.427,304.980 128.800,305.200 128.800 C 305.420 128.800,305.600 129.166,305.600 129.613 C 305.600 130.059,305.870 130.529,306.200 130.655 C 306.567 130.796,306.800 131.403,306.800 132.219 C 306.800 132.953,306.980 133.664,307.200 133.800 C 307.420 133.936,307.600 134.667,307.600 135.424 C 307.600 136.380,307.783 136.800,308.200 136.800 C 308.619 136.800,308.800 137.222,308.800 138.200 C 308.800 138.970,308.980 139.600,309.200 139.600 C 309.420 139.600,309.600 140.500,309.600 141.600 C 309.600 143.111,309.747 143.600,310.200 143.600 C 310.653 143.600,310.800 144.089,310.800 145.600 C 310.800 146.700,310.980 147.600,311.200 147.600 C 311.422 147.600,311.600 148.656,311.600 149.967 C 311.600 151.317,311.787 152.396,312.035 152.478 C 312.285 152.562,312.542 154.070,312.638 156.012 C 312.730 157.875,312.985 159.460,313.203 159.533 C 313.797 159.733,313.739 182.287,313.144 182.485 C 312.861 182.580,312.667 183.817,312.633 185.740 C 312.603 187.446,312.391 188.968,312.161 189.121 C 311.932 189.275,311.698 190.390,311.641 191.600 C 311.583 192.810,311.371 193.860,311.168 193.933 C 310.966 194.007,310.800 195.222,310.800 196.633 C 310.800 198.648,310.671 199.200,310.200 199.200 C 309.783 199.200,309.600 199.620,309.600 200.576 C 309.600 201.333,309.420 202.064,309.200 202.200 C 308.980 202.336,308.800 203.077,308.800 203.847 C 308.800 204.617,308.639 205.148,308.442 205.026 C 308.006 204.756,307.600 205.723,307.600 207.033 C 307.600 207.565,307.407 208.000,307.171 208.000 C 306.936 208.000,306.776 208.405,306.816 208.900 C 306.940 210.439,306.821 210.800,306.187 210.800 C 305.731 210.800,305.600 211.174,305.674 212.271 C 305.733 213.149,305.577 213.808,305.287 213.904 C 305.019 213.994,304.800 214.502,304.800 215.033 C 304.800 215.626,304.568 216.000,304.200 216.000 C 303.870 216.000,303.600 216.349,303.600 216.776 C 303.600 217.203,303.420 217.664,303.200 217.800 C 302.980 217.936,302.800 218.402,302.800 218.836 C 302.800 219.270,302.531 219.728,302.202 219.854 C 301.874 219.981,301.688 220.218,301.789 220.383 C 301.891 220.548,301.716 221.024,301.400 221.441 C 301.084 221.858,300.820 222.521,300.813 222.913 C 300.806 223.304,300.541 223.724,300.225 223.846 C 299.909 223.967,299.748 224.320,299.867 224.630 C 299.986 224.940,299.794 225.304,299.442 225.439 C 299.089 225.575,298.800 226.034,298.800 226.460 C 298.800 226.886,298.350 227.720,297.800 228.313 C 297.250 228.907,296.800 229.709,296.800 230.096 C 296.800 230.483,296.620 230.800,296.400 230.800 C 296.180 230.800,296.000 231.261,296.000 231.824 C 296.000 232.387,295.852 232.756,295.671 232.644 C 295.188 232.345,294.000 233.881,294.000 234.805 C 294.000 235.245,293.732 235.600,293.400 235.600 C 293.070 235.600,292.800 235.793,292.800 236.029 C 292.800 236.582,291.782 237.600,291.229 237.600 C 290.993 237.600,290.800 237.962,290.800 238.405 C 290.800 238.848,289.914 240.092,288.831 241.169 C 287.748 242.247,286.968 243.234,287.097 243.364 C 287.227 243.494,287.033 243.600,286.667 243.600 C 286.222 243.600,286.000 243.933,286.000 244.600 C 286.000 245.222,285.773 245.600,285.400 245.600 C 285.070 245.600,284.800 245.881,284.800 246.224 C 284.800 246.567,284.620 246.736,284.400 246.600 C 284.180 246.464,284.000 246.556,284.000 246.805 C 284.000 247.378,282.993 248.400,282.429 248.400 C 282.193 248.400,282.000 248.681,282.000 249.024 C 282.000 249.367,281.820 249.536,281.600 249.400 C 281.380 249.264,281.200 249.433,281.200 249.776 C 281.200 250.119,280.930 250.400,280.600 250.400 C 280.270 250.400,280.000 250.681,280.000 251.024 C 280.000 251.367,279.820 251.536,279.600 251.400 C 279.380 251.264,279.200 251.433,279.200 251.776 C 279.200 252.119,279.007 252.400,278.771 252.400 C 278.218 252.400,277.200 253.418,277.200 253.971 C 277.200 254.207,276.960 254.400,276.668 254.400 C 276.375 254.400,275.894 254.850,275.600 255.400 C 275.306 255.950,274.902 256.400,274.704 256.400 C 274.237 256.400,273.200 257.437,273.200 257.904 C 273.200 258.102,272.750 258.506,272.200 258.800 C 271.650 259.094,271.200 259.544,271.200 259.800 C 271.200 260.056,270.750 260.506,270.200 260.800 C 269.650 261.094,269.200 261.575,269.200 261.868 C 269.200 262.160,269.007 262.400,268.771 262.400 C 268.250 262.400,267.200 263.405,267.200 263.904 C 267.200 264.102,266.770 264.495,266.244 264.776 C 265.718 265.058,265.058 265.718,264.776 266.244 C 264.495 266.770,264.102 267.200,263.904 267.200 C 263.405 267.200,262.400 268.250,262.400 268.771 C 262.400 269.007,262.160 269.200,261.868 269.200 C 261.575 269.200,261.094 269.650,260.800 270.200 C 260.506 270.750,260.056 271.200,259.800 271.200 C 259.544 271.200,259.094 271.650,258.800 272.200 C 258.202 273.318,256.400 273.618,256.400 272.600 C 256.400 272.270,256.207 272.000,255.971 272.000 C 255.418 272.000,254.400 270.982,254.400 270.429 C 254.400 270.193,254.170 270.000,253.888 270.000 C 253.607 270.000,253.117 269.640,252.800 269.200 C 252.483 268.760,251.993 268.400,251.712 268.400 C 251.430 268.400,251.200 268.130,251.200 267.800 C 251.200 267.470,251.020 267.200,250.800 267.200 C 250.580 267.200,250.400 266.911,250.400 266.557 C 250.400 266.150,250.180 265.999,249.800 266.145 C 249.470 266.271,249.200 266.184,249.200 265.952 C 249.200 265.719,248.390 264.741,247.400 263.779 C 246.410 262.817,245.600 261.843,245.600 261.615 C 245.600 261.387,245.407 261.200,245.171 261.200 C 244.618 261.200,243.600 260.182,243.600 259.629 C 243.600 259.393,243.407 259.200,243.171 259.200 C 242.618 259.200,241.600 258.182,241.600 257.629 C 241.600 257.393,241.407 257.200,241.171 257.200 C 240.618 257.200,239.600 256.182,239.600 255.629 C 239.600 255.393,239.420 255.200,239.200 255.200 C 238.468 255.200,234.400 250.778,234.400 249.982 C 234.400 249.552,234.596 249.200,234.836 249.200 C 235.075 249.200,236.059 248.390,237.021 247.400 C 237.983 246.410,238.957 245.600,239.185 245.600 C 239.413 245.600,239.600 245.407,239.600 245.171 C 239.600 244.618,240.618 243.600,241.171 243.600 C 241.407 243.600,241.600 243.407,241.600 243.171 C 241.600 242.618,242.618 241.600,243.171 241.600 C 243.407 241.600,243.600 241.407,243.600 241.171 C 243.600 240.618,244.618 239.600,245.171 239.600 C 245.407 239.600,245.600 239.413,245.600 239.185 C 245.600 238.957,246.410 237.983,247.400 237.021 C 248.390 236.059,249.200 235.075,249.200 234.836 C 249.200 234.596,249.393 234.400,249.629 234.400 C 250.182 234.400,251.200 233.382,251.200 232.829 C 251.200 232.593,251.430 232.400,251.712 232.400 C 251.993 232.400,252.483 232.040,252.800 231.600 C 253.117 231.160,253.607 230.800,253.888 230.800 C 254.170 230.800,254.400 230.607,254.400 230.371 C 254.400 229.818,255.418 228.800,255.971 228.800 C 256.207 228.800,256.400 228.607,256.400 228.371 C 256.400 227.818,257.418 226.800,257.971 226.800 C 258.207 226.800,258.400 226.613,258.400 226.385 C 258.400 226.157,259.255 225.136,260.300 224.117 C 261.345 223.098,262.155 222.115,262.100 221.932 C 262.045 221.750,262.193 221.600,262.429 221.600 C 263.134 221.600,264.000 220.514,264.000 219.629 C 264.000 219.159,264.260 218.800,264.600 218.800 C 264.930 218.800,265.200 218.607,265.200 218.371 C 265.200 217.818,266.218 216.800,266.771 216.800 C 267.007 216.800,267.200 216.350,267.200 215.800 C 267.200 215.250,267.380 214.800,267.600 214.800 C 267.820 214.800,268.000 214.350,268.000 213.800 C 268.000 213.250,268.193 212.800,268.429 212.800 C 269.134 212.800,270.000 211.714,270.000 210.829 C 270.000 210.359,270.260 210.000,270.600 210.000 C 270.973 210.000,271.200 209.622,271.200 209.000 C 271.200 208.450,271.380 208.000,271.600 208.000 C 271.820 208.000,272.000 207.550,272.000 207.000 C 272.000 206.378,272.227 206.000,272.600 206.000 C 272.973 206.000,273.200 205.622,273.200 205.000 C 273.200 204.450,273.380 204.000,273.600 204.000 C 273.820 204.000,274.000 203.569,274.000 203.043 C 274.000 202.516,274.270 201.982,274.600 201.855 C 274.951 201.721,275.200 201.121,275.200 200.413 C 275.200 199.746,275.380 199.200,275.600 199.200 C 275.820 199.200,276.000 198.396,276.000 197.413 C 276.000 195.988,276.122 195.672,276.600 195.855 C 277.065 196.034,277.200 195.761,277.200 194.643 C 277.200 193.849,277.380 193.200,277.600 193.200 C 277.820 193.200,278.000 192.319,278.000 191.243 C 278.000 189.872,278.180 189.217,278.600 189.055 C 279.049 188.883,279.200 188.163,279.200 186.189 C 279.200 184.497,279.346 183.643,279.608 183.805 C 279.883 183.975,280.008 179.873,279.989 171.256 C 279.973 164.110,279.803 158.398,279.603 158.327 C 279.406 158.257,279.203 157.146,279.152 155.858 C 279.101 154.567,278.822 153.279,278.530 152.987 C 278.238 152.696,278.000 151.649,278.000 150.662 C 278.000 149.675,277.834 148.807,277.631 148.733 C 277.427 148.660,277.183 147.970,277.088 147.200 C 276.993 146.428,276.710 145.845,276.458 145.900 C 276.174 145.962,276.000 145.393,276.000 144.400 C 276.000 143.520,275.820 142.800,275.600 142.800 C 275.380 142.800,275.200 142.350,275.200 141.800 C 275.200 141.178,274.973 140.800,274.600 140.800 C 274.181 140.800,274.000 140.378,274.000 139.400 C 274.000 138.630,273.820 138.000,273.600 138.000 C 273.380 138.000,273.200 137.550,273.200 137.000 C 273.200 136.378,272.973 136.000,272.600 136.000 C 272.227 136.000,272.000 135.622,272.000 135.000 C 272.000 134.450,271.820 134.000,271.600 134.000 C 271.380 134.000,271.200 133.550,271.200 133.000 C 271.200 132.378,270.973 132.000,270.600 132.000 C 270.270 132.000,270.000 131.730,270.000 131.400 C 270.000 131.070,269.820 130.800,269.600 130.800 C 269.380 130.800,269.200 130.434,269.200 129.987 C 269.200 129.541,268.930 129.071,268.600 128.945 C 268.270 128.818,268.000 128.374,268.000 127.957 C 268.000 127.541,267.820 127.200,267.600 127.200 C 267.380 127.200,267.200 126.930,267.200 126.600 C 267.200 126.270,266.930 126.000,266.600 126.000 C 266.263 126.000,266.000 125.643,266.000 125.185 C 266.000 124.737,265.215 123.607,264.255 122.675 C 263.296 121.742,262.384 120.579,262.228 120.089 C 262.073 119.600,261.778 119.200,261.573 119.200 C 261.368 119.200,261.200 119.007,261.200 118.771 C 261.200 118.536,260.943 118.086,260.629 117.771 C 260.314 117.457,259.864 117.200,259.629 117.200 C 259.393 117.200,259.200 116.960,259.200 116.668 C 259.200 116.375,258.750 115.894,258.200 115.600 C 257.650 115.306,257.200 114.856,257.200 114.600 C 257.200 114.344,256.750 113.894,256.200 113.600 C 255.650 113.306,255.200 112.902,255.200 112.704 C 255.200 112.205,254.150 111.200,253.629 111.200 C 253.393 111.200,253.200 111.032,253.200 110.827 C 253.200 110.622,252.803 110.328,252.319 110.174 C 251.297 109.850,250.400 109.040,250.400 108.441 C 250.400 108.212,250.164 108.116,249.875 108.227 C 249.586 108.337,249.113 107.985,248.824 107.444 C 248.534 106.904,247.871 106.354,247.349 106.223 C 246.827 106.092,246.400 105.808,246.400 105.592 C 246.400 105.377,246.130 105.200,245.800 105.200 C 245.470 105.200,245.200 105.020,245.200 104.800 C 245.200 104.580,244.840 104.400,244.400 104.400 C 243.956 104.400,243.600 104.133,243.600 103.800 C 243.600 103.427,243.222 103.200,242.600 103.200 C 242.050 103.200,241.600 103.020,241.600 102.800 C 241.600 102.580,241.330 102.400,241.000 102.400 C 240.670 102.400,240.400 102.130,240.400 101.800 C 240.400 101.427,240.022 101.200,239.400 101.200 C 238.850 101.200,238.400 101.020,238.400 100.800 C 238.400 100.580,237.950 100.400,237.400 100.400 C 236.778 100.400,236.400 100.173,236.400 99.800 C 236.400 99.427,236.022 99.200,235.400 99.200 C 234.850 99.200,234.400 99.020,234.400 98.800 C 234.400 98.580,234.209 98.400,233.976 98.400 C 233.743 98.400,233.680 98.625,233.835 98.900 C 234.061 99.300,234.010 99.300,233.579 98.900 C 233.282 98.625,232.716 98.400,232.320 98.400 C 231.924 98.400,231.600 98.130,231.600 97.800 C 231.600 97.427,231.222 97.200,230.600 97.200 C 230.050 97.200,229.600 97.020,229.600 96.800 C 229.600 96.580,228.989 96.400,228.243 96.400 C 227.405 96.400,226.797 96.170,226.655 95.800 C 226.511 95.423,225.899 95.200,225.013 95.200 C 224.236 95.200,223.600 95.020,223.600 94.800 C 223.600 94.580,222.700 94.400,221.600 94.400 C 220.074 94.400,219.600 94.255,219.600 93.790 C 219.600 93.306,219.130 93.195,217.321 93.254 C 215.887 93.301,214.985 93.156,214.888 92.864 C 214.803 92.609,214.558 92.400,214.343 92.400 C 214.128 92.400,214.080 92.625,214.235 92.900 C 214.461 93.300,214.410 93.300,213.979 92.900 C 213.292 92.263,188.000 92.165,188.000 92.800 C 188.000 93.022,186.933 93.200,185.600 93.200 C 183.733 93.200,183.200 93.333,183.200 93.800 C 183.200 94.252,182.715 94.400,181.233 94.400 C 180.152 94.400,179.207 94.564,179.133 94.766 C 179.060 94.967,178.190 95.205,177.200 95.295 C 176.099 95.396,175.439 95.642,175.500 95.930 C 175.559 96.208,175.109 96.400,174.400 96.400 C 173.670 96.400,173.200 96.608,173.200 96.931 C 173.200 97.292,172.819 97.406,172.005 97.286 C 171.159 97.162,170.737 97.299,170.562 97.755 C 170.426 98.110,169.884 98.400,169.357 98.400 C 168.831 98.400,168.400 98.580,168.400 98.800 C 168.400 99.020,167.950 99.200,167.400 99.200 C 166.778 99.200,166.400 99.427,166.400 99.800 C 166.400 100.173,166.022 100.400,165.400 100.400 C 164.850 100.400,164.400 100.580,164.400 100.800 C 164.400 101.020,163.950 101.200,163.400 101.200 C 162.778 101.200,162.400 101.427,162.400 101.800 C 162.400 102.173,162.022 102.400,161.400 102.400 C 160.850 102.400,160.400 102.580,160.400 102.800 C 160.400 103.020,160.065 103.200,159.656 103.200 C 159.247 103.200,158.574 103.650,158.161 104.200 C 157.747 104.751,157.004 105.200,156.505 105.200 C 155.952 105.200,155.600 105.443,155.600 105.824 C 155.600 106.198,155.413 106.332,155.132 106.158 C 154.818 105.964,154.747 106.086,154.918 106.530 C 155.057 106.893,155.043 107.171,154.886 107.148 C 154.072 107.027,153.600 107.261,153.600 107.787 C 153.600 108.129,153.364 108.284,153.035 108.158 C 152.700 108.030,151.638 108.769,150.430 109.971 C 149.308 111.087,148.212 112.000,147.995 112.000 C 147.778 112.000,147.600 112.193,147.600 112.429 C 147.600 112.664,147.343 113.114,147.029 113.429 C 146.714 113.743,146.264 114.000,146.029 114.000 C 145.793 114.000,145.600 114.193,145.600 114.429 C 145.600 114.664,145.343 115.114,145.029 115.429 C 144.714 115.743,144.264 116.000,144.029 116.000 C 143.793 116.000,143.600 116.270,143.600 116.600 C 143.600 116.930,143.420 117.200,143.200 117.200 C 142.980 117.200,142.800 117.464,142.800 117.787 C 142.800 118.145,142.565 118.285,142.200 118.145 C 141.870 118.018,141.600 118.127,141.600 118.386 C 141.600 118.994,140.594 120.000,139.986 120.000 C 139.727 120.000,139.618 120.270,139.745 120.600 C 139.871 120.930,139.777 121.200,139.534 121.200 C 138.855 121.200,137.549 122.889,137.774 123.477 C 137.885 123.764,137.788 124.000,137.559 124.000 C 136.864 124.000,136.000 125.093,136.000 125.971 C 136.000 126.441,135.740 126.800,135.400 126.800 C 135.070 126.800,134.800 127.070,134.800 127.400 C 134.800 127.730,134.620 128.000,134.400 128.000 C 134.180 128.000,134.000 128.450,134.000 129.000 C 134.000 129.550,133.807 130.000,133.571 130.000 C 132.879 130.000,132.000 131.079,132.000 131.929 C 132.000 132.361,131.730 132.818,131.400 132.945 C 131.070 133.071,130.800 133.541,130.800 133.987 C 130.800 134.434,130.620 134.800,130.400 134.800 C 130.180 134.800,130.000 135.250,130.000 135.800 C 130.000 136.350,129.855 136.800,129.677 136.800 C 129.238 136.800,128.000 139.672,128.000 140.692 C 128.000 141.144,127.730 141.618,127.400 141.745 C 127.023 141.889,126.800 142.501,126.800 143.387 C 126.800 144.164,126.631 144.800,126.424 144.800 C 126.217 144.800,125.992 145.475,125.924 146.300 C 125.847 147.238,125.613 147.763,125.300 147.700 C 124.967 147.633,124.800 148.133,124.800 149.200 C 124.800 150.080,124.620 150.800,124.400 150.800 C 124.180 150.800,124.000 151.803,124.000 153.029 C 124.000 154.385,123.785 155.472,123.450 155.807 C 123.066 156.191,122.924 157.264,122.977 159.378 C 123.033 161.647,122.921 162.400,122.526 162.400 C 121.806 162.400,121.748 179.849,122.468 180.089 C 122.767 180.189,122.963 181.455,123.010 183.603 C 123.057 185.707,123.256 187.019,123.542 187.114 C 123.803 187.201,124.000 188.113,124.000 189.233 C 124.000 190.315,124.180 191.200,124.400 191.200 C 124.620 191.200,124.800 191.898,124.800 192.751 C 124.800 193.642,125.055 194.514,125.400 194.800 C 125.730 195.074,126.000 195.906,126.000 196.649 C 126.000 197.392,126.180 198.000,126.400 198.000 C 126.620 198.000,126.800 198.450,126.800 199.000 C 126.800 199.622,127.027 200.000,127.400 200.000 C 127.819 200.000,128.000 200.422,128.000 201.400 C 128.000 202.170,128.180 202.800,128.400 202.800 C 128.620 202.800,128.800 203.250,128.800 203.800 C 128.800 204.422,129.027 204.800,129.400 204.800 C 129.773 204.800,130.000 205.178,130.000 205.800 C 130.000 206.350,130.180 206.800,130.400 206.800 C 130.620 206.800,130.800 207.250,130.800 207.800 C 130.800 208.422,131.027 208.800,131.400 208.800 C 131.773 208.800,132.000 209.178,132.000 209.800 C 132.000 210.350,132.180 210.800,132.400 210.800 C 132.620 210.800,132.800 211.250,132.800 211.800 C 132.800 212.350,133.005 212.800,133.256 212.800 C 133.871 212.800,134.772 214.035,134.787 214.900 C 134.794 215.285,135.070 215.600,135.400 215.600 C 135.730 215.600,136.000 215.870,136.000 216.200 C 136.000 216.530,136.180 216.800,136.400 216.800 C 136.620 216.800,136.800 217.220,136.800 217.732 C 136.800 218.318,137.172 218.864,137.800 219.200 C 138.350 219.494,138.800 219.975,138.800 220.268 C 138.800 220.560,139.081 220.800,139.424 220.800 C 139.767 220.800,139.936 220.980,139.800 221.200 C 139.664 221.420,139.833 221.600,140.176 221.600 C 140.575 221.600,140.800 221.961,140.800 222.600 C 140.800 223.239,141.025 223.600,141.424 223.600 C 141.767 223.600,141.956 223.748,141.844 223.929 C 141.596 224.330,143.038 225.629,143.366 225.300 C 143.495 225.172,143.600 225.293,143.600 225.570 C 143.600 226.169,149.794 232.400,150.389 232.400 C 150.615 232.400,150.800 232.593,150.800 232.829 C 150.800 233.382,151.818 234.400,152.371 234.400 C 152.607 234.400,152.800 234.593,152.800 234.829 C 152.800 235.382,153.818 236.400,154.371 236.400 C 154.607 236.400,154.755 236.535,154.700 236.700 C 154.565 237.105,166.634 249.200,167.174 249.200 C 167.408 249.200,167.600 249.576,167.600 250.035 C 167.600 250.858,163.550 255.200,162.782 255.200 C 162.572 255.200,162.400 255.393,162.400 255.629 C 162.400 256.182,161.382 257.200,160.829 257.200 C 160.593 257.200,160.400 257.393,160.400 257.629 C 160.400 258.182,159.382 259.200,158.829 259.200 C 158.593 259.200,158.400 259.427,158.400 259.705 C 158.400 259.983,157.953 260.546,157.408 260.955 C 156.862 261.365,156.512 261.858,156.631 262.050 C 156.750 262.243,156.653 262.400,156.416 262.400 C 156.179 262.400,154.287 264.110,152.210 266.200 C 150.134 268.290,148.247 270.000,148.017 270.000 C 147.788 270.000,147.600 270.193,147.600 270.429 C 147.600 270.982,146.582 272.000,146.029 272.000 C 145.793 272.000,145.600 272.270,145.600 272.600 C 145.600 273.389,144.951 273.371,144.646 272.575 C 144.514 272.231,144.224 272.061,144.003 272.198 C 143.781 272.335,143.600 272.257,143.600 272.024 C 143.600 271.448,142.125 270.009,141.833 270.300 C 141.705 270.428,141.600 270.323,141.600 270.067 C 141.600 269.498,138.559 266.400,138.000 266.400 C 137.780 266.400,137.600 266.220,137.600 266.000 C 137.600 265.780,136.880 264.880,136.000 264.000 C 135.120 263.120,134.220 262.400,134.000 262.400 C 133.780 262.400,133.600 262.244,133.600 262.054 C 133.600 261.556,127.489 255.381,127.114 255.500 C 126.941 255.555,126.800 255.422,126.800 255.205 C 126.800 254.590,125.496 253.217,125.129 253.444 C 124.948 253.556,124.800 253.457,124.800 253.224 C 124.800 252.686,121.734 249.600,121.200 249.600 C 120.980 249.600,120.800 249.406,120.800 249.170 C 120.800 248.933,119.540 247.494,118.000 245.973 C 116.460 244.451,115.200 243.024,115.200 242.803 C 115.200 242.581,114.930 242.400,114.600 242.400 C 114.267 242.400,114.000 242.044,114.000 241.600 C 114.000 241.160,113.820 240.800,113.600 240.800 C 113.380 240.800,113.200 240.530,113.200 240.200 C 113.200 239.870,112.930 239.600,112.600 239.600 C 112.270 239.600,112.000 239.330,112.000 239.000 C 112.000 238.670,111.820 238.400,111.600 238.400 C 111.380 238.400,111.200 238.136,111.200 237.814 C 111.200 237.147,108.790 234.548,108.313 234.700 C 108.141 234.755,108.000 234.350,108.000 233.800 C 108.000 233.250,107.820 232.800,107.600 232.800 C 107.380 232.800,107.200 232.530,107.200 232.200 C 107.200 231.870,106.930 231.600,106.600 231.600 C 106.227 231.600,106.000 231.222,106.000 230.600 C 106.000 230.050,105.820 229.600,105.600 229.600 C 105.380 229.600,105.200 229.265,105.200 228.856 C 105.200 228.447,104.750 227.774,104.200 227.361 C 103.649 226.947,103.200 226.204,103.200 225.705 C 103.200 225.207,103.020 224.800,102.800 224.800 C 102.580 224.800,102.400 224.434,102.400 223.987 C 102.400 223.541,102.130 223.071,101.800 222.945 C 101.470 222.818,101.200 222.284,101.200 221.757 C 101.200 221.231,101.020 220.800,100.800 220.800 C 100.580 220.800,100.400 220.434,100.400 219.987 C 100.400 219.541,100.130 219.071,99.800 218.945 C 99.470 218.818,99.200 218.284,99.200 217.757 C 99.200 217.231,99.020 216.800,98.800 216.800 C 98.580 216.800,98.400 216.350,98.400 215.800 C 98.400 215.178,98.173 214.800,97.800 214.800 C 97.381 214.800,97.200 214.378,97.200 213.400 C 97.200 212.630,97.020 212.000,96.800 212.000 C 96.580 212.000,96.400 211.550,96.400 211.000 C 96.400 210.378,96.173 210.000,95.800 210.000 C 95.383 210.000,95.200 209.580,95.200 208.624 C 95.200 207.867,95.020 207.136,94.800 207.000 C 94.580 206.864,94.400 206.133,94.400 205.376 C 94.400 204.420,94.217 204.000,93.800 204.000 C 93.347 204.000,93.200 203.511,93.200 202.000 C 93.200 200.900,93.020 200.000,92.800 200.000 C 92.580 200.000,92.400 199.184,92.400 198.187 C 92.400 196.945,92.211 196.302,91.800 196.145 C 91.380 195.983,91.200 195.328,91.200 193.957 C 91.200 192.881,91.028 192.000,90.818 192.000 C 90.607 192.000,90.382 190.695,90.318 189.100 C 90.234 187.041,90.055 186.229,89.700 186.300 C 89.319 186.376,89.200 185.067,89.200 180.800 C 89.200 177.333,89.048 175.200,88.800 175.200 C 88.560 175.200,88.400 173.600,88.400 171.200 C 88.400 168.800,88.560 167.200,88.800 167.200 C 89.047 167.200,89.200 165.133,89.200 161.800 C 89.200 157.267,89.296 156.400,89.800 156.400 C 90.280 156.400,90.400 155.800,90.400 153.400 C 90.400 151.667,90.569 150.400,90.800 150.400 C 91.022 150.400,91.200 149.333,91.200 148.000 C 91.200 146.133,91.333 145.600,91.800 145.600 C 92.253 145.600,92.400 145.111,92.400 143.600 C 92.400 142.500,92.580 141.600,92.800 141.600 C 93.020 141.600,93.200 140.989,93.200 140.243 C 93.200 139.405,93.430 138.797,93.800 138.655 C 94.177 138.511,94.400 137.899,94.400 137.013 C 94.400 136.236,94.580 135.600,94.800 135.600 C 95.020 135.600,95.200 134.970,95.200 134.200 C 95.200 133.178,95.374 132.800,95.845 132.800 C 96.339 132.800,96.448 132.510,96.309 131.563 C 96.191 130.760,96.316 130.254,96.664 130.120 C 96.959 130.007,97.200 129.503,97.200 129.000 C 97.200 128.497,97.470 127.982,97.800 127.855 C 98.130 127.729,98.400 127.259,98.400 126.813 C 98.400 126.366,98.580 126.000,98.800 126.000 C 99.020 126.000,99.200 125.280,99.200 124.400 C 99.200 123.244,99.367 122.800,99.800 122.800 C 100.173 122.800,100.400 122.422,100.400 121.800 C 100.400 121.250,100.580 120.800,100.800 120.800 C 101.020 120.800,101.200 120.521,101.200 120.181 C 101.200 119.840,101.650 119.145,102.200 118.635 C 102.750 118.125,103.200 117.324,103.200 116.854 C 103.200 116.384,103.380 116.000,103.600 116.000 C 103.820 116.000,104.000 115.550,104.000 115.000 C 104.000 114.378,104.227 114.000,104.600 114.000 C 104.940 114.000,105.200 113.641,105.200 113.171 C 105.200 112.286,106.066 111.200,106.771 111.200 C 107.007 111.200,107.200 110.750,107.200 110.200 C 107.200 109.650,107.359 109.200,107.553 109.200 C 107.748 109.200,108.006 108.822,108.126 108.360 C 108.247 107.897,108.538 107.638,108.773 107.783 C 109.025 107.939,109.200 107.697,109.200 107.195 C 109.200 106.290,110.058 105.200,110.771 105.200 C 111.007 105.200,111.200 104.930,111.200 104.600 C 111.200 104.270,111.380 104.000,111.600 104.000 C 111.820 104.000,112.000 103.705,112.000 103.344 C 112.000 102.983,112.900 101.838,114.000 100.800 C 115.189 99.678,116.000 98.565,116.000 98.056 C 116.000 97.585,116.193 97.200,116.429 97.200 C 116.950 97.200,118.000 96.195,118.000 95.696 C 118.000 95.498,118.450 95.094,119.000 94.800 C 119.550 94.506,120.000 94.102,120.000 93.904 C 120.000 93.405,121.050 92.400,121.571 92.400 C 121.807 92.400,122.000 92.207,122.000 91.971 C 122.000 91.418,123.018 90.400,123.571 90.400 C 123.807 90.400,124.000 90.207,124.000 89.971 C 124.000 89.450,125.005 88.400,125.504 88.400 C 125.702 88.400,126.106 87.950,126.400 87.400 C 126.736 86.772,127.282 86.400,127.868 86.400 C 128.430 86.400,128.800 86.162,128.800 85.800 C 128.800 85.470,128.996 85.200,129.236 85.200 C 129.475 85.200,130.459 84.390,131.421 83.400 C 132.383 82.410,133.453 81.600,133.798 81.600 C 134.143 81.600,134.529 81.330,134.655 81.000 C 134.782 80.670,135.147 80.400,135.466 80.400 C 135.786 80.400,135.936 80.220,135.800 80.000 C 135.660 79.773,135.996 79.600,136.576 79.600 C 137.220 79.600,137.600 79.377,137.600 79.000 C 137.600 78.670,137.793 78.400,138.029 78.400 C 138.582 78.400,139.600 77.382,139.600 76.829 C 139.600 76.593,140.050 76.400,140.600 76.400 C 141.150 76.400,141.600 76.220,141.600 76.000 C 141.600 75.780,142.050 75.600,142.600 75.600 C 143.222 75.600,143.600 75.373,143.600 75.000 C 143.600 74.670,143.870 74.400,144.200 74.400 C 144.530 74.400,144.800 74.220,144.800 74.000 C 144.800 73.780,145.250 73.600,145.800 73.600 C 146.422 73.600,146.800 73.373,146.800 73.000 C 146.800 72.627,147.178 72.400,147.800 72.400 C 148.350 72.400,148.800 72.220,148.800 72.000 C 148.800 71.780,149.160 71.600,149.600 71.600 C 150.040 71.600,150.400 71.440,150.400 71.243 C 150.400 71.047,150.850 70.774,151.400 70.636 C 151.950 70.498,152.400 70.208,152.400 69.992 C 152.400 69.777,152.850 69.600,153.400 69.600 C 153.950 69.600,154.400 69.420,154.400 69.200 C 154.400 68.980,154.850 68.800,155.400 68.800 C 156.022 68.800,156.400 68.573,156.400 68.200 C 156.400 67.827,156.778 67.600,157.400 67.600 C 157.950 67.600,158.400 67.420,158.400 67.200 C 158.400 66.980,159.036 66.800,159.813 66.800 C 160.699 66.800,161.311 66.577,161.455 66.200 C 161.597 65.830,162.205 65.600,163.043 65.600 C 163.789 65.600,164.400 65.420,164.400 65.200 C 164.400 64.980,164.850 64.800,165.400 64.800 C 166.022 64.800,166.400 64.573,166.400 64.200 C 166.400 63.747,166.889 63.600,168.400 63.600 C 169.500 63.600,170.400 63.420,170.400 63.200 C 170.400 62.980,171.030 62.800,171.800 62.800 C 172.778 62.800,173.200 62.619,173.200 62.200 C 173.200 61.747,173.689 61.600,175.200 61.600 C 176.300 61.600,177.200 61.420,177.200 61.200 C 177.200 60.978,178.271 60.800,179.613 60.800 C 181.388 60.800,182.086 60.642,182.255 60.200 C 182.435 59.733,183.228 59.600,185.843 59.600 C 187.814 59.600,189.200 59.435,189.200 59.200 C 189.200 58.942,193.400 58.800,201.000 58.800 C 208.600 58.800,212.800 58.942,212.800 59.200 M204.945 138.200 C 205.114 138.642,205.812 138.800,207.587 138.800 C 208.929 138.800,210.000 138.978,210.000 139.200 C 210.000 139.420,210.630 139.600,211.400 139.600 C 212.423 139.600,212.800 139.774,212.800 140.247 C 212.800 140.697,213.044 140.830,213.601 140.684 C 214.076 140.560,214.538 140.718,214.737 141.073 C 214.921 141.402,215.191 141.656,215.336 141.636 C 216.333 141.501,216.800 141.681,216.800 142.200 C 216.800 142.573,217.178 142.800,217.800 142.800 C 218.350 142.800,218.800 142.980,218.800 143.200 C 218.800 143.420,219.081 143.600,219.424 143.600 C 219.767 143.600,219.939 143.775,219.807 143.988 C 219.675 144.202,220.025 144.491,220.584 144.632 C 221.143 144.772,221.600 145.047,221.600 145.243 C 221.600 145.440,221.870 145.600,222.200 145.600 C 222.530 145.600,222.800 145.793,222.800 146.029 C 222.800 146.460,223.773 147.600,224.141 147.600 C 224.612 147.600,226.800 150.117,226.800 150.659 C 226.800 151.352,227.746 152.400,228.371 152.400 C 228.607 152.400,228.800 152.670,228.800 153.000 C 228.800 153.330,228.980 153.600,229.200 153.600 C 229.420 153.600,229.600 154.050,229.600 154.600 C 229.600 155.222,229.827 155.600,230.200 155.600 C 230.573 155.600,230.800 155.978,230.800 156.600 C 230.800 157.150,230.980 157.600,231.200 157.600 C 231.420 157.600,231.600 158.031,231.600 158.557 C 231.600 159.084,231.890 159.626,232.245 159.762 C 232.657 159.920,232.815 160.300,232.681 160.812 C 232.566 161.253,232.738 161.881,233.064 162.207 C 233.446 162.589,233.657 163.592,233.657 165.024 C 233.657 166.533,233.832 167.314,234.203 167.457 C 235.006 167.765,234.970 174.400,234.165 174.400 C 233.742 174.400,233.600 174.994,233.600 176.767 C 233.600 178.140,233.414 179.195,233.158 179.281 C 232.914 179.362,232.684 180.039,232.647 180.784 C 232.609 181.530,232.358 182.214,232.089 182.304 C 231.820 182.393,231.600 182.902,231.600 183.433 C 231.600 183.965,231.420 184.400,231.200 184.400 C 230.980 184.400,230.800 184.850,230.800 185.400 C 230.800 185.950,230.628 186.400,230.419 186.400 C 230.209 186.400,229.739 187.030,229.373 187.800 C 229.008 188.570,228.459 189.200,228.154 189.200 C 227.849 189.200,227.600 189.573,227.600 190.029 C 227.600 190.914,226.734 192.000,226.029 192.000 C 225.793 192.000,225.600 192.193,225.600 192.429 C 225.600 192.982,224.582 194.000,224.029 194.000 C 223.793 194.000,223.600 194.193,223.600 194.429 C 223.600 194.982,222.582 196.000,222.029 196.000 C 221.793 196.000,221.600 196.186,221.600 196.413 C 221.600 196.940,211.723 206.800,211.195 206.800 C 210.978 206.800,210.800 206.993,210.800 207.229 C 210.800 207.782,209.782 208.800,209.229 208.800 C 208.993 208.800,208.800 208.993,208.800 209.229 C 208.800 209.782,207.782 210.800,207.229 210.800 C 206.993 210.800,206.800 210.981,206.800 211.203 C 206.800 211.424,205.540 212.863,204.000 214.400 C 202.460 215.937,201.186 217.421,201.168 217.697 C 201.149 218.012,201.049 217.975,200.902 217.600 C 200.773 217.270,199.887 216.242,198.934 215.315 C 197.980 214.388,197.200 213.443,197.200 213.215 C 197.200 212.987,197.007 212.800,196.771 212.800 C 196.218 212.800,195.200 211.782,195.200 211.229 C 195.200 210.993,195.007 210.800,194.771 210.800 C 194.218 210.800,193.200 209.782,193.200 209.229 C 193.200 208.993,193.007 208.800,192.771 208.800 C 192.218 208.800,191.200 207.782,191.200 207.229 C 191.200 206.993,191.013 206.800,190.785 206.800 C 190.557 206.800,189.536 205.945,188.517 204.900 C 187.498 203.855,186.515 203.045,186.332 203.100 C 186.150 203.155,186.000 203.013,186.000 202.785 C 186.000 202.557,185.190 201.583,184.200 200.621 C 183.210 199.659,182.400 198.675,182.400 198.436 C 182.400 198.196,182.207 198.000,181.971 198.000 C 181.418 198.000,180.400 196.982,180.400 196.429 C 180.400 196.193,180.207 196.000,179.971 196.000 C 179.398 196.000,178.400 194.975,178.400 194.386 C 178.400 194.127,178.130 194.018,177.800 194.145 C 177.435 194.285,177.200 194.145,177.200 193.787 C 177.200 193.464,177.020 193.200,176.800 193.200 C 176.580 193.200,176.397 192.885,176.393 192.500 C 176.389 192.115,175.939 191.376,175.393 190.858 C 174.847 190.340,174.400 189.755,174.400 189.558 C 174.400 189.361,174.130 189.200,173.800 189.200 C 173.427 189.200,173.200 188.822,173.200 188.200 C 173.200 187.650,173.020 187.200,172.800 187.200 C 172.580 187.200,172.400 186.750,172.400 186.200 C 172.400 185.578,172.173 185.200,171.800 185.200 C 171.427 185.200,171.200 184.822,171.200 184.200 C 171.200 183.650,171.020 183.200,170.800 183.200 C 170.580 183.200,170.400 182.654,170.400 181.987 C 170.400 181.279,170.151 180.679,169.800 180.545 C 169.409 180.395,169.200 179.772,169.200 178.757 C 169.200 177.901,169.020 177.200,168.800 177.200 C 168.551 177.200,168.400 174.933,168.400 171.200 C 168.400 167.467,168.551 165.200,168.800 165.200 C 169.020 165.200,169.200 164.409,169.200 163.443 C 169.200 162.250,169.393 161.612,169.800 161.455 C 170.177 161.311,170.400 160.699,170.400 159.813 C 170.400 159.036,170.580 158.400,170.800 158.400 C 171.020 158.400,171.200 157.950,171.200 157.400 C 171.200 156.778,171.427 156.400,171.800 156.400 C 172.157 156.400,172.400 156.033,172.400 155.495 C 172.400 154.996,172.849 154.253,173.400 153.839 C 173.950 153.426,174.400 152.753,174.400 152.344 C 174.400 151.935,174.591 151.600,174.824 151.600 C 175.057 151.600,175.136 151.420,175.000 151.200 C 174.864 150.980,174.955 150.800,175.202 150.800 C 175.449 150.800,176.984 149.450,178.613 147.800 C 180.242 146.150,181.760 144.800,181.987 144.800 C 182.214 144.800,182.400 144.530,182.400 144.200 C 182.400 143.867,182.756 143.600,183.200 143.600 C 183.640 143.600,184.000 143.420,184.000 143.200 C 184.000 142.980,184.450 142.800,185.000 142.800 C 185.622 142.800,186.000 142.573,186.000 142.200 C 186.000 141.870,186.270 141.600,186.600 141.600 C 186.930 141.600,187.200 141.420,187.200 141.200 C 187.200 140.980,187.830 140.800,188.600 140.800 C 189.578 140.800,190.000 140.619,190.000 140.200 C 190.000 139.783,190.420 139.600,191.376 139.600 C 192.133 139.600,192.864 139.420,193.000 139.200 C 193.136 138.980,194.052 138.800,195.036 138.800 C 196.257 138.800,196.898 138.610,197.055 138.200 C 197.237 137.726,198.067 137.600,201.000 137.600 C 203.933 137.600,204.763 137.726,204.945 138.200 M308.008 287.595 C 307.686 287.794,307.369 287.902,307.302 287.836 C 307.236 287.769,307.299 287.407,307.444 287.030 C 307.636 286.529,307.825 286.465,308.150 286.790 C 308.474 287.114,308.437 287.330,308.008 287.595 " stroke="none" fill="#f4941c" fill-rule="evenodd"></path><path id="path1" d="M59.498 97.994 C 59.114 98.442,58.800 99.167,58.800 99.605 C 58.800 100.045,58.532 100.400,58.200 100.400 C 57.521 100.400,57.505 103.188,58.181 103.674 C 58.737 104.073,59.200 103.666,59.200 102.776 C 59.200 102.349,59.425 101.995,59.700 101.990 C 60.329 101.977,61.707 99.049,61.526 98.110 C 61.332 97.103,60.311 97.045,59.498 97.994 M340.667 97.467 C 340.261 97.872,340.348 99.521,340.789 99.793 C 341.003 99.926,341.490 100.701,341.871 101.517 C 342.252 102.333,342.887 103.235,343.282 103.523 C 343.677 103.810,344.000 104.305,344.000 104.623 C 344.000 104.940,344.270 105.200,344.600 105.200 C 344.936 105.200,345.200 104.843,345.200 104.387 C 345.200 103.941,344.930 103.471,344.600 103.345 C 344.230 103.203,344.000 102.595,344.000 101.757 C 344.000 101.011,343.820 100.400,343.600 100.400 C 343.380 100.400,343.200 100.040,343.200 99.600 C 343.200 98.293,341.376 96.757,340.667 97.467 M56.800 104.957 C 56.800 105.757,57.890 106.064,58.167 105.342 C 58.508 104.452,58.477 104.400,57.600 104.400 C 57.160 104.400,56.800 104.651,56.800 104.957 M344.922 106.658 C 344.770 107.055,344.950 107.520,345.375 107.831 C 345.763 108.115,345.967 108.530,345.829 108.753 C 345.691 108.977,345.954 109.361,346.415 109.608 C 347.057 109.951,347.148 110.181,346.807 110.592 C 346.470 110.998,346.536 111.258,347.081 111.664 C 347.476 111.959,347.849 112.642,347.910 113.183 C 347.970 113.723,348.240 114.303,348.510 114.472 C 349.268 114.948,349.370 113.251,348.632 112.436 C 348.284 112.051,348.000 111.458,348.000 111.117 C 348.000 110.777,347.741 110.283,347.424 110.020 C 347.107 109.757,346.946 109.286,347.065 108.974 C 347.185 108.662,346.994 108.296,346.642 108.161 C 346.289 108.025,346.000 107.484,346.000 106.957 C 346.000 105.866,345.301 105.672,344.922 106.658 M56.000 107.000 C 56.000 107.330,56.270 107.600,56.600 107.600 C 56.930 107.600,57.200 107.330,57.200 107.000 C 57.200 106.670,56.930 106.400,56.600 106.400 C 56.270 106.400,56.000 106.670,56.000 107.000 M53.094 113.439 C 52.734 113.800,53.230 114.829,53.642 114.574 C 53.839 114.452,54.000 114.093,54.000 113.776 C 54.000 113.187,53.523 113.010,53.094 113.439 M348.600 115.600 C 348.265 116.142,348.717 116.800,349.424 116.800 C 349.741 116.800,350.000 116.440,350.000 116.000 C 350.000 115.172,349.035 114.896,348.600 115.600 M349.756 118.569 C 349.438 119.398,350.382 120.178,350.980 119.580 C 351.228 119.332,351.127 118.956,350.698 118.526 C 350.073 117.902,350.011 117.905,349.756 118.569 M350.800 121.787 C 350.800 122.144,351.035 122.285,351.398 122.146 C 351.726 122.019,351.896 121.755,351.774 121.558 C 351.425 120.993,350.800 121.140,350.800 121.787 M352.986 126.777 C 353.111 126.979,353.027 127.260,352.800 127.400 C 352.264 127.731,352.681 128.400,353.424 128.400 C 354.198 128.400,354.162 126.948,353.379 126.647 C 353.038 126.516,352.861 126.575,352.986 126.777 M353.738 131.417 C 353.436 132.204,353.793 132.565,354.576 132.265 C 354.928 132.130,355.086 131.769,354.950 131.415 C 354.647 130.625,354.042 130.626,353.738 131.417 M354.600 135.133 C 354.203 135.531,354.415 135.980,355.200 136.400 C 355.895 136.772,356.000 136.704,356.000 135.881 C 356.000 135.023,355.159 134.574,354.600 135.133 M355.873 139.060 C 355.221 139.712,355.606 141.200,356.427 141.200 C 357.098 141.200,357.203 141.031,356.982 140.300 C 356.640 139.170,356.227 138.707,355.873 139.060 M356.524 145.454 C 356.257 146.150,356.848 147.400,357.444 147.400 C 357.640 147.400,357.856 146.815,357.925 146.100 C 358.062 144.683,357.006 144.197,356.524 145.454 M44.160 147.360 C 44.014 147.742,44.092 148.252,44.334 148.494 C 44.654 148.814,44.846 148.745,45.040 148.240 C 45.186 147.858,45.108 147.348,44.866 147.106 C 44.546 146.786,44.354 146.855,44.160 147.360 M357.675 154.462 C 357.769 155.756,357.983 156.228,358.525 156.331 C 359.148 156.449,359.232 156.227,359.125 154.738 C 359.031 153.444,358.817 152.972,358.275 152.869 C 357.652 152.751,357.568 152.973,357.675 154.462 M312.493 155.600 C 312.493 156.370,312.575 156.685,312.676 156.300 C 312.776 155.915,312.776 155.285,312.676 154.900 C 312.575 154.515,312.493 154.830,312.493 155.600 M43.195 155.300 C 43.192 155.575,43.084 156.193,42.955 156.673 C 42.760 157.399,42.857 157.510,43.533 157.334 C 44.124 157.179,44.335 156.807,44.311 155.961 C 44.280 154.848,43.206 154.213,43.195 155.300 M42.909 159.600 C 42.909 160.590,42.987 160.995,43.082 160.500 C 43.178 160.005,43.178 159.195,43.082 158.700 C 42.987 158.205,42.909 158.610,42.909 159.600 M42.942 165.400 C 42.941 167.380,43.008 168.240,43.092 167.312 C 43.176 166.384,43.177 164.764,43.095 163.712 C 43.012 162.660,42.943 163.420,42.942 165.400 M234.509 169.200 C 234.509 170.190,234.587 170.595,234.682 170.100 C 234.778 169.605,234.778 168.795,234.682 168.300 C 234.587 167.805,234.509 168.210,234.509 169.200 M234.501 173.000 C 234.505 173.880,234.587 174.193,234.683 173.695 C 234.779 173.198,234.775 172.478,234.675 172.095 C 234.575 171.713,234.496 172.120,234.501 173.000 M42.881 178.313 C 42.801 183.591,43.061 184.627,44.281 183.874 C 44.844 183.526,44.382 179.600,43.778 179.600 C 43.372 179.600,43.198 178.753,43.098 176.300 C 42.999 173.892,42.941 174.436,42.881 178.313 M357.839 180.694 C 357.298 181.236,357.588 186.800,358.157 186.800 C 358.938 186.800,359.200 185.898,359.200 183.210 C 359.200 181.035,358.603 179.931,357.839 180.694 M312.493 186.800 C 312.493 187.570,312.575 187.885,312.676 187.500 C 312.776 187.115,312.776 186.485,312.676 186.100 C 312.575 185.715,312.493 186.030,312.493 186.800 M44.239 189.494 C 43.744 189.989,44.004 192.716,44.567 192.932 C 45.223 193.184,45.600 192.410,45.600 190.810 C 45.600 189.758,44.774 188.959,44.239 189.494 M356.574 190.959 C 356.202 192.444,356.528 193.778,357.300 193.925 C 357.892 194.038,358.000 193.746,358.000 192.029 C 358.000 189.825,357.040 189.104,356.574 190.959 M45.150 196.600 C 44.784 198.065,45.580 200.553,46.039 199.380 C 46.578 198.001,46.450 196.400,45.800 196.400 C 45.470 196.400,45.178 196.490,45.150 196.600 M355.853 196.717 C 355.645 197.058,355.495 198.664,355.556 199.900 C 355.581 200.408,355.858 200.800,356.192 200.800 C 356.850 200.800,357.228 199.579,357.090 197.905 C 357.005 196.864,356.222 196.113,355.853 196.717 M46.267 201.867 C 45.732 202.402,45.982 204.800,46.573 204.800 C 47.283 204.800,47.740 203.472,47.400 202.400 C 47.140 201.581,46.740 201.393,46.267 201.867 M354.900 202.287 C 354.224 202.530,354.264 204.989,354.953 205.561 C 355.614 206.110,356.000 205.383,356.000 203.591 C 356.000 202.363,355.695 202.002,354.900 202.287 M47.034 206.867 C 46.680 208.000,46.952 208.800,47.693 208.800 C 48.282 208.800,48.425 208.559,48.327 207.731 C 48.190 206.581,47.308 205.991,47.034 206.867 M353.574 207.869 C 353.263 208.687,353.303 209.075,353.745 209.517 C 354.808 210.580,355.625 209.174,354.957 207.433 C 354.595 206.488,354.031 206.666,353.574 207.869 M48.076 212.269 C 48.206 213.813,49.028 214.513,49.443 213.432 C 49.814 212.464,49.262 210.800,48.568 210.800 C 48.102 210.800,47.982 211.159,48.076 212.269 M352.558 211.766 C 352.163 212.794,352.573 214.600,353.200 214.600 C 353.620 214.600,353.837 214.090,353.923 212.900 C 354.047 211.180,353.088 210.384,352.558 211.766 M49.033 215.058 C 48.611 216.159,48.790 217.221,49.440 217.471 C 50.252 217.782,50.732 217.025,50.498 215.801 C 50.282 214.670,49.361 214.203,49.033 215.058 M351.875 215.458 C 351.221 216.112,351.605 217.600,352.427 217.600 C 353.087 217.600,353.228 217.386,353.127 216.531 C 353.000 215.461,352.393 214.941,351.875 215.458 M50.000 219.829 C 50.000 221.355,50.116 221.637,50.700 221.526 C 51.548 221.365,51.867 219.404,51.180 218.576 C 50.348 217.574,50.000 217.944,50.000 219.829 M350.815 218.982 C 350.153 219.780,350.455 221.364,351.300 221.525 C 351.859 221.632,352.000 221.376,352.000 220.253 C 352.000 218.657,351.516 218.138,350.815 218.982 M50.966 222.543 C 50.603 223.491,50.948 224.600,51.605 224.600 C 51.996 224.600,52.200 224.199,52.200 223.433 C 52.200 222.169,51.346 221.553,50.966 222.543 M349.646 222.867 C 349.451 223.380,349.445 223.991,349.632 224.224 C 349.836 224.478,349.648 224.924,349.160 225.342 C 348.218 226.148,348.297 227.331,349.305 227.525 C 349.857 227.631,350.000 227.374,350.000 226.272 C 350.000 225.382,350.225 224.799,350.627 224.645 C 351.031 224.490,351.209 224.024,351.127 223.333 C 350.962 221.944,350.098 221.671,349.646 222.867 M52.000 226.400 C 52.000 227.383,52.153 227.629,52.700 227.524 C 53.142 227.439,53.400 227.024,53.400 226.400 C 53.400 225.776,53.142 225.361,52.700 225.276 C 52.153 225.171,52.000 225.417,52.000 226.400 M52.872 229.265 C 53.039 231.012,54.200 231.135,54.200 229.405 C 54.200 228.568,53.982 228.169,53.472 228.071 C 52.867 227.954,52.766 228.155,52.872 229.265 M347.770 228.977 C 347.635 229.515,347.622 230.113,347.742 230.306 C 347.861 230.499,347.597 230.968,347.154 231.347 C 346.217 232.148,346.299 233.331,347.305 233.525 C 347.857 233.631,348.000 233.374,348.000 232.272 C 348.000 231.409,348.226 230.799,348.600 230.655 C 349.407 230.346,349.414 228.000,348.608 228.000 C 348.282 228.000,347.905 228.440,347.770 228.977 M54.000 232.200 C 54.000 233.114,54.189 233.600,54.545 233.600 C 54.910 233.600,55.026 233.929,54.898 234.600 C 54.683 235.722,55.572 235.998,56.356 235.053 C 56.701 234.637,56.665 234.386,56.205 234.004 C 55.872 233.728,55.600 233.179,55.600 232.784 C 55.600 231.637,55.160 230.800,54.557 230.800 C 54.187 230.800,54.000 231.270,54.000 232.200 M345.749 234.188 C 345.628 234.503,345.646 234.950,345.788 235.181 C 346.222 235.883,347.200 235.648,347.200 234.843 C 347.200 233.911,346.054 233.393,345.749 234.188 M56.000 237.171 C 56.000 237.847,56.180 238.400,56.400 238.400 C 56.620 238.400,56.800 238.850,56.800 239.400 C 56.800 239.950,56.980 240.400,57.200 240.400 C 57.420 240.400,57.600 240.766,57.600 241.213 C 57.600 242.123,58.650 242.710,59.234 242.126 C 59.474 241.886,59.256 241.072,58.640 239.914 C 58.105 238.907,57.607 237.661,57.533 237.145 C 57.320 235.644,56.000 235.666,56.000 237.171 M344.409 237.675 C 343.381 239.803,343.389 240.400,344.447 240.400 C 345.134 240.400,345.257 240.212,345.102 239.400 C 344.974 238.729,345.090 238.400,345.455 238.400 C 345.794 238.400,346.000 237.946,346.000 237.200 C 346.000 235.516,345.360 235.707,344.409 237.675 M342.600 241.200 C 342.265 241.742,342.717 242.400,343.424 242.400 C 343.741 242.400,344.000 242.040,344.000 241.600 C 344.000 240.772,343.035 240.496,342.600 241.200 M58.800 243.571 C 58.800 244.027,58.980 244.400,59.200 244.400 C 59.420 244.400,59.600 244.850,59.600 245.400 C 59.600 246.022,59.827 246.400,60.200 246.400 C 60.566 246.400,60.800 246.773,60.800 247.357 C 60.800 247.884,61.081 248.422,61.425 248.554 C 61.769 248.686,61.945 248.965,61.816 249.173 C 61.584 249.550,63.077 251.200,63.652 251.200 C 64.395 251.200,64.413 250.264,63.685 249.470 C 63.246 248.992,62.503 247.745,62.033 246.700 C 61.564 245.655,60.917 244.800,60.595 244.800 C 60.229 244.800,60.045 244.469,60.105 243.916 C 60.166 243.347,59.951 242.981,59.500 242.887 C 59.012 242.785,58.800 242.992,58.800 243.571 M341.675 243.495 C 341.876 244.538,343.200 244.654,343.200 243.629 C 343.200 243.057,342.943 242.800,342.371 242.800 C 341.798 242.800,341.583 243.015,341.675 243.495 M340.592 245.213 C 340.437 245.464,340.498 245.858,340.728 246.088 C 341.266 246.626,342.519 246.157,342.300 245.500 C 342.077 244.831,340.946 244.641,340.592 245.213 M338.669 249.210 C 338.048 250.524,337.400 251.600,337.230 251.600 C 337.060 251.600,336.597 252.320,336.200 253.200 C 335.803 254.080,335.367 254.800,335.230 254.800 C 335.094 254.800,334.648 255.419,334.241 256.177 C 333.833 256.934,333.252 257.648,332.950 257.764 C 332.634 257.885,332.405 258.533,332.413 259.287 C 332.424 260.464,332.480 260.528,332.957 259.900 C 333.249 259.515,333.616 259.200,333.773 259.200 C 334.353 259.200,335.200 258.030,335.200 257.229 C 335.200 256.759,335.460 256.400,335.800 256.400 C 336.130 256.400,336.400 256.130,336.400 255.800 C 336.400 255.470,336.580 255.200,336.800 255.200 C 337.020 255.200,337.200 254.750,337.200 254.200 C 337.200 253.650,337.405 253.200,337.656 253.200 C 338.257 253.200,339.171 251.972,339.187 251.143 C 339.194 250.781,339.490 250.374,339.845 250.238 C 340.255 250.081,340.415 249.699,340.283 249.195 C 340.148 248.680,340.273 248.400,340.637 248.400 C 340.947 248.400,341.200 248.040,341.200 247.600 C 341.200 245.901,339.819 246.780,338.669 249.210 M63.600 252.372 C 63.600 252.841,63.860 253.200,64.200 253.200 C 64.573 253.200,64.800 253.578,64.800 254.200 C 64.800 254.750,64.980 255.200,65.200 255.200 C 65.420 255.200,65.600 255.470,65.600 255.800 C 65.600 256.130,65.870 256.400,66.200 256.400 C 66.530 256.400,66.806 256.715,66.813 257.100 C 66.828 257.965,67.729 259.200,68.344 259.200 C 68.595 259.200,68.800 259.380,68.800 259.600 C 68.800 259.820,69.070 260.000,69.400 260.000 C 70.370 260.000,70.095 259.108,68.612 257.441 C 67.849 256.584,67.312 255.742,67.419 255.569 C 67.526 255.396,67.240 254.994,66.785 254.674 C 66.329 254.355,65.819 253.578,65.651 252.947 C 65.272 251.520,63.600 251.052,63.600 252.372 M69.600 261.144 C 69.600 261.515,70.320 262.440,71.200 263.200 C 72.080 263.960,72.800 264.901,72.800 265.291 C 72.800 265.681,72.950 266.000,73.132 266.000 C 73.315 266.000,73.698 266.435,73.982 266.966 C 74.266 267.498,74.874 268.031,75.332 268.150 C 75.790 268.270,76.046 268.487,75.902 268.632 C 75.628 268.906,76.528 270.000,77.027 270.000 C 77.184 270.000,77.542 270.315,77.823 270.699 C 78.571 271.722,79.069 270.936,78.383 269.815 C 78.062 269.290,76.765 267.769,75.500 266.433 C 74.235 265.097,73.200 263.767,73.200 263.477 C 73.200 262.815,71.000 260.676,70.198 260.559 C 69.869 260.510,69.600 260.774,69.600 261.144 M330.236 261.631 C 329.114 262.964,328.981 263.417,329.600 263.800 C 329.820 263.936,330.000 263.857,330.000 263.624 C 330.000 263.391,330.188 263.200,330.417 263.200 C 331.198 263.200,332.507 261.656,332.264 261.022 C 331.911 260.101,331.391 260.257,330.236 261.631 M326.748 266.121 C 325.746 267.068,324.804 268.328,324.656 268.921 C 324.507 269.515,324.118 270.000,323.792 270.000 C 323.467 270.000,323.200 270.270,323.200 270.600 C 323.200 270.930,323.049 271.200,322.865 271.200 C 322.681 271.200,320.656 273.114,318.365 275.453 C 316.074 277.792,313.705 280.162,313.100 280.719 C 312.495 281.276,312.000 281.890,312.000 282.083 C 312.000 282.276,311.646 282.813,311.214 283.277 C 310.238 284.325,310.601 285.104,311.630 284.173 C 312.043 283.799,312.285 283.337,312.167 283.147 C 312.049 282.956,312.246 282.800,312.605 282.800 C 313.343 282.800,314.400 281.875,314.400 281.229 C 314.400 280.993,314.582 280.800,314.805 280.800 C 315.329 280.800,319.427 276.695,319.298 276.300 C 319.244 276.135,319.403 276.000,319.652 276.000 C 320.324 276.000,324.432 271.593,324.307 271.005 C 324.203 270.511,327.502 267.200,328.100 267.200 C 328.265 267.200,328.400 266.930,328.400 266.600 C 328.400 266.270,328.580 266.000,328.800 266.000 C 329.020 266.000,329.200 265.640,329.200 265.200 C 329.200 264.040,328.787 264.195,326.748 266.121 M84.400 278.200 C 84.400 278.530,84.640 278.800,84.932 278.800 C 85.225 278.800,85.706 279.250,86.000 279.800 C 86.294 280.350,86.744 280.800,87.000 280.800 C 87.256 280.800,87.706 281.250,88.000 281.800 C 88.294 282.350,88.775 282.800,89.068 282.800 C 89.360 282.800,89.600 282.984,89.600 283.208 C 89.600 283.742,103.458 297.600,103.992 297.600 C 104.216 297.600,104.400 297.775,104.400 297.988 C 104.400 298.535,109.451 303.600,109.997 303.600 C 110.245 303.600,110.336 303.780,110.200 304.000 C 110.064 304.220,110.233 304.400,110.576 304.400 C 110.919 304.400,111.200 304.670,111.200 305.000 C 111.200 305.330,111.470 305.600,111.800 305.600 C 112.130 305.600,112.355 305.743,112.300 305.918 C 112.174 306.320,118.279 312.400,118.808 312.400 C 119.024 312.400,119.200 312.582,119.200 312.804 C 119.200 313.346,135.032 329.200,135.574 329.200 C 135.808 329.200,136.000 329.390,136.000 329.622 C 136.000 330.162,149.852 344.000,150.393 344.000 C 150.617 344.000,150.800 344.193,150.800 344.429 C 150.800 344.982,151.818 346.000,152.371 346.000 C 152.607 346.000,152.800 346.187,152.800 346.416 C 152.800 346.967,157.822 352.000,158.371 352.000 C 158.607 352.000,158.800 352.188,158.800 352.418 C 158.800 352.648,159.242 353.278,159.782 353.818 C 160.322 354.358,160.952 354.800,161.182 354.800 C 161.412 354.800,161.600 354.993,161.600 355.229 C 161.600 355.778,166.633 360.800,167.184 360.800 C 167.413 360.800,167.600 360.974,167.600 361.186 C 167.600 361.716,183.448 377.600,183.977 377.600 C 184.210 377.600,184.400 377.787,184.400 378.015 C 184.400 378.541,198.283 392.400,198.809 392.400 C 199.024 392.400,199.200 392.593,199.200 392.829 C 199.200 393.641,200.346 394.400,201.571 394.400 C 202.247 394.400,202.800 394.220,202.800 394.000 C 202.800 393.780,203.070 393.600,203.400 393.600 C 203.730 393.600,204.000 393.407,204.000 393.171 C 204.000 392.650,205.005 391.600,205.504 391.600 C 205.702 391.600,206.106 391.150,206.400 390.600 C 206.694 390.050,207.205 389.600,207.534 389.600 C 207.864 389.600,208.036 389.503,207.917 389.384 C 207.647 389.113,212.090 384.577,212.500 384.706 C 212.665 384.758,212.800 384.560,212.800 384.268 C 212.800 383.975,213.250 383.494,213.800 383.200 C 214.350 382.906,214.800 382.456,214.800 382.200 C 214.800 381.944,215.250 381.494,215.800 381.200 C 216.350 380.906,216.800 380.502,216.800 380.304 C 216.800 379.805,217.850 378.800,218.371 378.800 C 218.607 378.800,218.800 378.607,218.800 378.371 C 218.800 377.850,219.805 376.800,220.304 376.800 C 220.502 376.800,220.906 376.350,221.200 375.800 C 221.494 375.250,221.944 374.800,222.200 374.800 C 222.456 374.800,222.906 374.350,223.200 373.800 C 223.494 373.250,223.975 372.800,224.268 372.800 C 224.560 372.800,224.758 372.665,224.706 372.500 C 224.577 372.090,229.113 367.647,229.384 367.917 C 229.503 368.036,229.600 367.864,229.600 367.534 C 229.600 367.205,230.050 366.694,230.600 366.400 C 231.150 366.106,231.600 365.691,231.600 365.478 C 231.600 365.266,232.050 364.675,232.600 364.165 C 233.711 363.135,233.894 362.400,233.039 362.400 C 232.730 362.400,225.633 369.240,217.268 377.600 C 208.903 385.960,201.817 392.800,201.522 392.800 C 201.227 392.800,188.529 380.335,173.303 365.100 C 134.662 326.436,89.287 281.257,87.499 279.668 C 86.674 278.935,86.000 278.170,86.000 277.968 C 86.000 277.765,85.640 277.600,85.200 277.600 C 84.756 277.600,84.400 277.867,84.400 278.200 M308.626 285.958 C 308.504 286.155,308.674 286.419,309.002 286.546 C 309.365 286.685,309.600 286.544,309.600 286.187 C 309.600 285.540,308.975 285.393,308.626 285.958 M307.405 287.060 C 307.254 287.467,306.054 288.700,304.737 289.800 C 300.956 292.960,281.200 312.532,281.200 313.118 C 281.200 313.408,275.890 318.970,269.400 325.477 C 262.910 331.985,257.600 337.555,257.600 337.855 C 257.600 338.766,258.563 338.468,259.661 337.216 C 260.232 336.565,260.812 336.145,260.950 336.283 C 261.087 336.421,261.200 336.264,261.200 335.934 C 261.200 335.605,261.650 335.094,262.200 334.800 C 262.750 334.506,263.200 334.102,263.200 333.904 C 263.200 333.405,264.250 332.400,264.771 332.400 C 265.007 332.400,265.200 332.207,265.200 331.971 C 265.200 331.736,265.457 331.286,265.771 330.971 C 266.086 330.657,266.536 330.400,266.771 330.400 C 267.007 330.400,267.200 330.207,267.200 329.971 C 267.200 329.450,268.205 328.400,268.704 328.400 C 268.902 328.400,269.306 327.950,269.600 327.400 C 269.894 326.850,270.375 326.400,270.668 326.400 C 270.960 326.400,271.200 326.223,271.200 326.006 C 271.200 325.790,272.553 324.260,274.206 322.606 C 275.860 320.953,277.390 319.600,277.606 319.600 C 277.823 319.600,278.000 319.360,278.000 319.068 C 278.000 318.775,278.450 318.294,279.000 318.000 C 279.550 317.706,280.000 317.302,280.000 317.104 C 280.000 316.605,281.050 315.600,281.571 315.600 C 281.807 315.600,282.000 315.330,282.000 315.000 C 282.000 314.670,282.180 314.400,282.400 314.400 C 282.620 314.400,282.800 313.950,282.800 313.400 C 282.800 312.834,283.031 312.400,283.332 312.400 C 283.625 312.400,284.106 311.950,284.400 311.401 C 284.694 310.851,285.009 310.476,285.101 310.567 C 285.336 310.803,286.800 309.281,286.800 308.800 C 286.800 308.580,287.030 308.400,287.312 308.400 C 287.593 308.400,288.083 308.040,288.400 307.600 C 288.717 307.160,289.207 306.800,289.488 306.800 C 289.770 306.800,290.000 306.530,290.000 306.200 C 290.000 305.870,290.180 305.600,290.400 305.600 C 290.620 305.600,290.800 305.330,290.800 305.000 C 290.800 304.670,291.025 304.445,291.300 304.500 C 291.575 304.555,291.755 304.375,291.700 304.100 C 291.645 303.825,291.870 303.600,292.200 303.600 C 292.530 303.600,292.800 303.319,292.800 302.976 C 292.800 302.633,292.980 302.464,293.200 302.600 C 293.420 302.736,293.600 302.567,293.600 302.224 C 293.600 301.881,293.758 301.600,293.951 301.600 C 294.478 301.600,297.600 298.560,297.600 298.047 C 297.600 297.801,297.801 297.600,298.047 297.600 C 298.560 297.600,301.600 294.478,301.600 293.951 C 301.600 293.758,301.881 293.600,302.224 293.600 C 302.567 293.600,302.740 293.427,302.609 293.214 C 302.278 292.679,306.749 288.321,307.287 288.654 C 307.540 288.810,307.610 288.739,307.453 288.486 C 307.305 288.246,307.502 287.869,307.892 287.649 C 308.427 287.348,308.487 287.136,308.140 286.785 C 307.791 286.432,307.613 286.498,307.405 287.060 " stroke="none" fill="#fc9c31" fill-rule="evenodd"></path></g></svg>