<svg width="48" height="48" xmlns="http://www.w3.org/2000/svg" data-name="Layer 1">
 <g>
  <title>Layer 1</title>
  <g stroke="null" id="surface1">
   <path stroke="null" d="m29.27171,26.90562c0.00799,-0.11974 0.01596,-0.23945 0.02395,-0.35919c-0.01596,0.07182 -0.02395,0.14366 -0.02395,0.21551l0,0.14366l0,0.00002zm0,0" fill-rule="nonzero" fill="#000000" id="svg_1"/>
   <path stroke="null" d="m31.86583,36.37212c-0.18357,0.18357 -0.439,0.28735 -0.7024,0.28735c-0.2634,0 -0.51085,-0.10378 -0.7024,-0.28735c1.59637,1.55646 4.18251,1.55646 5.7789,0c1.59637,-1.54847 1.59637,-4.07077 0,-5.62725c-0.39113,-0.37515 -1.01372,-0.37515 -1.40481,0c-0.38314,0.38314 -0.38314,0.98977 0,1.3649c0.54276,0.51883 0.75028,1.2771 0.55872,1.9875c-0.19156,0.71039 -0.76626,1.26115 -1.49261,1.4527c-0.72633,0.19156 -1.50857,-0.01598 -2.03537,-0.54278c0.38314,0.37517 0.38314,0.98977 0,1.3649l-0.00002,0.00002zm0,0" fill-rule="nonzero" fill="#000000" id="svg_2"/>
   <path stroke="null" d="m30.46102,35.00722c-0.38314,0.37517 -0.38314,0.98977 0,1.3649c0.39113,0.37515 1.0137,0.37515 1.40481,0c0.38314,-0.37515 0.38314,-0.98975 0,-1.3649c-0.19156,-0.18357 -0.439,-0.27936 -0.7024,-0.27936c-0.2634,0 -0.51883,0.09579 -0.7024,0.27936zm0,0" fill-rule="nonzero" fill="#000000" id="svg_3"/>
   <path stroke="null" d="m46.19333,19.44254c-1.16536,-1.13342 -2.91338,-1.47663 -4.43795,-0.87002c-1.52453,0.6146 -2.52227,2.05934 -2.53026,3.6637c0.01598,-0.5268 0.46297,-0.94983 1.00573,-0.94186c0.54278,0 0.98179,0.43902 0.97378,0.97382c0,-0.00799 0,-0.00799 0,-0.01598c0,-0.92588 0.63855,-1.73206 1.55646,-1.97152c0.91791,-0.23945 1.89171,0.15165 2.36265,0.94983c0.47893,0.80618 0.34323,1.81989 -0.32723,2.4744c-0.39113,0.37517 -0.39113,0.98977 0,1.3649c0.38314,0.37515 1.0137,0.37515 1.39682,0c1.59637,-1.55646 1.59637,-4.07077 0,-5.62725l0,-0.00002zm0,0" fill-rule="nonzero" fill="#000000" id="svg_4"/>
   <path stroke="null" d="m26.0151,38.63101c-0.54278,0 -0.98977,-0.43103 -0.98977,-0.96581l0,1.8997c0,1.61233 0.99776,3.05706 2.52229,3.67966c1.52453,0.6146 3.28056,0.27137 4.4539,-0.87002c0.36716,-0.37515 0.35919,-0.97378 -0.02395,-1.34895c-0.37517,-0.36716 -0.98977,-0.37515 -1.38086,-0.01596c-0.59865,0.59066 -1.50857,0.76626 -2.29083,0.44699c-0.79021,-0.31927 -1.30105,-1.0616 -1.30105,-1.89171l0,-1.8997c0,0.53479 -0.439,0.96581 -0.98975,0.96581l0.00002,-0.00002zm0,0" fill-rule="nonzero" fill="#000000" id="svg_5"/>
   <path stroke="null" d="m27.01283,37.66519c0,0.53479 -0.44699,0.96581 -0.99774,0.96581c-0.54278,0 -0.98977,-0.43103 -0.98977,-0.96581c0,-0.5268 0.44699,-0.96579 0.98977,-0.96579c0.55075,0 0.99774,0.439 0.99774,0.96579zm0,0" fill-rule="nonzero" fill="#000000" id="svg_6"/>
   <path stroke="null" d="m34.45197,21.19057c-0.54278,0.00799 -0.99776,-0.41506 -1.00573,-0.94983c0.01596,1.8518 1.54847,3.34441 3.44817,3.35238c0.54276,-0.01596 0.97378,-0.44699 0.97378,-0.96579c0,-0.5268 -0.43103,-0.95782 -0.97378,-0.96581c-0.80616,0 -1.46069,-0.64652 -1.46866,-1.42876c0,-0.00797 0,-0.00797 0,-0.00797c0.00797,0.5268 -0.43103,0.96579 -0.97378,0.96579l0,-0.00002zm0,0" fill-rule="nonzero" fill="#000000" id="svg_7"/>
   <path stroke="null" d="m34.43599,19.25895c-0.54276,0 -0.98975,0.439 -0.98975,0.96581c0,0.00797 0,0.01596 0,0.01596c0.00797,0.53479 0.45496,0.95782 0.99774,0.94983c0.55075,0 0.98975,-0.439 0.98179,-0.96579c0,-0.53479 -0.44699,-0.96581 -0.98977,-0.96581zm0,0" fill-rule="nonzero" fill="#000000" id="svg_8"/>
   <path stroke="null" d="m22.21571,38.63101c-0.53477,0 -0.98175,-0.42304 -0.98975,-0.94186c0,0 0,0.00799 0,0.01596l0,1.85979c0,0.83011 -0.51085,1.57242 -1.29306,1.89171c-0.79021,0.31927 -1.69218,0.14366 -2.29083,-0.44699c-0.39111,-0.37515 -1.0137,-0.37515 -1.40481,0c-0.38314,0.37517 -0.38314,0.98977 0,1.3649c1.17334,1.14141 2.92936,1.48462 4.4539,0.87002c1.52453,-0.62259 2.52229,-2.07528 2.52229,-3.67966l0,-1.85979c0,-0.00797 0,-0.01596 0,-0.01596c-0.01598,0.5268 -0.45498,0.94985 -0.99776,0.94186l0.00002,0.00002zm0,0" fill-rule="nonzero" fill="#000000" id="svg_9"/>
   <path stroke="null" d="m23.20548,37.68913c0,-0.5268 -0.439,-0.94983 -0.98977,-0.94983c-0.54276,0 -0.98975,0.42304 -0.98975,0.94983c0,0.51883 0.44699,0.94186 0.98975,0.94186c0.55077,0 0.98977,-0.42304 0.98977,-0.94186zm0,0" fill-rule="nonzero" fill="#000000" id="svg_10"/>
   <path stroke="null" d="m16.54859,37.03462c-0.39113,-0.37515 -0.39113,-0.98977 0,-1.3649c-0.53479,0.51883 -1.30904,0.72635 -2.03539,0.54278c-0.73432,-0.19156 -1.30105,-0.7503 -1.49261,-1.46069c-0.19156,-0.71037 0.01598,-1.46067 0.55077,-1.97951c0.39111,-0.37515 0.39111,-0.98975 0,-1.3649c-0.38314,-0.37515 -1.01372,-0.37515 -1.39684,0c-1.59637,1.55646 -1.59637,4.07077 0,5.62725c1.59637,1.54847 4.18251,1.54847 5.77091,0c-0.18357,0.1756 -0.439,0.27936 -0.69442,0.27936c-0.2634,0 -0.51883,-0.10376 -0.7024,-0.27936l-0.00002,-0.00002zm0,0" fill-rule="nonzero" fill="#000000" id="svg_11"/>
   <path stroke="null" d="m17.94541,35.66972c-0.38314,-0.38314 -1.0137,-0.38314 -1.39682,0c-0.39113,0.37515 -0.39113,0.98977 0,1.3649c0.38314,0.37515 1.0137,0.37515 1.39682,0c0.19156,-0.18357 0.29532,-0.43103 0.29532,-0.68645c0,-0.25541 -0.10376,-0.50286 -0.29532,-0.67846zm0,0" fill-rule="nonzero" fill="#000000" id="svg_12"/>
   <path stroke="null" d="m11.55191,27.48828c-0.00797,-0.53477 0.43103,-0.96579 0.97382,-0.97378c-1.02169,0.00799 -2.00346,-0.37515 -2.74577,-1.06959c-0.73434,-0.69442 -1.1494,-1.65225 -1.16538,-2.64998c0,0 0,-0.00799 0,-0.00799c0,0.00799 0,0.01598 0,0.02395c0,0.53479 -0.439,0.96581 -0.98975,0.96581c-0.54278,0 -0.98179,-0.43103 -0.98977,-0.95782c0.03993,3.12092 2.64201,5.61926 5.84276,5.62723l0.06385,0c-0.54278,-0.00797 -0.98179,-0.43101 -0.98977,-0.95782l0.00002,-0.00002zm0,0" fill-rule="nonzero" fill="#000000" id="svg_13"/>
   <path stroke="null" d="m13.53142,27.46436c-0.00797,-0.52682 -0.44699,-0.94985 -0.98975,-0.94985l-0.01596,0c-0.54278,0 -0.98179,0.43103 -0.98179,0.96581c0,0.53479 0.44699,0.96579 0.99774,0.96579l0.01596,0c0.54278,-0.00797 0.98179,-0.44699 0.97378,-0.98175l0.00002,0zm0,0" fill-rule="nonzero" fill="#000000" id="svg_14"/>
   <path stroke="null" d="m19.69344,19.82566c0,0 0,0.00799 0.00799,0.00799l-0.03194,-0.02395l0.02395,0.01596zm0,0" fill-rule="nonzero" fill="#000000" id="svg_15"/>
   <path stroke="null" d="m14.01833,21.19057l-0.01598,0c-0.54276,0 -0.98179,-0.439 -0.97378,-0.96579c0,0 0,0 0,0.00797c-0.00799,0.78224 -0.6625,1.42876 -1.46866,1.42876c-0.54276,0.00799 -0.97378,0.43902 -0.97378,0.96581c0,0.51881 0.43103,0.94983 0.97378,0.96579c1.89171,-0.00797 3.43221,-1.50058 3.44817,-3.34439c-0.01596,0.5268 -0.45498,0.94184 -0.98975,0.94184l0,0.00002zm0,0" fill-rule="nonzero" fill="#000000" id="svg_16"/>
   <path stroke="null" d="m14.01833,19.25895c-0.54278,0.00799 -0.97382,0.439 -0.98179,0.96581c0,0.51881 0.42304,0.95782 0.96579,0.96579l0.01598,0c0.53477,0 0.97378,-0.41506 0.98975,-0.94184c0,-0.00799 0,-0.01598 0,-0.02395c0,-0.52682 -0.44699,-0.96581 -0.98975,-0.96581l0.00002,0zm0,0" fill-rule="nonzero" fill="#000000" id="svg_17"/>
   <path stroke="null" d="m18.11303,13.504c0.55075,0 0.99774,0.43103 0.99774,0.96581c0,-2.74577 2.28282,-4.96475 5.09246,-4.97272c-0.53479,-0.00799 -0.96581,-0.43902 -0.96581,-0.96581c0,-0.51883 0.43103,-0.94983 0.96581,-0.95782c-3.90315,0 -7.07993,3.089 -7.07993,6.89636c0,-0.53479 0.44699,-0.96581 0.98975,-0.96581l-0.00002,-0.00002zm0,0" fill-rule="nonzero" fill="#000000" id="svg_18"/>
   <path stroke="null" d="m19.11075,14.46982c0,0.53479 -0.44699,0.96581 -0.99774,0.96581c-0.54276,0 -0.98975,-0.43103 -0.98975,-0.96581c0,-0.53479 0.44699,-0.96581 0.98975,-0.96581c0.55075,0 0.99774,0.43103 0.99774,0.96581zm0,0" fill-rule="nonzero" fill="#000000" id="svg_19"/>
   <path stroke="null" d="m25.19298,8.53929c0,0.5268 -0.43902,0.96579 -0.98977,0.95782c2.81761,0.00797 5.10043,2.22693 5.10043,4.97272c0.01598,-0.5268 0.45498,-0.94983 0.98977,-0.94983c0.54276,0 0.98179,0.42304 0.98975,0.94983c0,-3.80736 -3.17678,-6.89636 -7.07993,-6.89636c0.55075,-0.00799 0.99774,0.43103 0.98977,0.96581l-0.00002,0.00002zm0,0" fill-rule="nonzero" fill="#000000" id="svg_20"/>
   <path stroke="null" d="m31.28314,14.46982c0,0.53479 -0.439,0.96581 -0.98975,0.96581c-0.54278,0 -0.98977,-0.43103 -0.98977,-0.96581c0,-0.53479 0.44699,-0.96581 0.98977,-0.96581c0.55075,0 0.98975,0.43103 0.98975,0.96581zm0,0" fill-rule="nonzero" fill="#000000" id="svg_21"/>
   <path stroke="null" d="m25.19298,8.53929c0,0.5268 -0.43902,0.95782 -0.98977,0.95782c-0.54276,0 -0.98975,-0.43103 -0.98975,-0.95782c0,-0.53479 0.44699,-0.96581 0.98975,-0.96581c0.55075,0 0.98977,0.43103 0.98977,0.96581zm0,0" fill-rule="nonzero" fill="#000000" id="svg_22"/>
   <path stroke="null" d="m34.43599,19.25895c0.55075,0 0.98977,0.43103 0.98977,0.96581c0,0 0,-0.00799 0,-0.00799c-0.03194,-2.21896 -1.8997,-3.99892 -4.18251,-3.96701c-0.06385,0 -0.12771,0.00799 -0.19953,0.00799c0.15962,-0.58269 0.23943,-1.18131 0.23943,-1.78795c0.00799,0.35122 -0.17558,0.67846 -0.4869,0.85406c-0.31128,0.1756 -0.69442,0.1756 -1.00571,0c-0.3113,-0.1756 -0.49489,-0.50286 -0.48692,-0.85406c0.00799,1.30904 -0.5268,2.57017 -1.47663,3.49607l-1.1015,1.07755l-1.11748,-1.09351l1.08554,-1.06162c0.65451,-0.63855 1.02968,-1.50857 1.02169,-2.41851c0.00799,0.35122 -0.1756,0.67846 -0.4869,0.85406c-0.31128,0.1756 -0.69442,0.1756 -1.00573,0c-0.30331,-0.1756 -0.49489,-0.50286 -0.4869,-0.85406c0,0.3991 -0.15962,0.77425 -0.44699,1.05363l-1.08554,1.0616l-1.07755,-1.05363c-0.28735,-0.27936 -0.45498,-0.6625 -0.44699,-1.0616c0.00797,0.35122 -0.18359,0.67846 -0.49489,0.85406c-0.31128,0.1756 -0.69442,0.1756 -0.99774,0c-0.3113,-0.1756 -0.50288,-0.50286 -0.49489,-0.85406c0,0.90992 0.37515,1.77996 1.02968,2.4265l1.08554,1.05363l-1.11748,1.09351l-0.59066,-0.5747l-0.49489,-0.4869c-0.95782,-0.92588 -1.49261,-2.19502 -1.49261,-3.51202c0.00799,0.35122 -0.18357,0.67846 -0.4869,0.85406c-0.31128,0.1756 -0.69442,0.1756 -1.00573,0c-0.31128,-0.1756 -0.49487,-0.50286 -0.4869,-0.85406c-0.00797,0.60664 0.07184,1.20526 0.23147,1.78795c-0.04787,-0.00799 -0.10376,-0.01596 -0.15962,-0.01596c-2.27483,-0.02395 -4.15058,1.74804 -4.18251,3.97498c0,0 0,0 0,0.00799c0.01598,-0.52682 0.45498,-0.94985 0.99776,-0.94186c0.54276,0 0.98175,0.42304 0.98975,0.94186c0,0.00797 0,0.01596 0,0.02395c0,-0.00799 0,-0.00799 0,-0.00799c0,-0.55874 0.23945,-1.08554 0.64654,-1.46866c0.40709,-0.39113 0.95782,-0.59865 1.52453,-0.59865c0.56671,0.00799 1.10949,0.23147 1.5006,0.63056l1.02169,1.02968l0.58267,0.56671l-1.08554,1.06162c-0.05586,0.04787 -0.10376,0.10376 -0.15962,0.15962c-0.02395,0.02395 -0.05588,0.03991 -0.07983,0.06385l-3.71956,3.68765c-0.71037,0.71836 -1.68419,1.12545 -2.71383,1.14141l0.01596,0c0.53479,0.00799 0.97378,0.43103 0.97378,0.95782c0.00799,0.5268 -0.42304,0.95782 -0.96579,0.97378c1.55644,-0.01596 3.03312,-0.63855 4.11065,-1.7241l0.46297,-0.45496l0.04787,-0.04789c0,0.03991 -0.00797,8.00583 -0.00797,8.00583c0,0.54276 -0.2235,1.0616 -0.6146,1.44472c0.38314,-0.35919 0.99774,-0.3512 1.38086,0.01596c0.38314,0.36718 0.39111,0.96581 0.01596,1.34895c0.77425,-0.7503 1.19729,-1.75603 1.19729,-2.81761l0,-3.06505c0.59865,0.59865 1.30902,1.08554 2.08327,1.44472l0,5.06851c0,0.00799 0,0.01598 0,0.02395c0.00799,-0.5268 0.45498,-0.94983 0.98975,-0.94983c0.53479,0 0.97382,0.42304 0.98977,0.94983c0,-0.00797 0,-0.01596 0,-0.02395l0,-4.50178c0.59865,0.0878 1.21325,0.09577 1.81987,0.02395l0,4.47783c0.00799,-0.51881 0.44699,-0.94184 0.98977,-0.94184c0.54276,0 0.98179,0.42304 0.98975,0.94184l0,-4.99667c0.84609,-0.35919 1.61235,-0.87002 2.25887,-1.51656l0,2.41054c0,1.05363 0.43103,2.06731 1.19729,2.80962c-0.38314,-0.37515 -0.38314,-0.98975 0,-1.3649c0.39113,-0.37515 1.0137,-0.37515 1.40481,0c-0.3991,-0.38314 -0.62259,-0.90193 -0.6146,-1.44472l0,-6.52918c0.02395,-0.23147 0.03192,-0.46295 0.03192,-0.69444c0,-0.02393 0,-0.04787 0,-0.07182c1.06959,1.02169 2.50633,1.60434 4.00691,1.62032c-0.55075,0 -0.98975,-0.43902 -0.98975,-0.97382c0.00797,-0.5268 0.45496,-0.95782 0.99774,-0.95782l0.01596,0c-1.02968,-0.00797 -2.00346,-0.42304 -2.72182,-1.14141l-3.44018,-3.41624c0,-0.00799 -0.00799,-0.00799 -0.01598,-0.01598l-0.98975,-0.96579l1.62032,-1.61235c0.3991,-0.39111 0.94184,-0.62257 1.50857,-0.62257l0.02395,0c1.17334,0 2.13116,0.91791 2.14712,2.05932c0,0 0,-0.00799 0,-0.01596c0,-0.52682 0.44699,-0.96581 0.98975,-0.96581l0.00004,0zm-10.23279,0.05586l1.12545,1.08554l-1.12545,1.09353l-1.11746,-1.09353l1.11746,-1.08554zm5.10043,7.02407c0,0.07184 -0.00797,0.14368 -0.00797,0.20754c-0.00799,0.11972 -0.01596,0.23943 -0.02395,0.35919c-0.30331,2.50631 -2.4744,4.39802 -5.06851,4.39802c-2.61007,0 -4.77317,-1.92362 -5.06052,-4.39802c-0.02395,-0.19156 -0.03194,-0.38314 -0.03194,-0.56673c0,-0.07981 0.00799,-0.14366 0.00799,-0.22348c0.04789,-1.2372 0.58269,-2.41851 1.48462,-3.29652l1.07757,-1.05363l1.12545,1.09353l-1.08554,1.0616c-0.6625,0.63855 -1.02968,1.50857 -1.02968,2.41851c0.00799,-0.5268 0.45498,-0.94983 0.98977,-0.94983c0.54276,0 0.98175,0.42304 0.98975,0.94983c0,-0.3991 0.16761,-0.77423 0.45498,-1.05361l1.07755,-1.0616l1.08554,1.05361c0.28735,0.27936 0.44699,0.6625 0.44699,1.0616c0.00799,-0.5268 0.45498,-0.94983 0.98977,-0.94983c0.54276,0 0.98175,0.42304 0.98975,0.94983c0,-0.90992 -0.36718,-1.77996 -1.02968,-2.4265l-1.08554,-1.05361l1.12547,-1.09353l1.08554,1.0616c0.95782,0.9259 1.49259,2.19502 1.49259,3.51202l-0.00004,0zm0,0" fill-rule="nonzero" fill="#000000" id="svg_23"/>
   <path stroke="null" d="m21.68094,13.504c0.55075,0 0.98975,0.43103 0.98975,0.96581c0,-0.83011 0.68645,-1.49261 1.53252,-1.49261c0.84607,0 1.53252,0.6625 1.53252,1.49261c0.01596,-0.5268 0.45498,-0.94983 0.98977,-0.94983c0.54276,0 0.98175,0.42304 0.98975,0.94983c0,-1.89171 -1.57242,-3.42422 -3.51202,-3.42422c-1.9396,0 -3.51202,1.53252 -3.51202,3.42422c0,-0.53479 0.44699,-0.96581 0.98977,-0.96581l-0.00004,0zm0,0" fill-rule="nonzero" fill="#000000" id="svg_24"/>
   <path stroke="null" d="m27.71525,14.46982c0,0.53479 -0.439,0.96581 -0.98975,0.96581c-0.54278,0 -0.98977,-0.43103 -0.98977,-0.96581c0,-0.53479 0.44699,-0.96581 0.98977,-0.96581c0.55075,0 0.98975,0.43103 0.98975,0.96581zm0,0" fill-rule="nonzero" fill="#000000" id="svg_25"/>
   <path stroke="null" d="m22.67069,14.46982c0,0.53479 -0.439,0.96581 -0.98975,0.96581c-0.54278,0 -0.98977,-0.43103 -0.98977,-0.96581c0,-0.53479 0.44699,-0.96581 0.98977,-0.96581c0.55075,0 0.98975,0.43103 0.98975,0.96581zm0,0" fill-rule="nonzero" fill="#000000" id="svg_26"/>
   <path stroke="null" d="m26.7255,27.30471c-0.54278,0 -0.98977,-0.43103 -0.98977,-0.96581c0,0.82214 -0.68645,1.49261 -1.53252,1.49261c-0.84607,0 -1.53252,-0.67047 -1.53252,-1.49261c0.00799,0.35122 -0.1756,0.67848 -0.4869,0.85406c-0.31128,0.1756 -0.69442,0.1756 -1.00573,0c-0.30331,-0.17558 -0.49489,-0.50286 -0.4869,-0.85406c0,1.89173 1.57242,3.42424 3.51202,3.42424c1.9396,0 3.51202,-1.53252 3.51202,-3.42424c0,0.53479 -0.439,0.96581 -0.98975,0.96581l0.00004,0zm0,0" fill-rule="nonzero" fill="#000000" id="svg_27"/>
   <path stroke="null" d="m22.67069,26.33889c0,0.53479 -0.439,0.96581 -0.98975,0.96581c-0.54278,0 -0.98977,-0.43103 -0.98977,-0.96581c0,-0.53477 0.44699,-0.96579 0.98977,-0.96579c0.55075,0 0.98975,0.43103 0.98975,0.96579zm0,0" fill-rule="nonzero" fill="#000000" id="svg_28"/>
   <path stroke="null" d="m27.71525,26.33889c0,0.53479 -0.439,0.96581 -0.98975,0.96581c-0.54278,0 -0.98977,-0.43103 -0.98977,-0.96581c0,-0.53477 0.44699,-0.96579 0.98977,-0.96579c0.55075,0 0.98975,0.43103 0.98975,0.96579zm0,0" fill-rule="nonzero" fill="#000000" id="svg_29"/>
   <path stroke="null" d="m7.60887,21.8451c0.54276,-0.00799 0.99774,0.41506 1.00571,0.94184c-0.00797,-1.79592 -1.26113,-3.36037 -3.04111,-3.82332c-1.78795,-0.45498 -3.6637,0.31128 -4.58159,1.86776c-0.91791,1.55646 -0.64654,3.52001 0.65451,4.78913c0.38314,0.38314 1.0137,0.38314 1.40481,0c0.38314,-0.37515 0.38314,-0.98179 0,-1.3649c-0.67846,-0.65451 -0.81415,-1.66821 -0.33524,-2.46641c0.47891,-0.80616 1.44472,-1.19729 2.36265,-0.95782c0.91789,0.23945 1.55644,1.05363 1.55644,1.97951c0,0 0,0.00799 0,0.00799c0,-0.53479 0.43103,-0.96581 0.97382,-0.97378zm0,0" fill-rule="nonzero" fill="#000000" id="svg_30"/>
   <path stroke="null" d="m7.62483,23.77671c0.55075,0 0.98975,-0.43103 0.98975,-0.96581c0,-0.00797 0,-0.01596 0,-0.02395c-0.00797,-0.5268 -0.46295,-0.94983 -1.00571,-0.94184c-0.54278,0.00797 -0.97382,0.44699 -0.97382,0.97378c0.00799,0.53479 0.44699,0.95782 0.98977,0.95782zm0,0" fill-rule="nonzero" fill="#000000" id="svg_31"/>
   <path stroke="null" d="m40.2149,23.21797c-0.54278,0 -0.98977,-0.43103 -0.98977,-0.95782c0,-0.00799 0,-0.01596 0,-0.02395c0,0 0,0.00799 0,0.00799c-0.02395,2.05932 -1.74804,3.71157 -3.86323,3.71157l-0.04789,0c0.55075,0.00799 0.98977,0.43902 0.98179,0.97382c0,0.53479 -0.44699,0.96579 -0.98977,0.95782l0.05588,0c3.20073,0 5.80283,-2.50633 5.84274,-5.61926c0,0.5268 -0.44699,0.94983 -0.98975,0.94983l0.00002,0zm0,0" fill-rule="nonzero" fill="#000000" id="svg_32"/>
   <path stroke="null" d="m36.2878,26.93753c0.00799,-0.25541 -0.09577,-0.50286 -0.27936,-0.68643c-0.18357,-0.18359 -0.43101,-0.28735 -0.69442,-0.29534l-0.01596,0c-0.54278,0 -0.98977,0.43103 -0.99774,0.95782c0,0.53479 0.439,0.97382 0.98975,0.97382l0.01596,0c0.53479,0 0.97382,-0.42304 0.98179,-0.94985l-0.00002,-0.00002zm0,0" fill-rule="nonzero" fill="#000000" id="svg_33"/>
   <path stroke="null" d="m40.23085,21.29432c-0.54276,-0.00797 -0.98975,0.41508 -1.00573,0.94186c0,0.00799 0,0.01596 0,0.02395c0,0.5268 0.44699,0.95782 0.98977,0.95782c0.55075,0.00799 0.99774,-0.42304 0.99774,-0.95782c0.00799,-0.53479 -0.439,-0.96581 -0.98179,-0.96581zm0,0" fill-rule="nonzero" fill="#000000" id="svg_34"/>
  </g>
 </g>

</svg>