<svg width="23.999999999999996" height="23.999999999999996" xmlns="http://www.w3.org/2000/svg" version="1.1">
 <g>
  <title>Layer 1</title>
  <g id="svgg" stroke="null" fill="currentColor">
   <path fill-rule="evenodd" d="m11.20111,0.86582c0,0.01506 -0.11498,0.02458 -0.29577,0.02458c-0.24016,0 -0.29835,0.00694 -0.30985,0.03687c-0.01082,0.02814 -0.05703,0.03687 -0.19591,0.03687c-0.12899,0 -0.18172,0.00891 -0.18172,0.03073c0.00006,0.02206 -0.04855,0.02956 -0.17207,0.02661c-0.13403,-0.00319 -0.17207,0.00363 -0.17207,0.03073c0,0.02544 -0.03325,0.03484 -0.12291,0.03484c-0.0676,0 -0.12291,0.01106 -0.12291,0.02458c0,0.01352 -0.05014,0.02458 -0.11141,0.02458c-0.07633,0 -0.11584,0.01161 -0.12549,0.03687c-0.00928,0.02415 -0.04763,0.03687 -0.11129,0.03687c-0.0585,0 -0.09113,0.00977 -0.08198,0.02458c0.00934,0.01518 -0.03251,0.02458 -0.10914,0.02458c-0.09415,0 -0.12438,0.00897 -0.12438,0.03687c0,0.02661 -0.02728,0.03687 -0.09833,0.03687c-0.05408,0 -0.09833,0.01106 -0.09833,0.02458c0,0.01352 -0.03355,0.02458 -0.07454,0.02458c-0.04351,0 -0.08038,0.0153 -0.08861,0.03687c-0.0078,0.02028 -0.04062,0.03687 -0.073,0.03687c-0.03232,0 -0.05881,0.01106 -0.05881,0.02458c0,0.01352 -0.03737,0.02458 -0.08302,0.02458c-0.04566,0 -0.09679,0.01659 -0.11362,0.03687c-0.01684,0.02028 -0.05138,0.03687 -0.07675,0.03687c-0.02538,0 -0.04615,0.01106 -0.04615,0.02458c0,0.01352 -0.03398,0.02458 -0.07553,0.02458c-0.04148,0 -0.09218,0.01671 -0.11258,0.03712c-0.0204,0.0204 -0.04671,0.03116 -0.05844,0.02385c-0.01174,-0.00725 -0.03288,0.00824 -0.04689,0.03447c-0.0169,0.03165 -0.0421,0.04326 -0.07497,0.03466c-0.03392,-0.00885 -0.04947,-0.00092 -0.04947,0.02538c0,0.02544 -0.01696,0.03509 -0.05039,0.02864c-0.02864,-0.00553 -0.05629,0.00572 -0.06409,0.026c-0.0075,0.01967 -0.04136,0.0357 -0.07516,0.0357c-0.04154,0 -0.05727,0.01076 -0.04867,0.03325c0.00885,0.02304 -0.00498,0.03134 -0.0448,0.02692c-0.03165,-0.00344 -0.06354,0.00922 -0.07079,0.02821c-0.00731,0.01899 -0.03085,0.03454 -0.05236,0.03454c-0.02477,0 -0.03232,0.01131 -0.02065,0.03073c0.01395,0.02323 0.00891,0.02298 -0.02071,-0.00104c-0.02249,-0.01819 -0.04283,-0.02163 -0.04775,-0.00799c-0.00467,0.01309 -0.02452,0.02735 -0.04413,0.03177c-0.01954,0.00436 -0.05948,0.03288 -0.0888,0.0633c-0.02931,0.03042 -0.07694,0.05531 -0.10582,0.05531c-0.03023,0 -0.05248,0.01561 -0.05248,0.03687c0,0.02089 -0.02206,0.03687 -0.05095,0.03687c-0.05439,0 -0.12113,0.05322 -0.12113,0.09654c0,0.0145 -0.02765,0.02636 -0.06145,0.02636c-0.0338,0 -0.06145,0.01106 -0.06145,0.02458c0,0.01352 -0.02765,0.02458 -0.06145,0.02458c-0.03822,0 -0.06145,0.01395 -0.06145,0.03687c0,0.02028 -0.01254,0.03687 -0.02784,0.03687c-0.0153,0 -0.04892,0.02428 -0.07466,0.05402c-0.02581,0.02968 -0.06151,0.05617 -0.0794,0.05875c-0.05033,0.00737 -0.1368,0.08991 -0.121,0.11547c0.00811,0.01315 -0.00818,0.01579 -0.03829,0.00621c-0.03607,-0.01143 -0.05697,-0.00461 -0.06717,0.02194c-0.00811,0.02126 -0.02544,0.03859 -0.03847,0.03859c-0.03189,0 -0.09396,0.06379 -0.09396,0.09654c0,0.0145 -0.02765,0.02636 -0.06145,0.02636c-0.0338,0 -0.06145,0.01106 -0.06145,0.02458c0,0.01352 -0.01659,0.02458 -0.03687,0.02458c-0.02028,0 -0.03687,0.01186 -0.03687,0.02636c0,0.03398 -0.06256,0.09654 -0.09654,0.09654c-0.0145,0 -0.02636,0.01186 -0.02636,0.02636c0,0.04332 -0.06674,0.09654 -0.12113,0.09654c-0.02888,0 -0.05095,0.01598 -0.05095,0.03687c0,0.02028 -0.01727,0.03687 -0.03835,0.03687c-0.02108,0 -0.03146,0.01106 -0.02311,0.02458c0.00836,0.01352 -0.00203,0.02458 -0.02311,0.02458c-0.02108,0 -0.03835,0.01659 -0.03835,0.03687c0,0.02028 -0.01186,0.03687 -0.02636,0.03687c-0.03398,0 -0.09654,0.06256 -0.09654,0.09654c0,0.0145 -0.01727,0.02636 -0.03835,0.02636c-0.02108,0 -0.03146,0.01106 -0.02311,0.02458c0.00836,0.01352 0.0035,0.02458 -0.01082,0.02458c-0.0354,0 -0.12383,0.09064 -0.10595,0.10859c0.00786,0.00786 0.00061,0.01432 -0.0161,0.01432c-0.03737,0 -0.10066,0.06072 -0.10066,0.09654c0,0.0145 -0.01186,0.02636 -0.02636,0.02636c-0.03398,0 -0.09654,0.06256 -0.09654,0.09654c0,0.0145 -0.01186,0.02636 -0.02636,0.02636c-0.03398,0 -0.09654,0.06256 -0.09654,0.09654c0,0.0145 -0.01659,0.02636 -0.03687,0.02636c-0.02028,0 -0.03687,0.01727 -0.03687,0.03835c0,0.02108 -0.01106,0.03146 -0.02458,0.02311c-0.01395,-0.0086 -0.02458,0.01204 -0.02458,0.04769c0,0.03958 -0.0137,0.06293 -0.03687,0.06293c-0.02028,0 -0.03687,0.01149 -0.03687,0.0255c0,0.01401 -0.05236,0.07639 -0.11639,0.13864c-0.06403,0.06219 -0.11658,0.12708 -0.11676,0.14411c-0.00018,0.01709 -0.04185,0.07141 -0.09255,0.1207c-0.0507,0.04929 -0.09218,0.10686 -0.09218,0.12795c0,0.02102 -0.02778,0.0601 -0.0617,0.08677c-0.03392,0.02673 -0.05537,0.05875 -0.04769,0.07116c0.00768,0.01242 -0.00325,0.02261 -0.02434,0.02261c-0.02452,0 -0.03835,0.02219 -0.03835,0.06145c0,0.0338 -0.01186,0.06145 -0.02636,0.06145c-0.04332,0 -0.09654,0.06674 -0.09654,0.12113c0,0.02888 -0.01598,0.05095 -0.03687,0.05095c-0.02028,0 -0.03687,0.01659 -0.03687,0.03687c0,0.02028 -0.01106,0.03687 -0.02458,0.03687c-0.01352,0 -0.02458,0.02765 -0.02458,0.06145c0,0.03822 -0.01395,0.06145 -0.03687,0.06145c-0.02317,0 -0.03687,0.02335 -0.03687,0.06293c0,0.03564 -0.01063,0.05629 -0.02458,0.04769c-0.01352,-0.00836 -0.02458,0.00203 -0.02458,0.02311c0,0.02108 -0.01088,0.03835 -0.02409,0.03835c-0.01327,0 -0.0311,0.02765 -0.03958,0.06145c-0.00848,0.0338 -0.02526,0.06145 -0.0373,0.06145c-0.0121,0 -0.02194,0.02765 -0.02194,0.06145c0,0.04019 -0.01376,0.06145 -0.03976,0.06145c-0.02765,0 -0.03583,0.015 -0.02686,0.04922c0.00799,0.03054 -0.00258,0.05795 -0.02784,0.07221c-0.03263,0.01844 -0.0346,0.02919 -0.01001,0.05402c0.0534,0.05389 -0.01487,0.28945 -0.08431,0.29098c-0.01598,0.00031 -0.03257,0.0255 -0.03687,0.05592c-0.00528,0.03693 -0.02219,0.05291 -0.05089,0.04805c-0.04597,-0.00768 -0.06059,0.03417 -0.01702,0.04867c0.01426,0.00479 0.01893,0.0271 0.01026,0.04965c-0.00867,0.02255 -0.03029,0.03546 -0.04812,0.02858c-0.01776,-0.00682 -0.03964,-0.00055 -0.04855,0.01389c-0.00891,0.01444 -0.00455,0.02624 0.00977,0.02624c0.01432,0 0.02606,0.01659 0.02606,0.03687c0,0.02028 -0.01579,0.03687 -0.03515,0.03687c-0.01936,0 -0.03896,0.02489 -0.04363,0.05531c-0.00461,0.03042 -0.022,0.05254 -0.03853,0.04916c-0.01745,-0.00357 -0.03017,0.01985 -0.03017,0.05531c0,0.0338 -0.01106,0.06145 -0.02458,0.06145c-0.01352,0 -0.02458,0.04357 -0.02458,0.09685c0,0.09679 -0.03386,0.15216 -0.05739,0.09378c-0.00688,-0.01696 -0.01334,-0.0011 -0.01438,0.03528c-0.0011,0.03638 -0.01303,0.073 -0.02655,0.08136c-0.01352,0.00836 -0.02458,0.05328 -0.02458,0.0998c0,0.05875 -0.01125,0.08456 -0.03687,0.08456c-0.02673,0 -0.03687,0.02747 -0.03687,0.0998c0,0.06023 -0.00971,0.09372 -0.02458,0.08456c-0.01456,-0.00903 -0.02458,0.01936 -0.02458,0.06969c0,0.05272 -0.01395,0.09021 -0.03687,0.099c-0.02446,0.00934 -0.03687,0.04799 -0.03687,0.11467c0,0.07393 -0.00818,0.09568 -0.03073,0.0821c-0.01788,-0.01076 -0.01536,0.00086 0.00615,0.02784c0.02151,0.02698 0.02403,0.03859 0.00615,0.02784c-0.02249,-0.01352 -0.03073,0.0075 -0.03073,0.07872c0,0.06366 -0.01272,0.10201 -0.03687,0.11129c-0.02526,0.00965 -0.03687,0.04916 -0.03687,0.12549c0,0.06127 -0.01106,0.11141 -0.02458,0.11141c-0.01352,0 -0.02329,0.0083 -0.02169,0.01844c0.01758,0.11098 -0.00774,0.27654 -0.04222,0.27654c-0.03386,0 -0.03822,0.03319 -0.03153,0.23967c0.00578,0.17883 0.00012,0.23813 -0.02225,0.23352c-0.02249,-0.00467 -0.02796,0.0609 -0.022,0.26327c0.00633,0.2154 0.00104,0.27088 -0.02636,0.2766c-0.0279,0.00572 -0.03435,0.09654 -0.03484,0.4864c-0.00104,0.84578 0.00067,0.88493 0.03871,0.88493c0.0373,0 0.06766,0.24059 0.03312,0.26191c-0.01014,0.00627 -0.01844,0.08818 -0.01844,0.18203c0,0.09384 0.0083,0.1693 0.01844,0.1677c0.0585,-0.00928 0.07989,0.01069 0.07989,0.0746c0,0.08364 -0.02286,0.15351 -0.0456,0.13938c-0.00873,-0.00541 -0.0121,0.04314 -0.00756,0.10791c0.00737,0.10355 0.01426,0.11621 0.05715,0.10496c0.04646,-0.01217 0.04799,-0.0043 0.03146,0.16309c-0.01524,0.15492 -0.01266,0.1741 0.02176,0.16088c0.05082,-0.01948 0.08032,0.08825 0.0432,0.15763c-0.04123,0.077 -0.03325,0.1465 0.01635,0.14257c0.03675,-0.00295 0.04204,0.01543 0.03613,0.12561c-0.00541,0.10177 0.00098,0.12905 0.03023,0.12905c0.05248,0 0.07534,0.11479 0.03712,0.1862c-0.01752,0.03276 -0.02446,0.06692 -0.01543,0.07596c0.00903,0.00903 0.01641,0.00387 0.01641,-0.01149c0,-0.01536 0.01543,-0.02194 0.03435,-0.01475c0.04093,0.01573 0.0644,0.11688 0.0373,0.16076c-0.01186,0.01924 -0.00104,0.04388 0.02827,0.06447c0.05051,0.03534 0.066,0.16365 0.02298,0.19026c-0.03952,0.0244 -0.02833,0.05629 0.01844,0.0526c0.03423,-0.00276 0.04246,0.01506 0.04038,0.08677c-0.00197,0.06858 0.00836,0.0931 0.04302,0.10219c0.0507,0.01327 0.06219,0.1017 0.0169,0.12973c-0.01893,0.01168 -0.00952,0.02495 0.02728,0.03859c0.04535,0.01671 0.05408,0.0349 0.04535,0.09427c-0.00694,0.04732 -0.00012,0.0735 0.01918,0.0735c0.03325,0 0.05986,0.0542 0.05986,0.12192c0,0.02428 0.01709,0.05826 0.03792,0.07559c0.0263,0.02182 0.03005,0.03933 0.01229,0.05709c-0.03792,0.03792 -0.03146,0.05771 0.02353,0.07208c0.02888,0.00756 0.04916,0.03355 0.04916,0.06299c0,0.02759 0.02765,0.10219 0.06145,0.16574c0.04332,0.08155 0.05408,0.12444 0.03632,0.14577c-0.01825,0.022 -0.01094,0.03392 0.02679,0.04381c0.03939,0.01033 0.04799,0.02581 0.03577,0.06447c-0.01155,0.03644 -0.00541,0.05089 0.02176,0.05089c0.02151,0 0.06065,0.05057 0.09034,0.11676c0.02888,0.06422 0.07503,0.14134 0.10257,0.17133c0.04013,0.04369 0.04419,0.06176 0.02046,0.09027c-0.02421,0.02925 -0.0196,0.03718 0.0255,0.04375c0.03656,0.00534 0.06133,0.03171 0.07381,0.07854c0.01033,0.03878 0.04166,0.08652 0.06969,0.10613c0.02796,0.01967 0.04554,0.04437 0.03896,0.055c-0.00658,0.01063 0.02643,0.06238 0.07332,0.11504c0.0931,0.10465 0.10797,0.15726 0.04431,0.15726c-0.05519,0 -0.03061,0.02145 0.03632,0.03165c0.06274,0.00959 0.20132,0.13483 0.20132,0.18203c0,0.01782 0.06219,0.0982 0.13821,0.17858c0.18307,0.19364 0.21207,0.23801 0.19358,0.29627c-0.011,0.03466 -0.0043,0.04892 0.02298,0.04892c0.0212,0 0.03853,0.01186 0.03853,0.02636c0,0.03441 0.04959,0.08253 0.10797,0.10465c0.02562,0.00971 0.03995,0.02421 0.03189,0.03226c-0.01837,0.01844 0.03036,0.06766 0.08905,0.08991c0.02452,0.00928 0.03761,0.02814 0.02913,0.04191c-0.00867,0.01401 0.01764,0.03165 0.05986,0.04013c0.04148,0.0083 0.0754,0.02385 0.0754,0.0346c0,0.01069 0.04142,0.05635 0.09212,0.1014c0.10988,0.09765 2.89832,2.87404 5.27293,5.25007c0.93568,0.93624 1.71602,1.70225 1.73415,1.70225c0.01813,0 0.45358,-0.42034 0.96764,-0.93409c0.51405,-0.51375 0.95019,-0.93409 0.96918,-0.93409c0.01899,0 0.03447,-0.01174 0.03447,-0.02606c0,-0.01432 0.01106,-0.01918 0.02458,-0.01082c0.01352,0.00836 0.02458,-0.00203 0.02458,-0.02311c0,-0.02108 0.01204,-0.03835 0.02679,-0.03835c0.01469,0 0.07516,-0.04978 0.13428,-0.11062c0.05912,-0.06084 0.12014,-0.11062 0.13563,-0.11062c0.01549,0 0.02176,-0.01659 0.01395,-0.03687c-0.0086,-0.02243 0,-0.03687 0.022,-0.03687c0.01985,0 0.03607,-0.01106 0.03607,-0.02458c0,-0.01352 0.01659,-0.02458 0.03687,-0.02458c0.02028,0 0.03687,-0.01186 0.03687,-0.02636c0,-0.03398 0.06256,-0.09654 0.09654,-0.09654c0.0145,0 0.02636,-0.01659 0.02636,-0.03687c0,-0.02028 0.01106,-0.03687 0.02458,-0.03687c0.01352,0 0.02458,-0.01776 0.02458,-0.03952c0,-0.02501 0.01352,-0.03429 0.03687,-0.02532c0.02028,0.00774 0.03687,0.00301 0.03687,-0.01057c0,-0.01364 0.04978,-0.07313 0.11062,-0.13225c0.06084,-0.05912 0.11062,-0.11959 0.11062,-0.13428c0,-0.01475 0.01659,-0.02679 0.03687,-0.02679c0.02028,0 0.03411,-0.01383 0.03073,-0.03073c-0.00338,-0.0169 0.00768,-0.02796 0.02458,-0.02458c0.0169,0.00338 0.03073,-0.01045 0.03073,-0.03073c0,-0.02028 0.01413,-0.03687 0.03146,-0.03687c0.01727,0 0.04738,-0.02212 0.06686,-0.04916c0.01948,-0.02704 0.04922,-0.04916 0.06612,-0.04916c0.01715,0 0.02446,-0.01622 0.01653,-0.03687c-0.00897,-0.02335 0.00031,-0.03687 0.02532,-0.03687c0.02176,0 0.03952,-0.01106 0.03952,-0.02458c0,-0.01352 0.01659,-0.02458 0.03687,-0.02458c0.02028,0 0.03687,-0.01659 0.03687,-0.03687c0,-0.02028 0.01088,-0.03687 0.02409,-0.03687c0.01327,0 0.03097,-0.02722 0.03933,-0.06053c0.00867,-0.0346 0.32515,-0.37136 0.73793,-0.78519c0.39748,-0.39859 0.72269,-0.73928 0.72269,-0.7571c0,-0.03116 1.15544,-1.18132 1.43727,-1.43069c0.17736,-0.15695 0.19591,-0.13759 0.02397,0.02501c-0.073,0.06901 -0.13661,0.12149 -0.14147,0.1167c-0.00479,-0.00485 -0.00879,0.00676 -0.00879,0.02575c0,0.01899 0.01475,0.02888 0.03282,0.02194c0.01801,-0.00688 0.03276,-0.02243 0.03276,-0.03454c0,-0.01204 0.0153,-0.02194 0.03398,-0.02194c0.01874,0 0.04001,-0.02292 0.04738,-0.05101c0.00731,-0.02802 0.03521,-0.05672 0.06201,-0.06373c0.02679,-0.00701 0.05445,-0.03466 0.06145,-0.06145c0.00701,-0.02679 0.03466,-0.05445 0.06145,-0.06145c0.05131,-0.0134 0.09224,-0.1065 0.04689,-0.1065c-0.0145,0 -0.01801,-0.0083 -0.0078,-0.01844c0.01026,-0.01014 0.04253,-0.01844 0.07172,-0.01844c0.03583,0 0.05396,-0.01598 0.05574,-0.04916c0.00357,-0.06803 0.03484,-0.1352 0.06287,-0.1352c0.01291,0 0.01709,0.01033 0.00928,0.02286c-0.00774,0.0126 -0.00387,0.02925 0.00873,0.03705c0.01291,0.00793 0.01813,-0.01604 0.01198,-0.05506c-0.0083,-0.05254 0.00553,-0.08431 0.05739,-0.13206c0.03761,-0.0346 0.1835,-0.18055 0.32429,-0.32429c0.14079,-0.14374 0.26523,-0.26136 0.27654,-0.26136c0.01131,0 0.02059,-0.01659 0.02059,-0.03687c0,-0.02028 0.01641,-0.03687 0.03638,-0.03687c0.02003,0 0.04381,-0.02944 0.05285,-0.06545c0.01635,-0.06508 0.1403,-0.20163 0.24581,-0.27076c0.03042,-0.01991 0.04984,-0.05045 0.0432,-0.06778c-0.01684,-0.04381 0.11234,-0.19161 0.15357,-0.17582c0.0244,0.0094 0.03355,-0.01057 0.03355,-0.07313c0,-0.05033 0.01401,-0.09144 0.0338,-0.099c0.01856,-0.00713 0.05426,-0.05101 0.07933,-0.09752c0.02501,-0.04658 0.05242,-0.08462 0.06078,-0.08462c0.00842,0 0.03521,-0.04425 0.05961,-0.09833c0.0244,-0.05408 0.05285,-0.09833 0.0633,-0.09833c0.01045,0 0.05027,-0.06612 0.08843,-0.14687c0.04812,-0.10164 0.0837,-0.14712 0.11553,-0.14749c0.03749,-0.00049 0.0405,-0.00725 0.01635,-0.03638c-0.03884,-0.04683 -0.00805,-0.09476 0.05101,-0.07927c0.04867,0.01272 0.06397,-0.01868 0.02182,-0.04474c-0.04455,-0.02753 -0.02581,-0.08603 0.02759,-0.08603c0.04289,0 0.04689,-0.00639 0.02249,-0.03577c-0.03398,-0.04093 -0.01456,-0.08714 0.03662,-0.08714c0.02077,0 0.02895,-0.01481 0.02046,-0.03693c-0.01622,-0.04234 0.07799,-0.25804 0.11264,-0.25804c0.01266,0 0.02089,-0.03042 0.01831,-0.0676c-0.00375,-0.05463 0.00461,-0.066 0.0432,-0.05924c0.04056,0.00701 0.04308,0.00252 0.01641,-0.02956c-0.03712,-0.04474 -0.01659,-0.12801 0.03662,-0.14841c0.02059,-0.00793 0.03017,-0.02618 0.02132,-0.04056c-0.02667,-0.04308 0.011,-0.14626 0.0534,-0.14626c0.03165,0 0.03355,-0.00701 0.00977,-0.0357c-0.03595,-0.04332 -0.01352,-0.12629 0.03958,-0.14669c0.02716,-0.01039 0.0314,-0.02391 0.01419,-0.04529c-0.03558,-0.04413 0.00934,-0.15001 0.05605,-0.13206c0.0408,0.01567 0.05076,-0.02194 0.0121,-0.04584c-0.03564,-0.02206 -0.03017,-0.12456 0.00842,-0.15658c0.01813,-0.01506 0.0397,-0.02059 0.04793,-0.01235c0.00824,0.00824 0.01278,-0.03337 0.01001,-0.09243c-0.00406,-0.08886 0.00252,-0.10674 0.0381,-0.10392c0.04677,0.00369 0.05795,-0.02821 0.01844,-0.0526c-0.04812,-0.02974 -0.02882,-0.18786 0.02458,-0.20181c0.05266,-0.01376 0.06545,-0.07933 0.02366,-0.12113c-0.01739,-0.01739 -0.01758,-0.04634 -0.00061,-0.09095c0.02655,-0.06981 0.06323,-0.08505 0.08358,-0.03472c0.00682,0.0169 0.01327,0.00098 0.01432,-0.0354c0.0011,-0.03638 -0.00909,-0.073 -0.02261,-0.08136c-0.01352,-0.00836 -0.02458,-0.05328 -0.02458,-0.0998c0,-0.07786 0.01936,-0.09802 0.08278,-0.08652c0.0118,0.00215 0.01297,-0.03798 0.00264,-0.08923c-0.03478,-0.17293 -0.01297,-0.28588 0.05057,-0.26154c0.0424,0.01628 0.05328,-0.14989 0.01149,-0.17576c-0.05445,-0.03362 -0.02065,-0.23352 0.03952,-0.23352c0.02255,0 0.03423,-0.02858 0.03423,-0.08401c0,-0.04615 0.01383,-0.08954 0.03073,-0.09636c0.01794,-0.00725 0.01248,-0.01321 -0.01334,-0.01432c-0.03902,-0.00172 -0.0432,-0.02366 -0.03687,-0.19247c0.00627,-0.16562 0.01278,-0.18958 0.05021,-0.18325c0.07239,0.0121 0.06569,-1.48274 -0.0067,-1.50167c-0.0475,-0.01242 -0.04898,-0.0255 -0.03312,-0.2868c0.01297,-0.21288 0.00983,-0.27218 -0.01401,-0.2664c-0.05383,0.01297 -0.09144,-0.07159 -0.0566,-0.12739c0.05353,-0.08567 0.03988,-0.24624 -0.02095,-0.24624c-0.04781,0 -0.05021,-0.00891 -0.03398,-0.12678c0.01561,-0.11381 0.01174,-0.13114 -0.0381,-0.16875c-0.04812,-0.03626 -0.05119,-0.1175 -0.00332,-0.08794c0.00946,0.00584 0.01321,-0.0314 0.0083,-0.08272c-0.00737,-0.07718 -0.0169,-0.09126 -0.05494,-0.08136c-0.04173,0.01094 -0.04468,0.00067 -0.03159,-0.10988c0.01327,-0.11209 0.00995,-0.12303 -0.04173,-0.13655c-0.04074,-0.01069 -0.04978,-0.02353 -0.03282,-0.04671c0.04314,-0.05887 0.04222,-0.16881 -0.00129,-0.15216c-0.0212,0.00818 -0.03859,0.00344 -0.03859,-0.01057c0,-0.01395 0.01936,-0.03048 0.04302,-0.03662c0.04099,-0.01069 0.04099,-0.01137 0,-0.01413c-0.02925,-0.00191 -0.04302,-0.02335 -0.04302,-0.06692c0,-0.04683 -0.00989,-0.06029 -0.03687,-0.0499c-0.02317,0.00885 -0.03687,-0.00025 -0.03687,-0.02458c0,-0.02268 0.01395,-0.03337 0.03362,-0.02587c0.02704,0.01039 0.02827,0.00166 0.00645,-0.04455c-0.01493,-0.03165 -0.03282,-0.05709 -0.03976,-0.05654c-0.06539,0.00504 -0.07534,-0.00995 -0.06016,-0.09089c0.01285,-0.06833 0.0083,-0.08603 -0.022,-0.08603c-0.05328,0 -0.07528,-0.0448 -0.04179,-0.08511c0.02151,-0.02594 0.0193,-0.03871 -0.00952,-0.05481c-0.02059,-0.01155 -0.04056,-0.04843 -0.04437,-0.08192c-0.00375,-0.03343 -0.02636,-0.0754 -0.05027,-0.09322c-0.02452,-0.01831 -0.03552,-0.04505 -0.02526,-0.06145c0.0327,-0.05236 0.02728,-0.08425 -0.01383,-0.08118c-0.02452,0.00178 -0.03779,-0.01285 -0.0338,-0.03724c0.00363,-0.02212 -0.01106,-0.04701 -0.0327,-0.05531c-0.02944,-0.01131 -0.03521,-0.03355 -0.02304,-0.08886c0.01266,-0.05764 0.00774,-0.07375 -0.02261,-0.07375c-0.02138,0 -0.03884,-0.01598 -0.03884,-0.03546c0,-0.01954 -0.01985,-0.04996 -0.04413,-0.0676c-0.02428,-0.0177 -0.0633,-0.07313 -0.08671,-0.12328c-0.02341,-0.05014 -0.05334,-0.09777 -0.06649,-0.10595c-0.03116,-0.01924 -0.03097,-0.12752 0.00031,-0.14681c0.03429,-0.0212 0.02065,-0.13907 -0.01456,-0.12555c-0.01739,0.0067 -0.02415,-0.00615 -0.01727,-0.03263c0.00633,-0.02403 -0.00602,-0.06115 -0.02735,-0.08247c-0.02132,-0.02132 -0.03878,-0.05617 -0.03878,-0.07737c0,-0.02126 -0.01106,-0.03865 -0.02458,-0.03865c-0.01352,0 -0.02458,-0.02765 -0.02458,-0.06145c0,-0.03822 -0.01395,-0.06145 -0.03687,-0.06145c-0.02028,0 -0.03687,-0.01659 -0.03687,-0.03687c0,-0.02028 -0.01106,-0.03687 -0.02458,-0.03687c-0.01352,0 -0.02458,-0.02059 -0.02458,-0.04572c0,-0.02513 -0.02765,-0.06649 -0.06145,-0.09187c-0.03386,-0.02544 -0.06145,-0.0711 -0.06145,-0.10177c0,-0.03306 -0.01493,-0.05562 -0.03687,-0.05562c-0.02292,0 -0.03687,-0.02323 -0.03687,-0.06145c0,-0.0338 -0.01106,-0.06145 -0.02458,-0.06145c-0.01352,0 -0.02458,-0.01659 -0.02458,-0.03687c0,-0.02028 -0.01186,-0.03687 -0.02636,-0.03687c-0.04332,0 -0.09654,-0.06674 -0.09654,-0.12113c0,-0.02888 -0.01598,-0.05095 -0.03687,-0.05095c-0.02028,0 -0.03687,-0.01186 -0.03687,-0.02636c0,-0.03368 -0.06238,-0.09654 -0.09581,-0.09654c-0.01407,0 -0.0188,-0.01764 -0.01051,-0.03921c0.00952,-0.02477 -0.00885,-0.05973 -0.04996,-0.09507c-0.0357,-0.03067 -0.06496,-0.06833 -0.06496,-0.0837c0,-0.0153 -0.01659,-0.02784 -0.03687,-0.02784c-0.02089,0 -0.03687,-0.02206 -0.03687,-0.05095c0,-0.05439 -0.05322,-0.12113 -0.09654,-0.12113c-0.0145,0 -0.02636,-0.01186 -0.02636,-0.02636c0,-0.03202 -0.06176,-0.09654 -0.09243,-0.09654c-0.01217,0 -0.03699,-0.02765 -0.05506,-0.06145c-0.01807,-0.0338 -0.04763,-0.06145 -0.06563,-0.06145c-0.01794,0 -0.0327,-0.01659 -0.0327,-0.03687c0,-0.02028 -0.01106,-0.03687 -0.02458,-0.03687c-0.01352,0 -0.02458,-0.01758 -0.02458,-0.03902c0,-0.04123 -0.25608,-0.30511 -0.29608,-0.30511c-0.01291,0 -0.02347,-0.01186 -0.02347,-0.02636c0,-0.03398 -0.06256,-0.09654 -0.09654,-0.09654c-0.0145,0 -0.02636,-0.01659 -0.02636,-0.03687c0,-0.02046 -0.02188,-0.03687 -0.04916,-0.03687c-0.02704,0 -0.04916,-0.01106 -0.04916,-0.02458c0,-0.01352 -0.01659,-0.02458 -0.03687,-0.02458c-0.02028,0 -0.03687,-0.01186 -0.03687,-0.02636c0,-0.03398 -0.06256,-0.09654 -0.09654,-0.09654c-0.0145,0 -0.02636,-0.01475 -0.02636,-0.0327c0,-0.01801 -0.02643,-0.04689 -0.05875,-0.06415c-0.03232,-0.01733 -0.07294,-0.05795 -0.09027,-0.09034c-0.01727,-0.03238 -0.04338,-0.05746 -0.05801,-0.0558c-0.06133,0.00694 -0.08794,-0.00504 -0.08794,-0.0397c0,-0.02028 -0.0118,-0.03687 -0.02624,-0.03687c-0.01444,0 -0.06274,-0.03871 -0.10736,-0.08603c-0.04462,-0.04732 -0.09802,-0.08603 -0.11861,-0.08603c-0.02065,0 -0.04413,-0.01727 -0.05223,-0.03841c-0.00811,-0.02114 -0.02594,-0.03159 -0.03952,-0.02317c-0.01364,0.00842 -0.02477,-0.00191 -0.02477,-0.02298c0,-0.02243 -0.0212,-0.03835 -0.05095,-0.03835c-0.05439,0 -0.12113,-0.05322 -0.12113,-0.09654c0,-0.0145 -0.01659,-0.02636 -0.03687,-0.02636c-0.02028,0 -0.03687,-0.01106 -0.03687,-0.02458c0,-0.01352 -0.02765,-0.02458 -0.06145,-0.02458c-0.0338,0 -0.06145,-0.01186 -0.06145,-0.02636c0,-0.04332 -0.06674,-0.09654 -0.12113,-0.09654c-0.02888,0 -0.05095,-0.01598 -0.05095,-0.03687c0,-0.02292 -0.02323,-0.03687 -0.06145,-0.03687c-0.0338,0 -0.06145,-0.01106 -0.06145,-0.02458c0,-0.01352 -0.01659,-0.02458 -0.03687,-0.02458c-0.02028,0 -0.03687,-0.01659 -0.03687,-0.03687c0,-0.02292 -0.02323,-0.03687 -0.06145,-0.03687c-0.0338,0 -0.06145,-0.01106 -0.06145,-0.02458c0,-0.01352 -0.02095,-0.02458 -0.04652,-0.02458c-0.02562,0 -0.05291,-0.01659 -0.06072,-0.03687c-0.00774,-0.02028 -0.03546,-0.03687 -0.06145,-0.03687c-0.02606,0 -0.07344,-0.02747 -0.10527,-0.06102c-0.03183,-0.03355 -0.07725,-0.06121 -0.10091,-0.06145c-0.02366,-0.00025 -0.04302,-0.01149 -0.04302,-0.02501c0,-0.01352 -0.02649,-0.02458 -0.05881,-0.02458c-0.03238,0 -0.06545,-0.01727 -0.07356,-0.03841c-0.00811,-0.02114 -0.02501,-0.03214 -0.03755,-0.0244c-0.01254,0.00774 -0.03946,-0.00258 -0.05986,-0.02298c-0.0204,-0.0204 -0.06637,-0.03712 -0.10207,-0.03712c-0.0357,0 -0.08216,-0.01721 -0.10324,-0.03829c-0.02108,-0.02108 -0.05347,-0.03245 -0.07202,-0.02538c-0.01911,0.00737 -0.03368,-0.00264 -0.03368,-0.02317c0,-0.02206 -0.02378,-0.03607 -0.06145,-0.03607c-0.0338,0 -0.06145,-0.01106 -0.06145,-0.02458c0,-0.01352 -0.02686,-0.02458 -0.05967,-0.02458c-0.03288,0 -0.07633,-0.01659 -0.0966,-0.03687c-0.02028,-0.02028 -0.0598,-0.03687 -0.08776,-0.03687c-0.02802,0 -0.05095,-0.01106 -0.05095,-0.02458c0,-0.01352 -0.04425,-0.02458 -0.09833,-0.02458c-0.07104,0 -0.09833,-0.01026 -0.09833,-0.03687c0,-0.02575 -0.02594,-0.03687 -0.08603,-0.03687c-0.04732,0 -0.08603,-0.01106 -0.08603,-0.02458c0,-0.01352 -0.04425,-0.02458 -0.09833,-0.02458c-0.06606,0 -0.09833,-0.01088 -0.09833,-0.03312c0,-0.02046 -0.03029,-0.03398 -0.0794,-0.0354c-0.04369,-0.00123 -0.08333,-0.01401 -0.08806,-0.02833c-0.00479,-0.01432 -0.06311,-0.02606 -0.12955,-0.02606c-0.09433,0 -0.12088,-0.0086 -0.12088,-0.03927c0,-0.03183 -0.02317,-0.03761 -0.12291,-0.03073c-0.08652,0.00602 -0.12291,-0.00055 -0.12291,-0.02219c0,-0.02046 -0.04099,-0.03073 -0.12291,-0.03073c-0.09285,0 -0.12291,-0.00903 -0.12291,-0.03687c0,-0.0287 -0.03276,-0.03687 -0.14749,-0.03687c-0.08112,0 -0.14749,-0.00959 -0.14749,-0.02132c0,-0.01174 -0.09107,-0.02329 -0.20243,-0.02569c-0.1481,-0.00313 -0.20777,-0.01389 -0.2224,-0.04007c-0.01585,-0.02827 -0.08014,-0.03534 -0.30702,-0.03392c-0.18442,0.0011 -0.29018,-0.00768 -0.29583,-0.02464c-0.0118,-0.0354 -1.45503,-0.03718 -1.45503,-0.00184m1.45029,2.85143c0,0.01456 0.09015,0.02458 0.22123,0.02458c0.1639,0 0.21964,0.00799 0.21508,0.03073c-0.00442,0.02212 0.03952,0.03073 0.15671,0.03073c0.1202,0 0.15972,0.00805 0.15099,0.03073c-0.00854,0.02212 0.02335,0.03073 0.11369,0.03073c0.09519,0 0.12555,0.00891 0.12555,0.03687c0,0.02784 0.03005,0.03687 0.12291,0.03687c0.0676,0 0.12291,0.01106 0.12291,0.02458c0,0.01352 0.03871,0.02458 0.08603,0.02458c0.0601,0 0.08603,0.01112 0.08603,0.03687c0,0.02575 0.02594,0.03687 0.08603,0.03687c0.04732,0 0.08603,0.01094 0.08603,0.02428c0,0.0134 0.01936,0.02268 0.04302,0.02071c0.09919,-0.0083 0.15363,0.00627 0.15363,0.04105c0,0.02292 0.02323,0.03687 0.06145,0.03687c0.0338,0 0.06145,0.01106 0.06145,0.02458c0,0.01352 0.04388,0.02458 0.09752,0.02458c0.07663,0 0.09452,0.00793 0.08345,0.03687c-0.01039,0.02698 0.00307,0.03687 0.0499,0.03687c0.03528,0 0.06409,0.01106 0.06409,0.02458c0,0.01352 0.02649,0.02458 0.05881,0.02458c0.03238,0 0.06563,0.01776 0.07399,0.03946c0.01076,0.02796 0.03282,0.03509 0.07571,0.02428c0.04744,-0.01186 0.05746,-0.00713 0.04634,0.022c-0.01026,0.02673 0.00209,0.03718 0.04394,0.03718c0.03343,0 0.07792,0.02618 0.10441,0.06145c0.02538,0.0338 0.0649,0.06145 0.08776,0.06145c0.02292,0 0.04996,0.0083 0.0601,0.01844c0.01014,0.01014 0.02858,0.01985 0.04093,0.02151c0.01242,0.00172 0.03362,0.00449 0.04713,0.00615c0.01352,0.00166 0.02458,0.01967 0.02458,0.03995c0,0.02292 0.02323,0.03687 0.06145,0.03687c0.0338,0 0.06145,0.01106 0.06145,0.02458c0,0.01352 0.01659,0.02458 0.03687,0.02458c0.02028,0 0.03687,0.01659 0.03687,0.03687c0,0.02089 0.02206,0.03687 0.05095,0.03687c0.05439,0 0.12113,0.05322 0.12113,0.09654c0,0.0145 0.01659,0.02636 0.03687,0.02636c0.02028,0 0.03687,0.01106 0.03687,0.02458c0,0.01352 0.02833,0.02458 0.06293,0.02458c0.0346,0 0.05727,0.00909 0.05039,0.02022c-0.01426,0.02304 0.07079,0.10269 0.10963,0.10269c0.01419,0 0.01911,0.01076 0.011,0.02385c-0.00811,0.01315 0.0134,0.03091 0.04775,0.03958c0.03435,0.0086 0.06244,0.0255 0.06244,0.03755c0,0.0121 0.01475,0.02194 0.0327,0.02194c0.01801,0 0.04756,0.02765 0.06563,0.06145c0.01807,0.0338 0.04129,0.06145 0.05162,0.06145c0.02034,0 0.7104,0.68385 0.7104,0.70407c0,0.02274 0.06993,0.08253 0.09654,0.08253c0.0145,0 0.02636,0.01659 0.02636,0.03687c0,0.02028 0.01106,0.03687 0.02458,0.03687c0.01352,0 0.02458,0.02212 0.02458,0.04916c0,0.02728 0.01641,0.04916 0.03687,0.04916c0.02028,0 0.03687,0.01186 0.03687,0.02636c0,0.03398 0.06256,0.09654 0.09654,0.09654c0.0145,0 0.02636,0.02765 0.02636,0.06145c0,0.0338 0.01106,0.06145 0.02458,0.06145c0.01352,0 0.02458,0.01659 0.02458,0.03687c0,0.02028 0.01186,0.03687 0.02636,0.03687c0.04332,0 0.09654,0.06674 0.09654,0.12113c0,0.02888 0.01598,0.05095 0.03687,0.05095c0.02292,0 0.03687,0.02323 0.03687,0.06145c0,0.0338 0.01106,0.06145 0.02458,0.06145c0.01352,0 0.02458,0.01659 0.02458,0.03687c0,0.02028 0.01622,0.03687 0.03607,0.03687c0.0201,0 0.03054,0.01462 0.02347,0.03294c-0.00694,0.01813 0.00449,0.04713 0.02538,0.06447c0.02089,0.01733 0.03798,0.04732 0.03798,0.06656c0,0.0193 0.02765,0.06065 0.06145,0.092c0.0338,0.03134 0.06145,0.08057 0.06145,0.10945c0,0.02888 0.01106,0.05248 0.02458,0.05248c0.01352,0 0.02458,0.02765 0.02458,0.06145c0,0.03822 0.01395,0.06145 0.03687,0.06145c0.02292,0 0.03687,0.02323 0.03687,0.06145c0,0.0338 0.01106,0.06145 0.02458,0.06145c0.01352,0 0.02458,0.02686 0.02458,0.05967c0,0.03288 0.01659,0.07633 0.03687,0.0966c0.02028,0.02028 0.03687,0.0598 0.03687,0.08776c0,0.02802 0.01106,0.05095 0.02458,0.05095c0.01352,0 0.02458,0.02249 0.02458,0.04996c0,0.02741 0.01659,0.05629 0.03687,0.06403c0.02255,0.00867 0.03687,0.04597 0.03687,0.09611c0,0.04511 0.01106,0.0888 0.02458,0.09716c0.01352,0.00836 0.02458,0.05328 0.02458,0.0998c0,0.05875 0.01125,0.08456 0.03687,0.08456c0.02575,0 0.03687,0.02594 0.03687,0.08603c0,0.04732 0.01106,0.08603 0.02458,0.08603c0.01352,0 0.02458,0.05531 0.02458,0.12291c0,0.09285 0.00903,0.12291 0.03687,0.12291c0.02784,0 0.03687,0.03005 0.03687,0.12291c0,0.0676 0.01106,0.12291 0.02458,0.12291c0.01364,0 0.02458,0.0649 0.02458,0.14546c0,0.08296 0.01149,0.14927 0.02673,0.15431c0.01536,0.00516 0.03116,0.09783 0.03705,0.21717c0.00566,0.11449 0.02132,0.21189 0.03472,0.21638c0.0365,0.01229 0.03294,1.39831 -0.00363,1.41047c-0.01739,0.00584 -0.02931,0.08185 -0.0314,0.20003c-0.00184,0.10484 -0.01487,0.19837 -0.02901,0.20777c-0.01407,0.00946 -0.02845,0.07799 -0.03195,0.15234c-0.00357,0.07436 -0.01659,0.13889 -0.02907,0.14337c-0.01242,0.00455 -0.02261,0.07921 -0.02261,0.16593c0,0.12383 -0.00793,0.15775 -0.03687,0.15775c-0.02562,0 -0.03687,0.02581 -0.03687,0.08456c0,0.04652 -0.01106,0.09144 -0.02458,0.0998c-0.01352,0.00836 -0.02458,0.05389 -0.02458,0.10121c0,0.04732 -0.00989,0.07995 -0.022,0.07245c-0.02679,-0.01659 -0.05174,0.04283 -0.05174,0.12334c0,0.0327 -0.01186,0.05942 -0.02636,0.05942c-0.01444,0 -0.02428,0.02489 -0.02182,0.05531c0.00762,0.09458 0.00031,0.11676 -0.03865,0.11676c-0.02802,0 -0.03607,0.02298 -0.03153,0.0904c0.00363,0.05396 -0.00596,0.09445 -0.02378,0.10036c-0.01647,0.00553 -0.02993,0.03675 -0.02993,0.06938c0,0.03644 -0.01426,0.05942 -0.03687,0.05942c-0.02028,0 -0.03687,0.02145 -0.03687,0.04769c0,0.02624 -0.01106,0.05457 -0.02458,0.06293c-0.01352,0.00836 -0.02458,0.03699 -0.02458,0.06366c0,0.02667 -0.01653,0.05481 -0.03675,0.06256c-0.02016,0.0078 -0.03159,0.02237 -0.02538,0.03251c0.00627,0.01014 -0.00449,0.03939 -0.02391,0.06502c-0.01942,0.02562 -0.03564,0.06637 -0.03607,0.09046c-0.00043,0.02403 -0.01671,0.04984 -0.03613,0.05733c-0.01942,0.00743 -0.02931,0.02913 -0.022,0.04818c0.00731,0.01905 -0.00449,0.04142 -0.02612,0.04972c-0.02169,0.00836 -0.03946,0.03656 -0.03946,0.06274c0,0.02618 -0.02765,0.07743 -0.06145,0.11387c-0.0338,0.0365 -0.06145,0.08579 -0.06145,0.10957c0,0.02378 -0.01106,0.04326 -0.02458,0.04326c-0.01352,0 -0.02458,0.02833 -0.02458,0.06293c0,0.0346 -0.00909,0.05727 -0.02022,0.05039c-0.02968,-0.01837 -0.10269,0.07602 -0.10269,0.1328c0,0.02704 -0.01647,0.04886 -0.03687,0.04886c-0.02028,0 -0.03687,0.01186 -0.03687,0.02636c0,0.03398 -0.06256,0.09654 -0.09654,0.09654c-0.0145,0 -0.02636,0.02225 -0.02636,0.04947c0,0.02722 -0.05445,0.10367 -0.121,0.16985c-0.06656,0.06624 -0.11449,0.1269 -0.10656,0.13489c0.00799,0.00799 -0.00393,0.0145 -0.02643,0.0145c-0.02735,0 -0.04099,0.02046 -0.04099,0.06145c0,0.03822 -0.01395,0.06145 -0.03687,0.06145c-0.02028,0 -0.03687,0.01727 -0.03687,0.03835c0,0.02108 -0.01106,0.03146 -0.02458,0.02311c-0.01352,-0.00836 -0.02458,-0.0027 -0.02458,0.0126c0,0.03521 -0.06188,0.09802 -0.09654,0.09802c-0.0145,0 -0.02636,0.01727 -0.02636,0.03835c0,0.02108 -0.01106,0.03146 -0.02458,0.02311c-0.01352,-0.00836 -0.02458,0.00203 -0.02458,0.02311c0,0.02108 -0.01659,0.03835 -0.03687,0.03835c-0.02028,0 -0.03687,0.01727 -0.03687,0.03835c0,0.02108 -0.01106,0.03146 -0.02458,0.02311c-0.01352,-0.00836 -0.02458,0.00203 -0.02458,0.02311c0,0.02108 -0.01186,0.03835 -0.02636,0.03835c-0.03398,0 -0.09654,0.06256 -0.09654,0.09654c0,0.0145 -0.01475,0.02636 -0.0327,0.02636c-0.01801,0 -0.04756,0.02765 -0.06563,0.06145c-0.01807,0.0338 -0.04289,0.06145 -0.05506,0.06145c-0.0287,0 -0.09243,0.06373 -0.09243,0.09243c0,0.01217 -0.02765,0.03699 -0.06145,0.05506c-0.0338,0.01807 -0.06145,0.04572 -0.06145,0.06145c0,0.01573 -0.02765,0.04338 -0.06145,0.06145c-0.0338,0.01807 -0.06145,0.04763 -0.06145,0.06563c0,0.01794 -0.01186,0.0327 -0.02636,0.0327c-0.03202,0 -0.09654,0.06176 -0.09654,0.09243c0,0.01217 -0.02643,0.03632 -0.05875,0.05359c-0.03232,0.01733 -0.07288,0.05789 -0.09021,0.09021c-0.01727,0.03232 -0.04142,0.05875 -0.05359,0.05875c-0.03067,0 -0.09243,0.06453 -0.09243,0.09654c0,0.0145 -0.01475,0.02636 -0.0327,0.02636c-0.01801,0 -0.04756,0.02765 -0.06563,0.06145c-0.01807,0.0338 -0.04572,0.06145 -0.06145,0.06145c-0.01573,0 -0.04338,0.02765 -0.06145,0.06145c-0.03675,0.06871 -0.14749,0.08714 -0.14749,0.02458c0,-0.02028 -0.01186,-0.03687 -0.02636,-0.03687c-0.03398,0 -0.09654,-0.06256 -0.09654,-0.09654c0,-0.0145 -0.01413,-0.02636 -0.03146,-0.02636c-0.01727,0 -0.04738,-0.02212 -0.06686,-0.04916c-0.01948,-0.02704 -0.04959,-0.04916 -0.06686,-0.04916c-0.01733,0 -0.03146,-0.01659 -0.03146,-0.03687c0,-0.02028 -0.01106,-0.03687 -0.02458,-0.03687c-0.01352,0 -0.02458,-0.01776 -0.02458,-0.03952c0,-0.02501 -0.01352,-0.03429 -0.03687,-0.02532c-0.02028,0.00774 -0.03687,0.0024 -0.03687,-0.01186c0,-0.01432 -0.04978,-0.07442 -0.11062,-0.13354c-0.06084,-0.05912 -0.11062,-0.11897 -0.11062,-0.13298c0,-0.01401 -0.01186,-0.0255 -0.02636,-0.0255c-0.03398,0 -0.09654,-0.06256 -0.09654,-0.09654c0,-0.0145 -0.01186,-0.02636 -0.02636,-0.02636c-0.03398,0 -0.09654,-0.06256 -0.09654,-0.09654c0,-0.0145 -0.01186,-0.02636 -0.02636,-0.02636c-0.03398,0 -0.09654,-0.06256 -0.09654,-0.09654c0,-0.0145 -0.01106,-0.02636 -0.02458,-0.02636c-0.04498,0 -0.29498,-0.27175 -0.29498,-0.32066c0,-0.02643 0.01204,-0.04805 0.02679,-0.04805c0.01469,0 0.07516,-0.04978 0.13428,-0.11062c0.05912,-0.06084 0.11897,-0.11062 0.13298,-0.11062c0.01401,0 0.0255,-0.01186 0.0255,-0.02636c0,-0.03398 0.06256,-0.09654 0.09654,-0.09654c0.0145,0 0.02636,-0.01186 0.02636,-0.02636c0,-0.03398 0.06256,-0.09654 0.09654,-0.09654c0.0145,0 0.02636,-0.01186 0.02636,-0.02636c0,-0.03398 0.06256,-0.09654 0.09654,-0.09654c0.0145,0 0.02636,-0.01149 0.02636,-0.0255c0,-0.01401 0.04978,-0.07387 0.11062,-0.13298c0.06084,-0.05912 0.11062,-0.11959 0.11062,-0.13428c0,-0.01475 0.01186,-0.02679 0.02636,-0.02679c0.03398,0 0.09654,-0.06256 0.09654,-0.09654c0,-0.0145 0.01413,-0.02636 0.03146,-0.02636c0.01727,0 0.04738,-0.02212 0.06686,-0.04916c0.01948,-0.02704 0.04959,-0.04916 0.06686,-0.04916c0.01733,0 0.03146,-0.01186 0.03146,-0.02636c0,-0.03398 0.06256,-0.09654 0.09654,-0.09654c0.0145,0 0.02636,-0.01186 0.02636,-0.02636c0,-0.03398 0.06256,-0.09654 0.09654,-0.09654c0.0145,0 0.02636,-0.01149 0.02636,-0.0255c0,-0.01401 0.05254,-0.07675 0.11676,-0.13938c0.06422,-0.06262 0.114,-0.12303 0.11062,-0.13428c-0.00338,-0.01118 0.00572,-0.0204 0.02022,-0.0204c0.04332,0 0.09654,-0.06674 0.09654,-0.12113c0,-0.02888 0.01598,-0.05095 0.03687,-0.05095c0.02028,0 0.03687,-0.01186 0.03687,-0.02636c0,-0.03398 0.06256,-0.09654 0.09654,-0.09654c0.0145,0 0.02636,-0.02765 0.02636,-0.06145c0,-0.0338 0.01106,-0.06145 0.02458,-0.06145c0.01352,0 0.02458,-0.02765 0.02458,-0.06145c0,-0.0338 0.01186,-0.06145 0.02636,-0.06145c0.04332,0 0.09654,-0.06674 0.09654,-0.12113c0,-0.02888 0.01598,-0.05095 0.03687,-0.05095c0.02292,0 0.03687,-0.02323 0.03687,-0.06145c0,-0.0338 0.01106,-0.06145 0.02458,-0.06145c0.01352,0 0.02458,-0.02765 0.02458,-0.06145c0,-0.03822 0.01395,-0.06145 0.03687,-0.06145c0.02292,0 0.03687,-0.02323 0.03687,-0.06145c0,-0.0338 0.01106,-0.06145 0.02458,-0.06145c0.01352,0 0.02458,-0.02649 0.02458,-0.05881c0,-0.03238 0.01659,-0.0652 0.03687,-0.073c0.02157,-0.00824 0.03687,-0.04511 0.03687,-0.08861c0,-0.04099 0.01106,-0.07454 0.02458,-0.07454c0.01352,0 0.02458,-0.04941 0.02458,-0.10982c0,-0.08757 0.0075,-0.10699 0.03687,-0.09575c0.02858,0.011 0.03687,-0.00578 0.03687,-0.07448c0,-0.0488 0.01106,-0.08868 0.02458,-0.08868c0.01352,0 0.02458,-0.05414 0.02458,-0.12026c0,-0.08425 0.01106,-0.1245 0.03687,-0.13446c0.02759,-0.01057 0.03687,-0.05481 0.03687,-0.17612c0,-0.10398 0.00897,-0.15646 0.02507,-0.1465c0.0169,0.01045 0.02458,-0.24163 0.02341,-0.77117c-0.00098,-0.43914 -0.01143,-0.79017 -0.02372,-0.79453c-0.0121,-0.0043 -0.02458,-0.07258 -0.02771,-0.15173c-0.00313,-0.07933 -0.02028,-0.15849 -0.03822,-0.17643c-0.01794,-0.01788 -0.03257,-0.08223 -0.03257,-0.14288c0,-0.06065 -0.0102,-0.114 -0.02268,-0.11854c-0.01254,-0.00449 -0.02753,-0.04689 -0.03337,-0.09421c-0.00584,-0.04744 -0.02323,-0.08327 -0.03871,-0.07989c-0.01745,0.00381 -0.02814,-0.03116 -0.02814,-0.09218c0,-0.05408 -0.01106,-0.09833 -0.02458,-0.09833c-0.01352,0 -0.02458,-0.02765 -0.02458,-0.06145c0,-0.03822 -0.01395,-0.06145 -0.03687,-0.06145c-0.02575,0 -0.03687,-0.02594 -0.03687,-0.08603c0,-0.04732 -0.01106,-0.08603 -0.02458,-0.08603c-0.01352,0 -0.02458,-0.02765 -0.02458,-0.06145c0,-0.03822 -0.01395,-0.06145 -0.03687,-0.06145c-0.02292,0 -0.03687,-0.02323 -0.03687,-0.06145c0,-0.0338 -0.01106,-0.06145 -0.02458,-0.06145c-0.01352,0 -0.02458,-0.02765 -0.02458,-0.06145c0,-0.03822 -0.01395,-0.06145 -0.03687,-0.06145c-0.02028,0 -0.03687,-0.01659 -0.03687,-0.03687c0,-0.02028 -0.01106,-0.03687 -0.02458,-0.03687c-0.01352,0 -0.02458,-0.02249 -0.02458,-0.04996c0,-0.02741 -0.01659,-0.05629 -0.03687,-0.06403c-0.02028,-0.0078 -0.03687,-0.03509 -0.03687,-0.06072c0,-0.02556 -0.01106,-0.04652 -0.02458,-0.04652c-0.01352,0 -0.02458,-0.01659 -0.02458,-0.03687c0,-0.02028 -0.01659,-0.03687 -0.03687,-0.03687c-0.02071,0 -0.03687,-0.02194 -0.03687,-0.05008c0,-0.02753 -0.04824,-0.09697 -0.10724,-0.15425c-0.05893,-0.05733 -0.11498,-0.1288 -0.12456,-0.15892c-0.00952,-0.03005 -0.02765,-0.05463 -0.04025,-0.05463c-0.0126,0 -0.02292,-0.01186 -0.02292,-0.02636c0,-0.01444 -0.01579,-0.0421 -0.03509,-0.06145c-0.01936,-0.0193 -0.04701,-0.03509 -0.06145,-0.03509c-0.0145,0 -0.02636,-0.01475 -0.02636,-0.0327c0,-0.01801 -0.02765,-0.04756 -0.06145,-0.06563c-0.0338,-0.01807 -0.06145,-0.04572 -0.06145,-0.06145c0,-0.01573 -0.02765,-0.04338 -0.06145,-0.06145c-0.0338,-0.01807 -0.06145,-0.04289 -0.06145,-0.05506c0,-0.03067 -0.06453,-0.09243 -0.09654,-0.09243c-0.0145,0 -0.02636,-0.01033 -0.02636,-0.02292c0,-0.0126 -0.0244,-0.03067 -0.05414,-0.04013c-0.06281,-0.01991 -0.11793,-0.06969 -0.11793,-0.1065c0,-0.01407 -0.0145,-0.01997 -0.03226,-0.01315c-0.01776,0.00676 -0.04683,-0.01487 -0.06459,-0.04812c-0.01782,-0.03319 -0.05856,-0.06699 -0.09064,-0.07503c-0.03208,-0.00805 -0.05832,-0.0255 -0.05832,-0.03878c0,-0.01321 -0.01659,-0.02409 -0.03687,-0.02409c-0.02028,0 -0.03687,-0.01106 -0.03687,-0.02458c0,-0.01352 -0.02212,-0.02458 -0.04916,-0.02458c-0.02728,0 -0.04916,-0.01641 -0.04916,-0.03687c0,-0.02292 -0.02323,-0.03687 -0.06145,-0.03687c-0.0338,0 -0.06145,-0.01106 -0.06145,-0.02458c0,-0.01352 -0.01659,-0.02458 -0.03687,-0.02458c-0.02028,0 -0.03687,-0.01659 -0.03687,-0.03687c0,-0.02292 -0.02323,-0.03687 -0.06145,-0.03687c-0.0338,0 -0.06145,-0.01106 -0.06145,-0.02458c0,-0.01352 -0.02765,-0.02458 -0.06145,-0.02458c-0.03822,0 -0.06145,-0.01395 -0.06145,-0.03687c0,-0.02292 -0.02323,-0.03687 -0.06145,-0.03687c-0.0338,0 -0.06145,-0.01106 -0.06145,-0.02458c0,-0.01352 -0.01174,-0.02458 -0.02606,-0.02458c-0.01432,0 -0.01819,0.01383 -0.00867,0.03073c0.01389,0.02458 0.01076,0.02458 -0.01573,0c-0.01825,-0.0169 -0.05304,-0.03073 -0.07737,-0.03073c-0.02434,0 -0.04425,-0.01659 -0.04425,-0.03687c0,-0.02292 -0.02323,-0.03687 -0.06145,-0.03687c-0.0338,0 -0.06145,-0.01106 -0.06145,-0.02458c0,-0.01352 -0.03755,-0.02458 -0.08339,-0.02458c-0.0515,0 -0.08886,-0.01413 -0.09759,-0.03687c-0.00885,-0.02317 -0.04646,-0.03687 -0.10091,-0.03687c-0.04775,0 -0.08684,-0.01106 -0.08684,-0.02458c0,-0.01352 -0.05531,-0.02458 -0.12291,-0.02458c-0.09378,0 -0.12291,-0.00891 -0.12291,-0.03749c0,-0.02974 -0.02888,-0.03656 -0.14005,-0.03294c-0.08812,0.00289 -0.14356,-0.00602 -0.14951,-0.02397c-0.00522,-0.01567 -0.02028,-0.02852 -0.03349,-0.02852c-0.01321,0 -0.01616,0.01383 -0.00664,0.03073c0.01389,0.02458 0.01076,0.02458 -0.01573,0c-0.04222,-0.03914 -1.59649,-0.04517 -1.59649,-0.00615c0,0.01364 -0.06557,0.02458 -0.14749,0.02458c-0.11473,0 -0.14749,0.00818 -0.14749,0.03687c0,0.02778 -0.0298,0.03687 -0.12088,0.03687c-0.06643,0 -0.1245,0.01008 -0.12905,0.02249c-0.00449,0.01235 -0.05795,0.02698 -0.11879,0.03251c-0.06766,0.00621 -0.10822,0.02132 -0.10447,0.03902c0.00363,0.01709 -0.02403,0.02888 -0.0676,0.02888c-0.04486,0 -0.07375,0.01278 -0.07375,0.03263c0,0.02219 -0.02341,0.02919 -0.07344,0.02182c-0.05199,-0.00762 -0.07792,0.0008 -0.08868,0.02882c-0.00836,0.02182 -0.04166,0.03964 -0.07405,0.03964c-0.03232,0 -0.05881,0.01106 -0.05881,0.02458c0,0.01352 -0.02765,0.02458 -0.06145,0.02458c-0.03822,0 -0.06145,0.01395 -0.06145,0.03687c0,0.02292 -0.02323,0.03687 -0.06145,0.03687c-0.0338,0 -0.06145,0.01106 -0.06145,0.02458c0,0.01352 -0.02765,0.02458 -0.06145,0.02458c-0.03822,0 -0.06145,0.01395 -0.06145,0.03687c0,0.02292 -0.02323,0.03687 -0.06145,0.03687c-0.0338,0 -0.06145,0.01106 -0.06145,0.02458c0,0.01352 -0.02059,0.02458 -0.04572,0.02458c-0.02513,0 -0.06649,0.02765 -0.09187,0.06145c-0.02544,0.03386 -0.0711,0.06145 -0.10177,0.06145c-0.03398,0 -0.05562,0.01493 -0.05562,0.03835c0,0.02298 -0.01149,0.03122 -0.02876,0.02052c-0.0193,-0.01192 -0.02366,-0.00442 -0.01315,0.02286c0.00854,0.02231 0.00768,0.03939 -0.00197,0.03798c-0.05002,-0.00743 -0.07903,0.00694 -0.07903,0.03927c0,0.02102 -0.0145,0.03054 -0.03472,0.0228c-0.02059,-0.00786 -0.08585,0.03755 -0.16009,0.11141c-0.06895,0.06858 -0.13631,0.12469 -0.14964,0.12469c-0.01334,0 -0.02428,0.01186 -0.02428,0.02636c0,0.01444 -0.01579,0.0421 -0.03509,0.06145c-0.01936,0.0193 -0.04701,0.03509 -0.06145,0.03509c-0.0145,0 -0.02636,0.01186 -0.02636,0.02636c0,0.01444 -0.01579,0.0421 -0.03509,0.06145c-0.01936,0.0193 -0.04701,0.03509 -0.06145,0.03509c-0.0145,0 -0.02636,0.01659 -0.02636,0.03687c0,0.02028 -0.01106,0.03687 -0.02458,0.03687c-0.01352,0 -0.02458,0.01622 -0.02458,0.03607c0,0.022 -0.01444,0.03061 -0.03687,0.022c-0.02028,-0.0078 -0.03687,-0.0011 -0.03687,0.01481c0,0.03737 -0.06182,0.09919 -0.09919,0.09919c-0.01592,0 -0.02261,0.01659 -0.01481,0.03687c0.00774,0.02028 0.00197,0.03687 -0.01297,0.03687c-0.04173,0 -0.12198,0.10379 -0.10816,0.13993c0.00682,0.01764 0.00086,0.03214 -0.01321,0.03214c-0.04271,0 -0.09581,0.06717 -0.09581,0.12113c0,0.02888 -0.01598,0.05095 -0.03687,0.05095c-0.02028,0 -0.03687,0.01659 -0.03687,0.03687c0,0.02028 -0.01106,0.03687 -0.02458,0.03687c-0.01352,0 -0.02458,0.02765 -0.02458,0.06145c0,0.0338 -0.01186,0.06145 -0.02636,0.06145c-0.04253,0 -0.09654,0.06631 -0.09654,0.11854c0,0.02655 -0.01659,0.05463 -0.03687,0.06244c-0.02028,0.00774 -0.03687,0.03662 -0.03687,0.06403c0,0.02747 -0.01106,0.04996 -0.02458,0.04996c-0.01352,0 -0.02458,0.02765 -0.02458,0.06145c0,0.0338 -0.00891,0.06145 -0.01985,0.06145c-0.02698,0 -0.10306,0.17649 -0.10306,0.23917c0,0.02778 -0.01659,0.0569 -0.03687,0.06471c-0.02317,0.00885 -0.03687,0.04646 -0.03687,0.10091c0,0.04775 -0.01039,0.08684 -0.02311,0.08684c-0.01272,0 -0.02655,0.04148 -0.03073,0.09218c-0.00473,0.05764 -0.01911,0.08991 -0.03835,0.08603c-0.02046,-0.00412 -0.03073,0.02661 -0.03073,0.09218c0,0.05408 -0.01106,0.09833 -0.02458,0.09833c-0.01352,0 -0.02458,0.06164 -0.02458,0.13698c0,0.08333 -0.01321,0.15013 -0.0338,0.17072c-0.0236,0.0236 -0.03232,0.08954 -0.02907,0.21945c0.00344,0.13944 -0.00344,0.18571 -0.02771,0.18571c-0.04425,0 -0.04781,1.0723 -0.00357,1.08705c0.01837,0.00615 0.03042,0.08394 0.03331,0.21595c0.00289,0.1293 0.01512,0.20992 0.0327,0.21576c0.01604,0.00534 0.02814,0.06139 0.02814,0.13022c0,0.06649 0.01106,0.12088 0.02458,0.12088c0.01352,0 0.02458,0.04289 0.02458,0.09531c0,0.05475 0.01567,0.10834 0.03687,0.12592c0.02028,0.01684 0.03687,0.06797 0.03687,0.11362c0,0.04566 0.01106,0.08302 0.02458,0.08302c0.01352,0 0.02458,0.02765 0.02458,0.06145c0,0.03822 0.01395,0.06145 0.03687,0.06145c0.02575,0 0.03687,0.02594 0.03687,0.08603c0,0.04732 0.01106,0.08603 0.02458,0.08603c0.01352,0 0.02458,0.02765 0.02458,0.06145c0,0.03822 0.01395,0.06145 0.03687,0.06145c0.02292,0 0.03687,0.02323 0.03687,0.06145c0,0.0338 0.01106,0.06145 0.02458,0.06145c0.01352,0 0.02458,0.02765 0.02458,0.06145c0,0.03822 0.01395,0.06145 0.03687,0.06145c0.02292,0 0.03687,0.02323 0.03687,0.06145c0,0.0338 0.01106,0.06145 0.02458,0.06145c0.01352,0 0.02458,0.02765 0.02458,0.06145c0,0.0338 0.0126,0.06145 0.02802,0.06145c0.03779,0 0.09316,0.0759 0.09409,0.12905c0.00043,0.02366 0.01739,0.04302 0.03767,0.04302c0.02028,0 0.03687,0.01659 0.03687,0.03687c0,0.02028 0.01106,0.03687 0.02458,0.03687c0.01352,0 0.02458,0.02581 0.02458,0.05727c0,0.03601 0.02286,0.06957 0.06145,0.09021c0.0338,0.01807 0.06145,0.04763 0.06145,0.06563c0,0.01794 0.01727,0.0327 0.03835,0.0327c0.02108,0 0.03146,0.01106 0.02311,0.02458c-0.00836,0.01352 0.00203,0.02458 0.02311,0.02458c0.02452,0 0.03835,0.02219 0.03835,0.06145c0,0.03927 0.01383,0.06145 0.03835,0.06145c0.02108,0 0.0327,0.00909 0.02581,0.02022c-0.01524,0.02464 0.07338,0.10447 0.09353,0.08425c0.00793,-0.00786 0.01438,-0.00043 0.01438,0.01659c0,0.03681 0.38064,0.41972 0.4172,0.41972c0.01389,0 0.02526,0.01186 0.02526,0.02636c0,0.03398 0.06256,0.09654 0.09654,0.09654c0.0145,0 0.02636,0.01186 0.02636,0.02636c0,0.03398 0.06256,0.09654 0.09654,0.09654c0.0145,0 0.0236,0.0083 0.02022,0.01844c-0.0083,0.02489 0.73338,0.76816 0.76657,0.76816c0.01438,0 0.02618,0.02311 0.02618,0.05131c0,0.05057 -0.24889,0.31741 -0.29608,0.31741c-0.01291,0 -0.02347,0.01186 -0.02347,0.02636c0,0.03398 -0.06256,0.09654 -0.09654,0.09654c-0.0145,0 -0.02636,0.01186 -0.02636,0.02636c0,0.03398 -0.06256,0.09654 -0.09654,0.09654c-0.0145,0 -0.02636,0.01395 -0.02636,0.03103c0,0.01709 -0.02747,0.05168 -0.06096,0.07682c-0.03355,0.02519 -0.05506,0.05549 -0.04775,0.06729c0.00731,0.01186 0.00135,0.02151 -0.01321,0.02151c-0.01456,0 -0.13083,0.10509 -0.25847,0.23352c-0.12758,0.12844 -0.24354,0.23352 -0.25767,0.23352c-0.01407,0 -0.02562,0.01186 -0.02562,0.02636c0,0.03398 -0.06256,0.09654 -0.09654,0.09654c-0.0145,0 -0.02636,0.01659 -0.02636,0.03687c0,0.04849 -0.03988,0.04738 -0.05863,-0.00154c-0.00811,-0.02114 -0.02594,-0.03159 -0.03952,-0.02317c-0.01364,0.00842 -0.02477,0.00363 -0.02477,-0.01069c0,-0.0354 -0.09064,-0.12383 -0.10859,-0.10595c-0.00786,0.00786 -0.01432,0.00142 -0.01432,-0.01432c0,-0.03497 -0.18688,-0.22535 -0.22123,-0.22535c-0.01352,0 -0.02458,-0.01106 -0.02458,-0.02458c0,-0.01352 -0.04425,-0.06883 -0.09833,-0.12291c-0.05408,-0.05408 -0.10939,-0.09833 -0.12291,-0.09833c-0.01352,0 -0.02458,-0.00959 -0.02458,-0.02126c0,-0.03061 -0.37554,-0.41008 -0.39859,-0.40276c-0.01063,0.00338 -0.0193,-0.00479 -0.0193,-0.01813c0,-0.03779 -0.08014,-0.12217 -0.10269,-0.10822c-0.01112,0.00688 -0.02022,0.0008 -0.02022,-0.01352c0,-0.03306 -0.18842,-0.22271 -0.22123,-0.22271c-0.01352,0 -0.02458,-0.01192 -0.02458,-0.02643c0,-0.01456 -0.07743,-0.103 -0.17207,-0.19646c-0.09464,-0.09353 -0.17207,-0.18122 -0.17207,-0.1948c0,-0.01364 -0.01659,-0.02477 -0.03687,-0.02477c-0.02046,0 -0.03687,-0.02188 -0.03687,-0.04916c0,-0.02704 -0.01106,-0.04916 -0.02458,-0.04916c-0.01352,0 -0.02458,-0.01659 -0.02458,-0.03687c0,-0.02028 -0.01659,-0.03687 -0.03687,-0.03687c-0.02028,0 -0.03687,-0.01659 -0.03687,-0.03687c0,-0.02028 -0.01106,-0.03687 -0.02458,-0.03687c-0.01352,0 -0.02458,-0.01622 -0.02458,-0.03601c0,-0.04099 -0.1481,-0.20071 -0.17742,-0.19137c-0.01057,0.00338 -0.01924,-0.02151 -0.01924,-0.05531c0,-0.0338 -0.01106,-0.06145 -0.02458,-0.06145c-0.01352,0 -0.02458,-0.01659 -0.02458,-0.03687c0,-0.02028 -0.01659,-0.03687 -0.03687,-0.03687c-0.02292,0 -0.03687,-0.02323 -0.03687,-0.06145c0,-0.0338 -0.01106,-0.06145 -0.02458,-0.06145c-0.01352,0 -0.02458,-0.02059 -0.02458,-0.04572c0,-0.02513 -0.02765,-0.06649 -0.06145,-0.09187c-0.03386,-0.02544 -0.06145,-0.0711 -0.06145,-0.10177c0,-0.03061 -0.01106,-0.05562 -0.02458,-0.05562c-0.01352,0 -0.02458,-0.02249 -0.02458,-0.04996c0,-0.02741 -0.01659,-0.05629 -0.03687,-0.06403c-0.02028,-0.0078 -0.03687,-0.04062 -0.03687,-0.073c0,-0.03232 -0.01106,-0.05881 -0.02458,-0.05881c-0.01352,0 -0.02458,-0.02249 -0.02458,-0.04996c0,-0.02741 -0.01659,-0.05629 -0.03687,-0.06403c-0.02028,-0.0078 -0.03687,-0.04062 -0.03687,-0.073c0,-0.03232 -0.01106,-0.05881 -0.02458,-0.05881c-0.01352,0 -0.02458,-0.02765 -0.02458,-0.06145c0,-0.03822 -0.01395,-0.06145 -0.03687,-0.06145c-0.02575,0 -0.03687,-0.02594 -0.03687,-0.08603c0,-0.04732 -0.01106,-0.08603 -0.02458,-0.08603c-0.01352,0 -0.02458,-0.02765 -0.02458,-0.06145c0,-0.03822 -0.01395,-0.06145 -0.03687,-0.06145c-0.02562,0 -0.03687,-0.02581 -0.03687,-0.08456c0,-0.04652 -0.01106,-0.09144 -0.02458,-0.0998c-0.01352,-0.00836 -0.02458,-0.05328 -0.02458,-0.0998c0,-0.05875 -0.01125,-0.08456 -0.03687,-0.08456c-0.02784,0 -0.03687,-0.03005 -0.03687,-0.12291c0,-0.0676 -0.01106,-0.12291 -0.02458,-0.12291c-0.01352,0 -0.02458,-0.05014 -0.02458,-0.11141c0,-0.07633 -0.01161,-0.11584 -0.03687,-0.12549c-0.02581,-0.00995 -0.03687,-0.05021 -0.03687,-0.13446c0,-0.06612 -0.01057,-0.12026 -0.02347,-0.12026c-0.01297,0 -0.02679,-0.0802 -0.03073,-0.17821c-0.00516,-0.12653 -0.01616,-0.17643 -0.03798,-0.17207c-0.02341,0.00467 -0.03073,-0.07577 -0.03073,-0.33799c0,-0.21306 -0.00934,-0.34414 -0.02458,-0.34414c-0.01475,0 -0.02458,-0.09833 -0.02458,-0.24581c0,-0.14749 0.00983,-0.24581 0.02458,-0.24581c0.01518,0 0.02458,-0.12702 0.02458,-0.33185c0,-0.27857 0.0059,-0.33185 0.03687,-0.33185c0.0295,0 0.03687,-0.03687 0.03687,-0.18436c0,-0.1065 0.01039,-0.18436 0.02458,-0.18436c0.01364,0 0.02458,-0.06557 0.02458,-0.14749c0,-0.11473 0.00818,-0.14749 0.03687,-0.14749c0.02784,0 0.03687,-0.03005 0.03687,-0.12291c0,-0.0676 0.01106,-0.12291 0.02458,-0.12291c0.01352,0 0.02458,-0.03755 0.02458,-0.08339c0,-0.0515 0.01413,-0.08886 0.03687,-0.09759c0.02317,-0.00885 0.03687,-0.04646 0.03687,-0.10091c0,-0.04775 0.01106,-0.08684 0.02458,-0.08684c0.01352,0 0.02458,-0.03871 0.02458,-0.08603c0,-0.06281 0.01069,-0.08603 0.03964,-0.08603c0.03036,0 0.03705,-0.01782 0.02852,-0.07602c-0.00725,-0.04935 0.00043,-0.08044 0.02182,-0.08868c0.01813,-0.00694 0.03294,-0.03792 0.03294,-0.06883c0,-0.03091 0.01659,-0.06256 0.03687,-0.07036c0.02028,-0.00774 0.03687,-0.03662 0.03687,-0.06403c0,-0.02747 0.01106,-0.04996 0.02458,-0.04996c0.01352,0 0.02458,-0.04425 0.02458,-0.09833c0,-0.07104 0.01026,-0.09833 0.03687,-0.09833c0.02292,0 0.03687,-0.02323 0.03687,-0.06145c0,-0.0338 0.01106,-0.06145 0.02458,-0.06145c0.01352,0 0.02458,-0.01715 0.02458,-0.03804c0,-0.02095 0.02765,-0.06366 0.06145,-0.09501c0.0338,-0.03134 0.06145,-0.08057 0.06145,-0.10945c0,-0.02888 0.01106,-0.05248 0.02458,-0.05248c0.01352,0 0.02458,-0.02765 0.02458,-0.06145c0,-0.03822 0.01395,-0.06145 0.03687,-0.06145c0.02089,0 0.03687,-0.02206 0.03687,-0.05095c0,-0.05439 0.05322,-0.12113 0.09654,-0.12113c0.0145,0 0.02636,-0.02765 0.02636,-0.06145c0,-0.0338 0.00977,-0.06145 0.02169,-0.06145c0.01198,0 0.02784,-0.02323 0.03521,-0.05162c0.00743,-0.02845 0.02532,-0.04437 0.03976,-0.03546c0.01549,0.00959 0.02624,-0.00528 0.02624,-0.03613c0,-0.05562 0.05272,-0.1226 0.09654,-0.1226c0.0145,0 0.02636,-0.01659 0.02636,-0.03687c0,-0.02028 0.01106,-0.03687 0.02458,-0.03687c0.01352,0 0.02458,-0.01813 0.02458,-0.04031c0,-0.02219 0.05531,-0.09255 0.12291,-0.15633c0.07307,-0.06895 0.12291,-0.13735 0.12291,-0.16863c0,-0.02895 0.01186,-0.0526 0.02636,-0.0526c0.03202,0 0.09654,-0.06176 0.09654,-0.09243c0,-0.01217 0.02765,-0.03699 0.06145,-0.05506c0.0338,-0.01807 0.06145,-0.04289 0.06145,-0.05506c0,-0.03067 0.06453,-0.09243 0.09654,-0.09243c0.0145,0 0.02636,-0.01186 0.02636,-0.02636c0,-0.03398 0.06256,-0.09654 0.09654,-0.09654c0.0145,0 0.02636,-0.01186 0.02636,-0.02636c0,-0.03202 0.06176,-0.09654 0.09243,-0.09654c0.01217,0 0.03699,-0.02765 0.05506,-0.06145c0.02065,-0.03859 0.0542,-0.06145 0.09021,-0.06145c0.03454,0 0.05727,-0.01462 0.05727,-0.03687c0,-0.02028 0.01204,-0.03687 0.02679,-0.03687c0.01469,0 0.07516,-0.04978 0.13428,-0.11062c0.05912,-0.06084 0.12487,-0.11062 0.14607,-0.11062c0.0212,0 0.04492,-0.01659 0.05266,-0.03687c0.0078,-0.02028 0.03023,-0.03687 0.04984,-0.03687c0.01967,0 0.02888,-0.01106 0.02052,-0.02458c-0.0086,-0.01395 0.01204,-0.02458 0.04769,-0.02458c0.03958,0 0.06293,-0.0137 0.06293,-0.03687c0,-0.02028 0.01186,-0.03687 0.02636,-0.03687c0.03398,0 0.09654,-0.06256 0.09654,-0.09654c0,-0.0145 0.02765,-0.02636 0.06145,-0.02636c0.0338,0 0.06145,-0.01106 0.06145,-0.02458c0,-0.01352 0.02765,-0.02458 0.06145,-0.02458c0.03822,0 0.06145,-0.01395 0.06145,-0.03687c0,-0.02028 0.01659,-0.03687 0.03687,-0.03687c0.02028,0 0.03687,-0.01106 0.03687,-0.02458c0,-0.01352 0.02765,-0.02458 0.06145,-0.02458c0.03822,0 0.06145,-0.01395 0.06145,-0.03687c0,-0.02292 0.02323,-0.03687 0.06145,-0.03687c0.0338,0 0.06145,-0.01106 0.06145,-0.02458c0,-0.01352 0.02212,-0.02458 0.04916,-0.02458c0.02704,0 0.04916,-0.00983 0.04916,-0.02194c0,-0.01204 0.02765,-0.02882 0.06145,-0.0373c0.0338,-0.00848 0.06145,-0.0263 0.06145,-0.03958c0,-0.01321 0.02765,-0.02409 0.06145,-0.02409c0.0338,0 0.06145,-0.01106 0.06145,-0.02458c0,-0.01352 0.02765,-0.02458 0.06145,-0.02458c0.03822,0 0.06145,-0.01395 0.06145,-0.03687c0,-0.02292 0.02323,-0.03687 0.06145,-0.03687c0.0338,0 0.06145,-0.01106 0.06145,-0.02458c0,-0.01352 0.03908,-0.02458 0.08684,-0.02458c0.05445,0 0.09206,-0.0137 0.10091,-0.03687c0.00873,-0.02274 0.04609,-0.03687 0.09759,-0.03687c0.04584,0 0.08339,-0.01106 0.08339,-0.02458c0,-0.01352 0.02765,-0.02458 0.06145,-0.02458c0.03822,0 0.06145,-0.01395 0.06145,-0.03687c0,-0.02784 0.03005,-0.03687 0.12291,-0.03687c0.0676,0 0.12291,-0.01106 0.12291,-0.02458c0,-0.01352 0.03871,-0.02458 0.08603,-0.02458c0.0601,0 0.08603,-0.01112 0.08603,-0.03687c0,-0.02784 0.03005,-0.03687 0.12291,-0.03687c0.0676,0 0.12291,-0.01106 0.12291,-0.02458c0,-0.01364 0.06582,-0.02458 0.14829,-0.02458c0.10908,0 0.15197,-0.00971 0.16236,-0.03687c0.01106,-0.0287 0.0598,-0.03687 0.22049,-0.03687c0.12113,0 0.2063,-0.01014 0.2063,-0.02458c0,-0.01585 0.25811,-0.02458 0.72515,-0.02458c0.46704,0 0.72515,0.00873 0.72515,0.02458m-0.48271,4.8548c0.01039,0.02716 0.05328,0.03687 0.16236,0.03687c0.08247,0 0.14829,0.01094 0.14829,0.02458c0,0.01352 0.03871,0.02458 0.08603,0.02458c0.06287,0 0.08603,0.01069 0.08603,0.03976c0,0.02765 0.015,0.03583 0.04922,0.02686c0.02919,-0.00762 0.05758,0.00209 0.06981,0.02391c0.01131,0.02022 0.0279,0.03583 0.03681,0.0346c0.06127,-0.0083 0.08997,0.00276 0.08997,0.03466c0,0.02292 0.02323,0.03687 0.06145,0.03687c0.0338,0 0.06145,0.01106 0.06145,0.02458c0,0.01352 0.01727,0.02458 0.03835,0.02458c0.02108,0 0.03165,0.01076 0.02353,0.02385c-0.00811,0.01315 0.0134,0.03091 0.04775,0.03958c0.03435,0.0086 0.06244,0.0255 0.06244,0.03755c0,0.0121 0.01659,0.02194 0.03687,0.02194c0.02028,0 0.03687,0.01186 0.03687,0.02636c0,0.02649 0.0598,0.09654 0.08241,0.09654c0.02895,0 0.16341,0.15468 0.16341,0.18798c0,0.04259 0.05814,0.10699 0.09654,0.10699c0.0145,0 0.02636,0.01659 0.02636,0.03687c0,0.02028 0.01106,0.03687 0.02458,0.03687c0.01352,0 0.02458,0.02765 0.02458,0.06145c0,0.03822 0.01395,0.06145 0.03687,0.06145c0.02292,0 0.03687,0.02323 0.03687,0.06145c0,0.0338 0.01106,0.06145 0.02458,0.06145c0.01352,0 0.02458,0.02649 0.02458,0.05881c0,0.03238 0.01782,0.06569 0.03964,0.07405c0.02532,0.00971 0.03503,0.03306 0.02679,0.06453c-0.00707,0.0271 0.0035,0.06569 0.02353,0.08573c0.02347,0.02347 0.03644,0.08511 0.03644,0.17311c0,0.09273 0.01076,0.14073 0.03355,0.14951c0.04935,0.01893 0.04713,0.42667 -0.00234,0.42667c-0.026,0 -0.03472,0.0365 -0.03472,0.14546c0,0.08437 -0.01143,0.14921 -0.02716,0.1545c-0.015,0.00498 -0.02913,0.04658 -0.0314,0.09236c-0.00234,0.04584 -0.01776,0.08788 -0.03429,0.09341c-0.01653,0.00547 -0.03005,0.03675 -0.03005,0.06938c0,0.0327 -0.01106,0.05942 -0.02458,0.05942c-0.01352,0 -0.02458,0.02765 -0.02458,0.06145c0,0.0338 -0.01057,0.06145 -0.02341,0.06145c-0.01291,0 -0.04179,0.03871 -0.06428,0.08603c-0.02243,0.04732 -0.05617,0.08603 -0.07491,0.08603c-0.01874,0 -0.03404,0.02292 -0.03404,0.05095c0,0.05439 -0.05322,0.12113 -0.09654,0.12113c-0.0145,0 -0.02636,0.01186 -0.02636,0.02636c0,0.03398 -0.06256,0.09654 -0.09654,0.09654c-0.0145,0 -0.02636,0.01186 -0.02636,0.02636c0,0.03398 -0.06256,0.09654 -0.09654,0.09654c-0.0145,0 -0.02636,0.01143 -0.02636,0.02538c0,0.03238 -0.60697,0.63831 -0.63942,0.63831c-0.01334,0 -0.02428,0.01186 -0.02428,0.02636c0,0.03398 -0.06256,0.09654 -0.09654,0.09654c-0.0145,0 -0.02636,0.01186 -0.02636,0.02636c0,0.03398 -0.06256,0.09654 -0.09654,0.09654c-0.0145,0 -0.02636,0.01112 -0.02636,0.02477c0,0.01358 -0.07743,0.10201 -0.17207,0.19646c-0.09464,0.09445 -0.17293,0.18565 -0.17403,0.20261c-0.00117,0.01936 -0.00731,0.01709 -0.01635,-0.00596c-0.00793,-0.02028 -0.06238,-0.08345 -0.12094,-0.14042c-0.05863,-0.05697 -0.10656,-0.11504 -0.10656,-0.12905c0,-0.01401 -0.01186,-0.0255 -0.02636,-0.0255c-0.03398,0 -0.09654,-0.06256 -0.09654,-0.09654c0,-0.0145 -0.01186,-0.02636 -0.02636,-0.02636c-0.03398,0 -0.09654,-0.06256 -0.09654,-0.09654c0,-0.0145 -0.01186,-0.02636 -0.02636,-0.02636c-0.03398,0 -0.09654,-0.06256 -0.09654,-0.09654c0,-0.0145 -0.01149,-0.02636 -0.0255,-0.02636c-0.01401,0 -0.07675,-0.05254 -0.13938,-0.11676c-0.06262,-0.06422 -0.12303,-0.114 -0.13428,-0.11062c-0.01118,0.00338 -0.0204,-0.00534 -0.0204,-0.01936c0,-0.01401 -0.04978,-0.07387 -0.11062,-0.13298c-0.06084,-0.05912 -0.11062,-0.11959 -0.11062,-0.13428c0,-0.01475 -0.01186,-0.02679 -0.02636,-0.02679c-0.03398,0 -0.09654,-0.06256 -0.09654,-0.09654c0,-0.0145 -0.01186,-0.02636 -0.02636,-0.02636c-0.03521,0 -0.09654,-0.06299 -0.09654,-0.09919c0,-0.01592 -0.01659,-0.02261 -0.03687,-0.01481c-0.02243,0.0086 -0.03687,0 -0.03687,-0.022c0,-0.01985 -0.01106,-0.03607 -0.02458,-0.03607c-0.01352,0 -0.02477,-0.01936 -0.02501,-0.04302c-0.00025,-0.02366 -0.0279,-0.06907 -0.06145,-0.10091c-0.03355,-0.03183 -0.06102,-0.06778 -0.06102,-0.07989c0,-0.0121 -0.01659,-0.022 -0.03687,-0.022c-0.02292,0 -0.03687,-0.02323 -0.03687,-0.06145c0,-0.0338 -0.01106,-0.06145 -0.02458,-0.06145c-0.01352,0 -0.02458,-0.02765 -0.02458,-0.06145c0,-0.03822 -0.01395,-0.06145 -0.03687,-0.06145c-0.02292,0 -0.03687,-0.02323 -0.03687,-0.06145c0,-0.0338 -0.01106,-0.06145 -0.02458,-0.06145c-0.01352,0 -0.02458,-0.03355 -0.02458,-0.07454c0,-0.04351 -0.0153,-0.08038 -0.03687,-0.08861c-0.02403,-0.00922 -0.03687,-0.0475 -0.03687,-0.10988c0,-0.0526 -0.01106,-0.09568 -0.02458,-0.09568c-0.0153,0 -0.02458,-0.13931 -0.02458,-0.36872c0,-0.22941 0.00928,-0.36872 0.02458,-0.36872c0.01352,0 0.02458,-0.04861 0.02458,-0.10797c0,-0.07332 0.01186,-0.11252 0.03687,-0.12217c0.02317,-0.00885 0.03687,-0.04646 0.03687,-0.10091c0,-0.04775 0.01106,-0.08684 0.02458,-0.08684c0.01352,0 0.02458,-0.02765 0.02458,-0.06145c0,-0.03822 0.01395,-0.06145 0.03687,-0.06145c0.02194,0 0.03687,-0.02255 0.03687,-0.05562c0,-0.03067 0.02759,-0.07633 0.06145,-0.10177c0.0338,-0.02538 0.06145,-0.06674 0.06145,-0.09187c0,-0.02513 0.01174,-0.04572 0.02606,-0.04572c0.01432,0 0.01918,-0.01106 0.01082,-0.02458c-0.00836,-0.01352 -0.00276,-0.02458 0.01242,-0.02458c0.01518,0 0.10951,-0.08296 0.20962,-0.18436c0.10011,-0.1014 0.19339,-0.18436 0.20734,-0.18436c0.01395,0 0.02538,-0.01659 0.02538,-0.03687c0,-0.02046 0.02188,-0.03687 0.04916,-0.03687c0.02704,0 0.04916,-0.01106 0.04916,-0.02458c0,-0.01352 0.02765,-0.02458 0.06145,-0.02458c0.03822,0 0.06145,-0.01395 0.06145,-0.03687c0,-0.02028 0.01659,-0.03687 0.03687,-0.03687c0.02028,0 0.03687,-0.01106 0.03687,-0.02458c0,-0.01352 0.03871,-0.02458 0.08603,-0.02458c0.0601,0 0.08603,-0.01112 0.08603,-0.03687c0,-0.02562 0.02581,-0.03687 0.08456,-0.03687c0.04652,0 0.09144,-0.01106 0.0998,-0.02458c0.00836,-0.01352 0.06465,-0.02458 0.12512,-0.02458c0.07503,0 0.11443,-0.01168 0.12407,-0.03687c0.01118,-0.02913 0.06219,-0.03687 0.24243,-0.03687c0.18024,0 0.23125,0.00774 0.24243,0.03687m6.33355,9.18079c-0.01979,0.01223 -0.03927,0.01886 -0.04338,0.01481c-0.00406,-0.00412 -0.00018,-0.02636 0.00873,-0.04953c0.0118,-0.03079 0.02341,-0.03472 0.04338,-0.01475c0.01991,0.01991 0.01764,0.03319 -0.00873,0.04947" id="path0" stroke="null"/>
   <path fill-rule="evenodd" d="m3.40343,2.60412c-0.02129,0.02484 -0.0387,0.06504 -0.0387,0.08933c0,0.0244 -0.01486,0.04408 -0.03327,0.04408c-0.03765,0 -0.03854,0.15459 -0.00106,0.18154c0.03083,0.02212 0.0565,-0.00044 0.0565,-0.0498c0,-0.02368 0.01248,-0.0433 0.02773,-0.04358c0.03488,-0.00072 0.11129,-0.16308 0.10125,-0.21514c-0.01076,-0.05584 -0.06737,-0.05905 -0.11245,-0.00643m15.59068,-0.02922c-0.02251,0.02246 -0.01769,0.11389 0.00676,0.12897c0.01187,0.00738 0.03887,0.05035 0.06,0.09559c0.02112,0.04525 0.05634,0.09526 0.07824,0.11123c0.0219,0.01591 0.03981,0.04336 0.03981,0.06099c0,0.01758 0.01497,0.032 0.03327,0.032c0.01863,0 0.03327,-0.0198 0.03327,-0.04508c0,-0.02473 -0.01497,-0.05079 -0.03327,-0.05778c-0.02052,-0.00787 -0.03327,-0.04159 -0.03327,-0.08805c0,-0.04136 -0.00998,-0.07524 -0.02218,-0.07524c-0.0122,0 -0.02218,-0.01996 -0.02218,-0.04436c0,-0.07247 -0.10114,-0.15764 -0.14045,-0.11827m-15.74028,0.41532c0,0.04436 0.06044,0.06138 0.0758,0.02135c0.01891,-0.04935 0.01719,-0.05223 -0.03144,-0.05223c-0.0244,0 -0.04436,0.01392 -0.04436,0.03088m15.97622,0.09432c-0.00843,0.02201 0.00155,0.0478 0.02512,0.06504c0.02152,0.01575 0.03283,0.03876 0.02517,0.05112c-0.00765,0.01242 0.00693,0.03372 0.03249,0.04741c0.0356,0.01902 0.04064,0.03177 0.02174,0.05456c-0.01869,0.02251 -0.01503,0.03693 0.01519,0.05944c0.0219,0.01636 0.04259,0.05423 0.04597,0.08423c0.00333,0.02994 0.0183,0.06211 0.03327,0.07147c0.04203,0.02639 0.04768,-0.0677 0.00676,-0.1129c-0.01929,-0.02135 -0.03504,-0.05423 -0.03504,-0.07314c0,-0.01885 -0.01436,-0.04625 -0.03194,-0.06083c-0.01758,-0.01458 -0.0265,-0.0407 -0.01991,-0.058c0.00665,-0.0173 -0.00394,-0.03759 -0.02346,-0.04508c-0.01958,-0.00754 -0.0356,-0.03754 -0.0356,-0.06676c0,-0.0605 -0.03876,-0.07125 -0.05977,-0.01658m-16.02058,0.01896c0,0.0183 0.01497,0.03327 0.03327,0.03327c0.0183,0 0.03327,-0.01497 0.03327,-0.03327c0,-0.0183 -0.01497,-0.03327 -0.03327,-0.03327c-0.0183,0 -0.03327,0.01497 -0.03327,0.03327m-0.16113,0.35704c-0.01996,0.02002 0.00754,0.07708 0.03039,0.06294c0.01092,-0.00676 0.01985,-0.02667 0.01985,-0.04425c0,-0.03266 -0.02645,-0.04247 -0.05024,-0.01869m16.38566,0.11983c-0.01857,0.03005 0.00649,0.06654 0.04569,0.06654c0.01758,0 0.03194,-0.01996 0.03194,-0.04436c0,-0.04591 -0.05351,-0.06122 -0.07763,-0.02218m0.0641,0.16463c-0.01763,0.04597 0.03471,0.08922 0.06787,0.05606c0.01375,-0.01375 0.00815,-0.0346 -0.01564,-0.05844c-0.03466,-0.0346 -0.03809,-0.03443 -0.05223,0.00238m0.05789,0.17844c0,0.0198 0.01303,0.02762 0.03316,0.01991c0.01819,-0.00704 0.02762,-0.02168 0.02085,-0.0326c-0.01935,-0.03133 -0.05401,-0.02318 -0.05401,0.0127m0.12121,0.27669c0.00693,0.0112 0.00227,0.02678 -0.01031,0.03455c-0.02972,0.01835 -0.0066,0.05545 0.0346,0.05545c0.04292,0 0.04092,-0.08051 -0.00249,-0.0972c-0.01891,-0.00727 -0.02872,-0.00399 -0.02179,0.00721m0.0417,0.25729c-0.01674,0.04364 0.00305,0.06365 0.04647,0.04702c0.01952,-0.00749 0.02828,-0.0275 0.02074,-0.04713c-0.0168,-0.04381 -0.05035,-0.04375 -0.0672,0.00011m0.0478,0.20605c-0.02201,0.02207 -0.01026,0.04697 0.03327,0.07026c0.03854,0.02063 0.04436,0.01686 0.04436,-0.02878c0,-0.04757 -0.04663,-0.07247 -0.07763,-0.04147m0.07059,0.21775c-0.03615,0.03615 -0.0148,0.11866 0.03072,0.11866c0.03721,0 0.04303,-0.00937 0.03077,-0.04991c-0.01896,-0.06266 -0.04187,-0.08833 -0.06149,-0.06876m0.0361,0.35454c-0.0148,0.03859 0.01797,0.1079 0.05101,0.1079c0.01087,0 0.02284,-0.03244 0.02667,-0.07208c0.0076,-0.07857 -0.05096,-0.10552 -0.07768,-0.03582m-17.32043,0.10569c-0.0081,0.02118 -0.00377,0.04946 0.00965,0.06288c0.01774,0.01774 0.02839,0.01392 0.03915,-0.01408c0.0081,-0.02118 0.00377,-0.04946 -0.00965,-0.06288c-0.01774,-0.01774 -0.02839,-0.01392 -0.03915,0.01408m17.38425,0.3938c0.00521,0.07175 0.01708,0.09792 0.04713,0.10364c0.03455,0.00654 0.0392,-0.00577 0.03327,-0.08833c-0.00521,-0.07175 -0.01708,-0.09792 -0.04713,-0.10364c-0.03455,-0.00654 -0.0392,0.00577 -0.03327,0.08833m-2.50532,0.0631c0,0.0427 0.00455,0.06016 0.01015,0.03881c0.00555,-0.02135 0.00555,-0.05628 0,-0.07763c-0.0056,-0.02135 -0.01015,-0.00388 -0.01015,0.03881m-14.93244,-0.01663c-0.00017,0.01525 -0.00615,0.04951 -0.01331,0.07613c-0.01081,0.04026 -0.00544,0.04641 0.03205,0.03665c0.03277,-0.00859 0.04447,-0.02922 0.04314,-0.07613c-0.00172,-0.06171 -0.06127,-0.09693 -0.06188,-0.03665m-0.01586,0.23843c0,0.05489 0.00432,0.07735 0.00959,0.04991c0.00532,-0.02745 0.00532,-0.07236 0,-0.09981c-0.00527,-0.02745 -0.00959,-0.00499 -0.00959,0.04991m0.00183,0.32161c-0.00006,0.10979 0.00366,0.15747 0.00832,0.10602c0.00466,-0.05146 0.00471,-0.14129 0.00017,-0.19962c-0.0046,-0.05833 -0.00843,-0.01619 -0.00848,0.0936m10.62229,0.21071c0,0.05489 0.00432,0.07735 0.00959,0.04991c0.00532,-0.02745 0.00532,-0.07236 0,-0.09981c-0.00527,-0.02745 -0.00959,-0.00499 -0.00959,0.04991m-0.00044,0.21071c0.00022,0.0488 0.00477,0.06615 0.01009,0.03854c0.00532,-0.02756 0.0051,-0.06748 -0.00044,-0.08872c-0.00555,-0.02118 -0.00993,0.00139 -0.00965,0.05018m-10.62523,0.2946c-0.00444,0.29266 0.00998,0.35011 0.07763,0.30836c0.03122,-0.01929 0.0056,-0.23699 -0.02789,-0.23699c-0.02251,0 -0.03216,-0.04697 -0.03771,-0.18298c-0.00549,-0.13352 -0.0087,-0.10336 -0.01203,0.11162m17.46426,0.13203c-0.03,0.03005 -0.01392,0.33858 0.01763,0.33858c0.0433,0 0.05783,-0.05002 0.05783,-0.19906c0,-0.1206 -0.0331,-0.18182 -0.07547,-0.13951m-2.51441,0.33858c0,0.0427 0.00455,0.06016 0.01015,0.03881c0.00555,-0.02135 0.00555,-0.05628 0,-0.07763c-0.0056,-0.02135 -0.01015,-0.00388 -0.01015,0.03881m-14.87455,0.14938c-0.02745,0.02745 -0.01303,0.17866 0.01819,0.19064c0.03638,0.01397 0.05728,-0.02894 0.05728,-0.11766c0,-0.05833 -0.0458,-0.10264 -0.07547,-0.07297m17.31882,0.08123c-0.02063,0.08234 -0.00255,0.15631 0.04026,0.16446c0.03283,0.00627 0.03881,-0.00993 0.03881,-0.10513c0,-0.12221 -0.05323,-0.16219 -0.07907,-0.05933m-17.2683,0.31279c-0.02029,0.08123 0.02384,0.21919 0.04929,0.15415c0.02989,-0.07647 0.02279,-0.16524 -0.01325,-0.16524c-0.0183,0 -0.03449,0.00499 -0.03604,0.01109m17.22833,0.00649c-0.01153,0.01891 -0.01985,0.10796 -0.01647,0.1765c0.00139,0.02817 0.01674,0.04991 0.03526,0.04991c0.03649,0 0.05744,-0.0677 0.0498,-0.16053c-0.00471,-0.05772 -0.04813,-0.09937 -0.06859,-0.06587m-17.16639,0.28557c-0.02967,0.02967 -0.0158,0.16263 0.01697,0.16263c0.03937,0 0.06471,-0.07364 0.04586,-0.13308c-0.01442,-0.04541 -0.0366,-0.05584 -0.06282,-0.02956m17.11354,0.02329c-0.03748,0.01348 -0.03526,0.14983 0.00294,0.18154c0.03665,0.03044 0.05806,-0.00987 0.05806,-0.10924c0,-0.06809 -0.01691,-0.08811 -0.06099,-0.07231m-17.07101,0.25396c-0.01963,0.06282 -0.00455,0.10718 0.03654,0.10718c0.03266,0 0.04059,-0.01337 0.03515,-0.05927c-0.0076,-0.06377 -0.0565,-0.09648 -0.0717,-0.04791m16.99749,0.05556c-0.01724,0.04536 -0.01503,0.06687 0.00948,0.09138c0.05894,0.05894 0.10424,-0.01902 0.0672,-0.11556c-0.02007,-0.0524 -0.05135,-0.04253 -0.07669,0.02418m-16.93971,0.24398c0.00721,0.08561 0.05279,0.12443 0.0758,0.06449c0.02057,-0.05367 -0.01004,-0.14594 -0.04852,-0.14594c-0.02584,0 -0.03249,0.01991 -0.02728,0.08145m16.88337,-0.02789c-0.0219,0.057 0.00083,0.15714 0.0356,0.15714c0.02329,0 0.03532,-0.02828 0.04009,-0.09426c0.00687,-0.09537 -0.0463,-0.13951 -0.07569,-0.06288m-16.83031,0.18254c-0.0234,0.06105 -0.01348,0.11994 0.02257,0.1338c0.04502,0.01724 0.07164,-0.02473 0.05867,-0.0926c-0.01198,-0.06271 -0.06305,-0.08861 -0.08123,-0.0412m16.79244,0.02218c-0.03626,0.03626 -0.01497,0.11877 0.03061,0.11877c0.0366,0 0.04442,-0.01187 0.03881,-0.05927c-0.00704,-0.05933 -0.0407,-0.08816 -0.06942,-0.0595m-16.73882,0.24237c0,0.08462 0.00643,0.10025 0.03881,0.0941c0.04702,-0.00893 0.06471,-0.11766 0.02662,-0.16357c-0.04614,-0.05556 -0.06543,-0.03504 -0.06543,0.06948m16.68004,-0.04697c-0.03671,0.04425 -0.01996,0.13208 0.02689,0.14101c0.031,0.00593 0.03881,-0.00826 0.03881,-0.07053c0,-0.0885 -0.02684,-0.11728 -0.06571,-0.07048m-16.62647,0.19745c-0.02013,0.05257 -0.001,0.11406 0.03543,0.11406c0.02168,0 0.03299,-0.02224 0.03299,-0.06471c0,-0.07009 -0.04735,-0.10424 -0.06843,-0.04935m16.56165,0.01797c-0.01081,0.02845 -0.01114,0.06233 -0.00077,0.07524c0.01131,0.01408 0.00089,0.03881 -0.02617,0.06199c-0.05223,0.04469 -0.04785,0.11029 0.00804,0.12105c0.03061,0.00588 0.03854,-0.00837 0.03854,-0.06948c0,-0.04935 0.01248,-0.08168 0.03477,-0.09021c0.0224,-0.00859 0.03227,-0.03443 0.02773,-0.07275c-0.00915,-0.07702 -0.05706,-0.09216 -0.08212,-0.02584m-16.50432,0.1959c0,0.05451 0.00848,0.06815 0.03881,0.06233c0.02451,-0.00471 0.03881,-0.02773 0.03881,-0.06233c0,-0.0346 -0.01431,-0.05761 -0.03881,-0.06233c-0.03033,-0.00582 -0.03881,0.00782 -0.03881,0.06233m0.04835,0.15886c0.00926,0.09687 0.07364,0.10369 0.07364,0.00776c0,-0.04641 -0.01209,-0.06854 -0.04037,-0.07397c-0.03355,-0.00649 -0.03915,0.00466 -0.03327,0.06621m16.35194,-0.01597c-0.00749,0.02983 -0.00821,0.06299 -0.00155,0.07369c0.0066,0.0107 -0.00804,0.03671 -0.0326,0.05772c-0.05196,0.04442 -0.04741,0.11001 0.00837,0.12077c0.03061,0.00588 0.03854,-0.00837 0.03854,-0.06948c0,-0.04785 0.01253,-0.08168 0.03327,-0.08966c0.04475,-0.01713 0.04513,-0.14722 0.00044,-0.14722c-0.01808,0 -0.03898,0.0244 -0.04647,0.05418m-16.2894,0.17871c0,0.05068 0.01048,0.07763 0.03022,0.07763c0.02024,0 0.02667,0.01824 0.01958,0.05545c-0.01192,0.06222 0.03737,0.07752 0.08085,0.02512c0.01913,-0.02307 0.01713,-0.03698 -0.00837,-0.05817c-0.01846,-0.01531 -0.03355,-0.04575 -0.03355,-0.06765c0,-0.0636 -0.0244,-0.11001 -0.05783,-0.11001c-0.02052,0 -0.03088,0.02606 -0.03088,0.07763m16.17733,0.11023c-0.00671,0.01747 -0.00571,0.04225 0.00216,0.05506c0.02407,0.03892 0.0783,0.0259 0.0783,-0.01874c0,-0.05168 -0.06354,-0.0804 -0.08046,-0.03632m-16.06644,0.1654c0,0.03748 0.00998,0.06815 0.02218,0.06815c0.0122,0 0.02218,0.02495 0.02218,0.05545c0,0.0305 0.00998,0.05545 0.02218,0.05545c0.0122,0 0.02218,0.02029 0.02218,0.04508c0,0.05046 0.05822,0.08301 0.09061,0.05063c0.01331,-0.01331 0.00122,-0.05844 -0.03294,-0.12265c-0.02967,-0.05584 -0.05728,-0.12493 -0.06138,-0.15354c-0.01181,-0.08323 -0.085,-0.08201 -0.085,0.00144m15.99213,0.02795c-0.057,0.118 -0.05656,0.1511 0.00211,0.1511c0.03809,0 0.04491,-0.01042 0.03632,-0.05545c-0.0071,-0.03721 -0.00066,-0.05545 0.01958,-0.05545c0.0188,0 0.03022,-0.02517 0.03022,-0.06654c0,-0.09338 -0.03549,-0.08279 -0.08822,0.02634m-0.10031,0.19546c-0.01857,0.03005 0.00649,0.06654 0.04569,0.06654c0.01758,0 0.03194,-0.01996 0.03194,-0.04436c0,-0.04591 -0.05351,-0.06122 -0.07763,-0.02218m-15.73656,0.13147c0,0.02528 0.00998,0.04597 0.02218,0.04597c0.0122,0 0.02218,0.02495 0.02218,0.05545c0,0.03449 0.01259,0.05545 0.03327,0.05545c0.02029,0 0.03327,0.02068 0.03327,0.05306c0,0.02922 0.01558,0.05905 0.03466,0.06637c0.01907,0.00732 0.02883,0.02279 0.02168,0.03432c-0.01286,0.0209 0.06992,0.11239 0.1018,0.11239c0.0412,0 0.0422,-0.0519 0.00183,-0.09593c-0.02434,-0.0265 -0.06554,-0.09565 -0.0916,-0.1536c-0.02601,-0.05795 -0.06188,-0.10535 -0.07974,-0.10535c-0.02029,0 -0.0305,-0.01835 -0.02717,-0.04902c0.00338,-0.03155 -0.00854,-0.05185 -0.03355,-0.05706c-0.02706,-0.00566 -0.03881,0.00582 -0.03881,0.03793m15.68527,-0.00421c0.01114,0.05783 0.08456,0.06427 0.08456,0.00743c0,-0.03172 -0.01425,-0.04597 -0.04597,-0.04597c-0.03177,0 -0.0437,0.01192 -0.03859,0.03854m-0.06005,0.09526c-0.00859,0.01392 -0.00521,0.03577 0.00754,0.04852c0.02983,0.02983 0.09931,0.00383 0.08717,-0.0326c-0.01236,-0.03709 -0.07508,-0.04763 -0.09471,-0.01591m-0.10663,0.22163c-0.03443,0.07286 -0.07037,0.13252 -0.07979,0.13252c-0.00943,0 -0.0351,0.03993 -0.05711,0.08872c-0.02201,0.0488 -0.04619,0.08872 -0.05378,0.08872c-0.00754,0 -0.03227,0.03432 -0.05484,0.07636c-0.02262,0.04198 -0.05484,0.08157 -0.07158,0.088c-0.01752,0.00671 -0.03022,0.04264 -0.02978,0.08445c0.00061,0.06526 0.00372,0.06881 0.03017,0.03399c0.01619,-0.02135 0.03654,-0.03881 0.04525,-0.03881c0.03216,0 0.07913,-0.06488 0.07913,-0.10929c0,-0.02606 0.01442,-0.04597 0.03327,-0.04597c0.0183,0 0.03327,-0.01497 0.03327,-0.03327c0,-0.0183 0.00998,-0.03327 0.02218,-0.03327c0.0122,0 0.02218,-0.02495 0.02218,-0.05545c0,-0.0305 0.01137,-0.05545 0.02528,-0.05545c0.03332,0 0.084,-0.06809 0.08489,-0.11406c0.00039,-0.02007 0.0168,-0.04264 0.03649,-0.05018c0.02273,-0.0087 0.03161,-0.02989 0.02429,-0.05783c-0.00749,-0.02856 -0.00055,-0.04408 0.01963,-0.04408c0.01719,0 0.03122,-0.01996 0.03122,-0.04436c0,-0.09421 -0.07658,-0.04547 -0.14034,0.08927m-15.25244,0.17533c0,0.02601 0.01442,0.04591 0.03327,0.04591c0.02068,0 0.03327,0.02096 0.03327,0.05545c0,0.0305 0.00998,0.05545 0.02218,0.05545c0.0122,0 0.02218,0.01497 0.02218,0.03327c0,0.0183 0.01497,0.03327 0.03327,0.03327c0.0183,0 0.0336,0.01747 0.03399,0.03881c0.00083,0.04797 0.05079,0.11644 0.08489,0.11644c0.01392,0 0.02528,0.00998 0.02528,0.02218c0,0.0122 0.01497,0.02218 0.03327,0.02218c0.05378,0 0.03854,-0.04946 -0.0437,-0.1419c-0.04231,-0.04752 -0.07208,-0.09421 -0.06615,-0.1038c0.00593,-0.00959 -0.00993,-0.03188 -0.03515,-0.04963c-0.02528,-0.01769 -0.05356,-0.06077 -0.06288,-0.09576c-0.02101,-0.07913 -0.11373,-0.10508 -0.11373,-0.03188m0.3327,0.4864c0,0.02057 0.03993,0.07186 0.08872,0.114c0.0488,0.04214 0.08872,0.09432 0.08872,0.11594c0,0.02163 0.00832,0.03931 0.01841,0.03931c0.01015,0 0.03138,0.02412 0.04713,0.05356c0.01575,0.0295 0.04946,0.05905 0.07486,0.06565c0.02539,0.00665 0.03959,0.01869 0.03161,0.02673c-0.01519,0.01519 0.03471,0.07585 0.06238,0.07585c0.0087,0 0.02856,0.01747 0.04414,0.03876c0.04147,0.05673 0.06909,0.01314 0.03105,-0.04902c-0.0178,-0.02911 -0.08972,-0.11345 -0.15986,-0.18753c-0.07015,-0.07408 -0.12753,-0.14783 -0.12753,-0.16391c0,-0.03671 -0.12199,-0.15531 -0.16646,-0.1618c-0.01824,-0.00272 -0.03316,0.01192 -0.03316,0.03244m14.45213,0.027c-0.06222,0.07391 -0.06959,0.09903 -0.03526,0.12027c0.0122,0.00754 0.02218,0.00316 0.02218,-0.00976c0,-0.01292 0.01042,-0.02351 0.02312,-0.02351c0.0433,0 0.11589,-0.08561 0.10241,-0.12077c-0.01958,-0.05107 -0.04841,-0.04242 -0.11245,0.03377m-0.19341,0.24897c-0.05556,0.05251 -0.10779,0.12238 -0.116,0.15526c-0.00826,0.03294 -0.02983,0.05983 -0.04791,0.05983c-0.01802,0 -0.03283,0.01497 -0.03283,0.03327c0,0.0183 -0.00837,0.03327 -0.01857,0.03327c-0.0102,0 -0.12249,0.10613 -0.24952,0.23583c-0.12704,0.1297 -0.25839,0.26111 -0.29194,0.292c-0.03355,0.03088 -0.06099,0.06493 -0.06099,0.07563c0,0.0107 -0.01963,0.04048 -0.04358,0.06621c-0.05412,0.05811 -0.03399,0.10131 0.02307,0.04968c0.0229,-0.02074 0.03632,-0.04636 0.02978,-0.05689c-0.00654,-0.01059 0.00438,-0.01924 0.02429,-0.01924c0.04092,0 0.09953,-0.05129 0.09953,-0.08711c0,-0.01308 0.01009,-0.02379 0.02246,-0.02379c0.02905,0 0.25629,-0.22762 0.24914,-0.24952c-0.00299,-0.00915 0.00582,-0.01663 0.01963,-0.01663c0.03726,0 0.26505,-0.24436 0.25812,-0.27697c-0.00577,-0.02739 0.17716,-0.21099 0.21032,-0.21099c0.00915,0 0.01663,-0.01497 0.01663,-0.03327c0,-0.0183 0.00998,-0.03327 0.02218,-0.03327c0.0122,0 0.02218,-0.01996 0.02218,-0.04436c0,-0.06432 -0.0229,-0.05572 -0.13596,0.05107m-13.43807,0.66978c0,0.0183 0.01331,0.03327 0.0295,0.03327c0.01625,0 0.04292,0.02495 0.05922,0.05545c0.0163,0.0305 0.04125,0.05545 0.05545,0.05545c0.0142,0 0.03915,0.02495 0.05545,0.05545c0.0163,0.0305 0.04297,0.05545 0.05922,0.05545c0.01619,0 0.0295,0.0102 0.0295,0.02262c0,0.02961 0.76842,0.79803 0.79803,0.79803c0.01242,0 0.02262,0.0097 0.02262,0.02152c0,0.03033 0.28008,0.31118 0.31035,0.31118c0.01375,0 0.0188,0.00998 0.01126,0.02218c-0.00754,0.0122 0.00183,0.02218 0.02085,0.02218c0.01902,0 0.0346,0.01497 0.0346,0.03327c0,0.0183 0.01497,0.03327 0.03327,0.03327c0.0183,0 0.03077,0.00793 0.02773,0.01763c-0.00698,0.02229 0.33153,0.35942 0.36087,0.35942c0.01198,0 0.02174,0.01009 0.02174,0.0224c0,0.03005 0.87788,0.90915 0.90793,0.90915c0.01297,0 0.02362,0.01053 0.02362,0.0234c0,0.02994 0.76809,0.79725 0.79809,0.79725c0.01242,0 0.02257,0.0107 0.02257,0.02379c0,0.03066 0.05645,0.08711 0.08711,0.08711c0.01308,0 0.02379,0.01037 0.02379,0.02307c0,0.03055 0.27847,0.30963 0.30891,0.30963c0.01308,0 0.02379,0.01042 0.02379,0.02318c0,0.01275 0.02451,0.04768 0.05445,0.07763c0.02994,0.02994 0.06488,0.05445 0.07763,0.05445c0.01275,0 0.02318,0.0107 0.02318,0.02379c0,0.03044 0.27908,0.30891 0.30963,0.30891c0.0127,0 0.02307,0.00965 0.02307,0.02141c0,0.02939 0.87876,0.91015 0.9081,0.91015c0.01292,0 0.02346,0.01037 0.02346,0.02301c0,0.02916 0.76981,0.79764 0.79897,0.79764c0.01192,0 0.02168,0.0107 0.02168,0.02379c0,0.04502 0.06354,0.08711 0.13147,0.08711c0.03748,0 0.06815,-0.00998 0.06815,-0.02218c0,-0.0122 0.01497,-0.02218 0.03327,-0.02218c0.0183,0 0.03327,-0.0107 0.03327,-0.02379c0,-0.02889 0.05572,-0.08711 0.0834,-0.08711c0.01098,0 0.03338,-0.02495 0.04968,-0.05545c0.0163,-0.0305 0.04464,-0.05545 0.06288,-0.05545c0.0183,0 0.02784,-0.00538 0.02124,-0.01198c-0.01497,-0.01503 0.23139,-0.26655 0.25412,-0.25939c0.00915,0.00288 0.01663,-0.0081 0.01663,-0.02429c0,-0.01625 0.02495,-0.04292 0.05545,-0.05922c0.0305,-0.0163 0.05545,-0.04125 0.05545,-0.05545c0,-0.0142 0.02495,-0.03915 0.05545,-0.05545c0.0305,-0.0163 0.05545,-0.0387 0.05545,-0.04968c0,-0.02767 0.05822,-0.0834 0.08711,-0.0834c0.01308,0 0.02379,-0.0107 0.02379,-0.02379c0,-0.02889 0.05572,-0.08711 0.0834,-0.08711c0.01098,0 0.03338,-0.02495 0.04968,-0.05545c0.0163,-0.0305 0.04125,-0.05545 0.05545,-0.05545c0.0142,0 0.03915,-0.02495 0.05545,-0.05545c0.0163,-0.0305 0.04297,-0.05545 0.05922,-0.05545c0.01619,0 0.02717,-0.00749 0.02429,-0.01663c-0.00716,-0.02273 0.24436,-0.26909 0.25939,-0.25412c0.0066,0.0066 0.01198,-0.00294 0.01198,-0.02124c0,-0.01824 0.02495,-0.04658 0.05545,-0.06288c0.0305,-0.0163 0.05545,-0.03931 0.05545,-0.05112c0,-0.01176 0.02495,-0.04453 0.05545,-0.07281c0.0616,-0.05711 0.07175,-0.09787 0.02434,-0.09787c-0.01713,0 -0.41066,0.37928 -0.87449,0.84283c-0.46383,0.46356 -0.85675,0.84283 -0.87311,0.84283c-0.01636,0 -0.72046,-0.69118 -1.56473,-1.53595c-2.14262,-2.1439 -4.65864,-4.64905 -4.75779,-4.73716c-0.04575,-0.04064 -0.08312,-0.08306 -0.08312,-0.09426c0,-0.01126 -0.01996,-0.02041 -0.04436,-0.02041c-0.02462,0 -0.04436,0.0148 -0.04436,0.03327m12.43322,0.43018c-0.00676,0.01092 0.00266,0.02556 0.02085,0.0326c0.02013,0.00771 0.03316,-0.00011 0.03316,-0.01991c0,-0.03588 -0.03466,-0.04403 -0.05401,-0.0127m-0.0677,0.06111c-0.00837,0.02257 -0.07491,0.09094 -0.14794,0.15193c-0.20965,0.17522 -1.30511,1.26048 -1.30511,1.29297c0,0.01608 -0.29444,0.32449 -0.6543,0.6853c-0.35987,0.36087 -0.6543,0.66972 -0.6543,0.68635c0,0.05052 0.0534,0.03399 0.11428,-0.03543c0.03166,-0.0361 0.06382,-0.05939 0.07147,-0.05173c0.0076,0.00765 0.01386,-0.00106 0.01386,-0.01935c0,-0.01824 0.02495,-0.04658 0.05545,-0.06288c0.0305,-0.0163 0.05545,-0.0387 0.05545,-0.04968c0,-0.02767 0.05822,-0.0834 0.08711,-0.0834c0.01308,0 0.02379,-0.0107 0.02379,-0.02379c0,-0.01303 0.01425,-0.03798 0.03166,-0.05545c0.01747,-0.01741 0.04242,-0.03166 0.05545,-0.03166c0.01308,0 0.02379,-0.0107 0.02379,-0.02379c0,-0.02889 0.05572,-0.08711 0.0834,-0.08711c0.01098,0 0.03338,-0.02495 0.04968,-0.05545c0.0163,-0.0305 0.04297,-0.05545 0.05922,-0.05545c0.01619,0 0.0295,-0.00982 0.0295,-0.02185c0,-0.01198 0.07502,-0.09682 0.16668,-0.18853c0.09171,-0.09166 0.17655,-0.16668 0.18853,-0.16668c0.01203,0 0.02185,-0.01331 0.02185,-0.0295c0,-0.01625 0.02495,-0.04292 0.05545,-0.05922c0.0305,-0.0163 0.05545,-0.0387 0.05545,-0.04968c0,-0.02767 0.05822,-0.0834 0.08711,-0.0834c0.01308,0 0.02379,-0.01497 0.02379,-0.03327c0,-0.0183 0.00998,-0.03327 0.02218,-0.03327c0.0122,0 0.02218,-0.02495 0.02218,-0.05545c0,-0.03138 0.01281,-0.05545 0.0295,-0.05545c0.01625,0 0.04292,-0.02495 0.05922,-0.05539c0.0163,-0.0305 0.03377,-0.05129 0.03887,-0.04625c0.01303,0.01308 0.09421,-0.07131 0.09421,-0.09798c0,-0.0122 0.01275,-0.02218 0.02839,-0.02218c0.01558,0 0.04275,-0.01996 0.06033,-0.04436c0.01758,-0.0244 0.04475,-0.04436 0.06033,-0.04436c0.01564,0 0.02839,-0.01497 0.02839,-0.03327c0,-0.0183 0.00998,-0.03327 0.02218,-0.03327c0.0122,0 0.02218,-0.01497 0.02218,-0.03327c0,-0.0183 0.01248,-0.03077 0.02773,-0.02773c0.01525,0.00305 0.02523,-0.00693 0.02218,-0.02218c-0.00305,-0.01525 0.00943,-0.02773 0.02773,-0.02773c0.0183,0 0.03327,-0.01558 0.03327,-0.0346c0,-0.01902 0.00998,-0.02839 0.02218,-0.02085c0.0122,0.00754 0.02218,-0.00183 0.02218,-0.02085c0,-0.01902 0.00876,-0.0346 0.01946,-0.0346c0.02922,0 0.20234,-0.16857 0.20234,-0.19701c0,-0.01364 0.01114,-0.02479 0.02479,-0.02479c0.02845,0 0.19701,-0.17311 0.19701,-0.20234c0,-0.0107 0.01558,-0.01946 0.0346,-0.01946c0.01902,0 0.02861,-0.00959 0.02135,-0.02141c-0.01835,-0.02967 0.22956,-0.27132 0.25939,-0.25285c0.01403,0.00865 0.01791,0.00471 0.00921,-0.00932c-0.00821,-0.01331 0.00272,-0.03421 0.02434,-0.04641c0.02967,-0.01669 0.03299,-0.02845 0.01375,-0.04791c-0.01935,-0.01958 -0.02922,-0.01591 -0.04076,0.01525" id="path1" stroke="null"/>
  </g>
 </g>

</svg>